<?xml version="1.0" encoding="utf-8"?>
<!-- Generator: Adobe Illustrator 24.1.0, SVG Export Plug-In . SVG Version: 6.00 Build 0)  -->
<svg version="1.1" id="Calque_1" xmlns="http://www.w3.org/2000/svg" xmlns:xlink="http://www.w3.org/1999/xlink" x="0px" y="0px"
	 viewBox="0 0 529.1 329" style="enable-background:new 0 0 529.1 329;" xml:space="preserve">
<style type="text/css">
	.st0{fill:#464E9F;}
	.st1{fill:#DAD1DE;}
	.st2{fill:#F7F1EE;}
</style>
<g>
	<path class="st0" d="M370.2,165.4c3.7,1.9,7.4,4.1,11.3,5.6c10,3.8,20.1,7.6,30.3,10.9c6,2,12.4,3.1,18.5,4.7
		c1.1,0.3,2.7,1.2,2.7,1.9c0.1,1-0.9,2.5-1.8,3c-4.5,2.3-9.1,4.4-13.7,6.3c-2.3,1-2.7,1.6-1.8,3.9c1.5,3.8,3,7.6,4.2,11.4
		c0.3,1,0.3,2.7-0.4,3.4c-0.6,0.6-2.4,0.7-3.4,0.3c-5.7-2.2-11.4-4.5-17-7c-14.2-6.3-27.9-13.5-40.8-22.3c-4.6-3.1-9-6.6-13.5-9.8
		c-0.7-0.5-1.9-0.8-2.6-0.5c-8.7,4-17.3,8-25.8,12.2c-0.9,0.5-1.9,1.8-2,2.8c-1.2,10-2.6,19.9-3.1,29.9c-0.3,6.6,0.7,13.2,1.3,19.9
		c0.6,6.7,2.3,13.1,5.1,19.1c1.2,2.6,2.8,5.1,4,7.7c0.5,1.1,0.8,2.6,0.3,3.6c-0.3,0.6-2.3,0.9-3.2,0.5c-4.8-2.1-9.4-4.4-14.1-6.6
		c-0.7-0.3-1.3-0.7-2.3-1.2c-2.4,4.1-4.7,8.1-7.1,12.1c-2.1,3.5-3.8,3.7-6.3,0.4c-3-3.9-4.5-8.4-4.9-13.1
		c-0.6-6.9-0.9-13.9-0.6-20.9c0.3-6.6,1.4-13.2,2.2-19.8c0.5-4.2,1.1-8.4,1.8-12.6c0.4-2.4,0.9-4.7,1.5-7.5c-1,0.2-1.7,0.1-2.3,0.4
		c-15.2,7.5-30.4,15.1-45.7,22.6c-15.2,7.5-30.5,15-45.7,22.5c-14.6,7.2-29.2,14.6-43.9,21.8c-9.9,4.9-19.9,9.8-29.9,14.6
		c-4.8,2.3-9.3,4.9-13.4,8.3c-4.2,3.4-9.1,5.4-14.4,6.2c-2.3,0.4-4.6,0.9-6.9,0.9c-9.5,0-18-3.2-25.7-8.6
		c-14.7-10.1-23.6-24.5-29.4-41c-3.8-10.7-4.6-22-3.5-33.2c0.9-9.1,3.5-17.9,8.1-25.9c0.6-1.1,1.8-2,3-2.5
		c5.8-2.7,11.7-5.6,17.7-7.9C67.9,178,79,174,90.2,170c10.4-3.7,20.7-7.3,31.1-10.9c8-2.7,16-5.3,24-8.1c8.9-3,17.8-6.2,26.7-9.2
		c9.5-3.3,19.1-6.5,28.7-9.8c0.9-0.3,1.8-0.8,2.5-1.1c-1.6-3.2-3.3-6.2-4.4-9.3c-2.4-6.4-0.1-11.9,3.7-16.9
		c5.3-6.9,12.7-10.4,20.7-13.1c9.7-3.4,19.6-3.3,29.4-0.8c5.8,1.5,11.3,3.6,16.2,7.3c0.6,0.5,2,0.5,2.7,0.1
		c4.8-2.7,9.9-4.6,15.3-5.8c0.7-0.2,1.5-1.2,1.7-2c1.8-9.1,5.4-17.3,11.8-24c8.6-9,18.8-14.7,31.6-14.3c8.3,0.2,15.4,5.6,17.8,13.6
		c0.9,2.8,1.3,3,4,1.7c9.7-4.7,19.3-9.5,29-14.3c16.2-7.9,32.3-15.7,48.5-23.5c9.2-4.5,18.6-8.8,27.8-13.4c3.6-1.8,7.4-1.5,11-0.9
		c8,1.2,15.6,3.8,22.3,8.6c8,5.8,13.5,13.4,16.9,22.6c4.6,12.2,6.9,24.8,5.9,37.8c-0.4,4.9-1.9,9.7-3.3,14.4c-1,3.5-4.2,4.8-7.1,6.1
		c-11.1,5.1-22.2,10.1-33.3,15.1c-15.7,7-31.5,14-47.2,20.9c-11.4,5.1-22.9,10.1-34.3,15.1c-6.5,2.9-13,5.8-19.5,8.7
		C370.3,164.9,370.3,165.2,370.2,165.4z M266,115.1c5.5-4.3,5-10.8-1.1-13.7c-2.9-1.5-5.7-3.3-8.8-4.5c-9.3-3.5-18.9-3.9-28.4-1.6
		c-7.8,1.8-15,5-20.5,11.1c-3,3.3-5.2,7.1-4.5,11.7c1.7,10.7,12.1,17.3,21.2,17.4c13,0.2,24.5-4,34.5-12.1c2.7-2.2,4.8-5.1,7.2-7.7
		C265.7,115.5,265.8,115.3,266,115.1z M34.2,241.7c0.9,3.5,1.5,7.2,2.7,10.6c5,13.9,12.7,26,24.6,35c11.8,9,24.7,12.5,39,6.1
		c4.7-2.1,9.1-4.8,11.3-10c3.3-8,3.4-16.2,2.3-24.5c-1.1-8.8-4.2-17.1-7.9-25.1c-9.8-21-25.8-34.4-48.3-40
		c-6.2-1.5-12.2,0.2-14.5,4.8c-1.8,3.6-3.4,7.6-3.7,11.5c-1.2,14,1.1,27.5,6,40.6c4,10.7,9.2,20.4,18.7,27.4
		c8,5.9,16.6,9.8,26.8,8.4c4.7-0.7,8.5-3,10.6-7.7c2.5-5.6,2.5-11.3,1.6-17.1c-1.9-11.3-5.5-22.1-11.8-31.8
		c-6.2-9.5-14-17.4-25-21.3c-5.2-1.8-9.3-1-12.8,3.8c-4.8,6.8-4.7,14.4-3.5,22c1.2,7.4,4.1,14.2,8.2,20.4c4.1,6.2,8.6,12,15.3,15.7
		c7,3.8,14.9,0.7,16.6-6.4c1-3.9,0.6-7.7-0.4-11.6c-2.4-9.2-7-17.3-12.8-24.6c-2.2-2.7-4.9-5.3-7.8-7.2c-4-2.6-7.1-0.9-8.4,3.6
		c-1.2,4.2-0.7,8.4,0.6,12.5c0.8,2.5,1.9,4.8,2.9,7.3c0.6-1.1,0.6-1.9,0.5-2.7c-0.1-2.9,0.4-5.5,3.4-6.8c3-1.3,5.2,0.3,7.1,2.2
		c4.1,4,6.7,8.9,8,14.4c0.6,2.4,0.9,4.9,0.9,7.4c-0.1,4.3-3.8,6.9-7.8,5.5c-1.8-0.6-3.7-1.6-5.1-2.9c-7.1-6.5-11.8-14.6-14.5-23.8
		c-1.6-5.5-2-11.1,0.6-16.6c1.8-3.9,6-6.4,9.4-5.5c3.6,0.9,6.8,2.6,9.4,5.3c7.4,7.4,12.8,16.1,16.5,25.9c2.6,6.9,3.9,13.9,1,21.2
		c-2.2,5.6-7.3,9-13.2,9c-7.8,0-13.6-3.9-18.5-9.4c-8.3-9.2-14.2-19.6-16.3-32c-1.3-7.5-1.1-14.9,2.1-22c3.8-8.5,11-11.7,19.9-8.8
		c10.8,3.6,18.7,11,25.3,19.9c6.8,9.2,11.1,19.6,13.4,30.8c1.4,6.5,2.5,13,1.1,19.7C105.3,286,96.7,292,86,291.4
		c-10.9-0.6-20.1-5.4-28.1-12.6c-9.8-8.8-14.8-20.3-18.6-32.5c-3-9.5-4.6-19.2-4.6-29.2c0-2.3,0-4.7,0-7c-0.1,0-0.3,0-0.4,0
		c-0.3,2.3-0.7,4.6-1,6.9c0,0.6-0.1,1.2-0.1,1.9c-0.2,0.9-0.4,1.8-0.7,2.7c0,3.8,0,7.6,0,11.4c0.2,0.7,0.4,1.5,0.6,2.2
		c0.1,1.6,0.2,3.2,0.3,4.8C33.7,240.5,33.9,241.1,34.2,241.7z M117.2,282.5c1.6-0.6,2.6-0.9,3.5-1.4c13.7-6.8,27.3-13.6,41-20.4
		c18.6-9.2,37.2-18.3,55.8-27.5c11-5.5,21.9-11.1,32.9-16.5c12.6-6.3,25.3-12.5,37.9-18.9c1.1-0.5,2.2-1.9,2.4-3.1
		c1.4-7.2,2.4-14.4,3.8-21.5c1.5-7.7,1.1-15.5-0.3-23.1c-1.9-10.6-6-20.3-13.1-28.6c-0.7-0.8-1.6-1.4-2.5-2
		c-1.5-0.9-3.5-1.3-4.7-2.4c-2-1.8-2.7-0.9-3.9,0.8c-1.6,2.2-3.3,4.4-5.3,6.2c-8.1,7.1-17.1,12.4-27.8,14.8
		c-7.7,1.7-15.5,2.3-22.7-1.1c-4.6-2.2-8.4-2.4-13.1-0.6c-12.3,4.6-24.8,8.5-37.2,12.7c-11.2,3.8-22.4,7.6-33.7,11.4
		c-13.3,4.5-26.6,8.9-39.8,13.6c-9.2,3.2-18.4,6.7-27.6,10.1c-2.4,0.9-4.7,2-7.1,3c21.3,5.1,38.4,15.9,49.6,34.6
		C116.1,240.7,122.8,260.1,117.2,282.5z M297.4,109c-0.1,0.2-0.2,0.5-0.4,0.7c0.6,0.6,1.2,1.1,1.9,1.7c11.2,8.9,22.3,17.8,33.6,26.6
		c9.9,7.7,19.9,15.3,29.8,22.9c1.4,1.1,2.7,1,4.1,0.4c7.3-3.2,14.6-6.4,21.9-9.6c20.8-9.2,41.5-18.5,62.3-27.8
		c17-7.6,34-15.3,51-23.1c2.5-1.1,5.6-1.8,6.3-5.1c0.9-4.7,2.2-9.4,2.5-14.1c0.5-8.7-0.7-17.3-3.1-25.6c-1.8-6.6-4.2-13-8.3-18.5
		c-6.6-9.2-15.7-14.6-26.7-16.9c-4.4-0.9-8.8-1.4-13.3,1c-8,4.3-16.4,8-24.6,11.9c-15.3,7.4-30.6,14.8-45.9,22.3
		c-11.9,5.8-23.7,11.6-35.5,17.5c-0.7,0.4-1.5,1.4-1.6,2.2c-0.7,9.2-4.7,16.6-12,22.3c-11.7,9.1-24.6,14.4-39.8,11.4
		C298.9,108.9,298.1,109,297.4,109z M313.8,265.8c-3.5-9.5-5.6-18.8-6.6-28.5c-1.2-10.6-0.4-21.1,0.5-31.6
		c0.7-8.6,2.3-17.1,3.3-25.7c1.3-10.8,0.6-21.6-2-32.2c-2.7-11.1-7.6-21-15.7-29.3c-2.6-2.7-5-2.5-7.9,0.5
		c7.4,9.4,11.9,20.1,13.9,31.8c1.2,7.3,1.3,14.6,0.2,21.8c-1.1,7.3-2.7,14.5-4,21.8c-1.8,10.5-3.6,20.9-5.3,31.4
		c-1.8,11.6-3.2,23.2-1.9,35c0.5,4.1,1.2,8.1,3.7,12.2c0.7-1.1,1.1-1.7,1.5-2.4c1.8-3,3.6-6,5.5-8.9c1.7-2.6,2.7-2.7,5.4-1.2
		c1.2,0.7,2.4,1.5,3.6,2.2C309.9,263.8,311.8,264.8,313.8,265.8z M412.7,211c0.3-0.3,0.5-0.6,0.8-0.9c-0.2-0.7-0.3-1.4-0.6-2
		c-1-3-2-6-3-9c-0.7-2.1-0.2-3.5,2.2-4.1c2.5-0.7,4.9-1.6,7.3-2.6c1.3-0.5,2.5-1.3,3.7-2c0-0.2-0.1-0.4-0.1-0.7
		c-2.6-0.7-5.2-1.4-7.8-2.2c-9.4-2.9-18.9-5.4-28-8.9c-13.5-5.2-26.3-12-37.8-21.1c-13.8-10.9-27.3-22.2-41-33.3
		c-2.9-2.4-6-4.6-9-6.8c-0.1,0.2-0.3,0.3-0.4,0.5c0.2,0.4,0.4,0.8,0.7,1.2c2.9,4.5,5.8,9.1,8.7,13.6c0.7,1,1.2,2.2,2,3.1
		c3.2,3.8,6.5,7.6,9.7,11.4c9,10.7,19.2,20.3,30.3,28.9c9.6,7.4,19.8,14.1,30.6,19.7C391.4,201.1,402.1,205.9,412.7,211z
		 M297.5,103.2c-0.1,0.2-0.1,0.4-0.2,0.7c2.6,0.5,5.3,1.5,7.9,1.5c13.4,0.3,24.8-4.5,34.2-14.1c7.4-7.6,9.1-16.3,5-26.1
		c-1.9-4.4-5.1-7.2-10-8.2c-5.4-1.1-10.6-0.2-15.5,2c-12.5,5.6-21.1,14.8-24.8,28.1c-0.4,1.3-0.4,2.7-0.7,4.2
		c3.2-4.7,5.8-9.4,9.2-13.5c5.9-7.2,13-12.9,22.3-15.1c10.6-2.4,15.7,4.4,13.9,13.5c-1.1,5.7-4.3,10.4-8.6,13.9
		C320.6,98,310.3,104,297.5,103.2z M315.3,184.7c8.3-3.9,16.1-7.6,23.8-11.2c-8.5-8.7-16.9-17.3-25.5-26.1
		C316.3,159.6,316.4,171.9,315.3,184.7z M297.9,93.3c0.3,0.2,0.5,0.4,0.8,0.6c0.5-0.2,1.1-0.4,1.6-0.6c10-4.7,20-9.5,29.9-14.2
		c4.4-2.1,4.8-2.9,4.1-7.7c-0.3-2.6-2-4.4-4.6-4.4c-2.4,0.1-4.9,0.3-7.1,1.1c-8.4,3.2-14.6,9-19.6,16.3
		C301.1,87.2,299.6,90.3,297.9,93.3z M281.1,115c2.3-0.9,5.6-2.1,8.8-3.6c1.9-0.8,2.8-2.3,2.1-4.4c-1.1-3.1-2.3-6.3-3.6-9.4
		c-0.1-0.3-1-0.6-1.4-0.4c-3.6,1.2-7.2,2.6-10.7,3.9c-2.2,0.8-3.4,2.1-2.1,4.6c0.3,0.7,0.2,1.6,0.1,2.4
		C273.7,111.1,276.9,115,281.1,115z M73.4,257.3c1,0.8,1.5,1.4,2.2,1.8c2.8,1.7,4.3,0.9,4.2-2.3c-0.3-6.5-3.2-11.9-7.4-16.7
		c-0.5-0.6-1.6-0.6-2.4-1c-0.3,0.8-0.7,1.6-0.7,2.4c0.1,4.1,2.4,7.4,4.8,10.4C75.7,253.9,76,255.5,73.4,257.3z M300.1,98.1
		c5.8,2.8,24.8-7,28.6-13.6C319,89.2,309.7,93.6,300.1,98.1z"/>
	<path class="st1" d="M33.2,218.8c-0.2,0.9-0.4,1.8-0.7,2.7C32.7,220.6,32.9,219.7,33.2,218.8z"/>
	<path class="st1" d="M32.5,232.9c0.2,0.7,0.4,1.5,0.6,2.2C32.9,234.4,32.7,233.7,32.5,232.9z"/>
	<path class="st1" d="M33.4,239.9c0.2,0.6,0.5,1.1,0.7,1.7C33.9,241.1,33.7,240.5,33.4,239.9z"/>
	<path class="st2" d="M265.2,114.4c0.2,0.2,0.5,0.5,0.8,0.7c-0.2,0.2-0.3,0.4-0.5,0.5c-0.2-0.2-0.3-0.3-0.5-0.5
		C265.1,114.9,265.2,114.7,265.2,114.4z"/>
	<path class="st0" d="M194.3,235.1c-0.5-0.5-1.7-1-1.8-1.7c-0.1-0.9,0.4-2.3,1.1-2.7c2.8-1.7,5.7-3.1,8.6-4.5
		c15.8-7.6,31.5-15.2,47.3-22.7c8.5-4.1,17-8.2,25.5-12.3c0.2-0.1,0.4-0.2,0.7-0.3c1.4-0.5,3.2-0.7,3.6,0.9c0.2,0.9-0.7,2.8-1.6,3.3
		c-4.1,2.3-8.4,4.2-12.7,6.3c-12.8,6.2-25.6,12.3-38.3,18.4c-10.2,4.9-20.3,9.8-30.5,14.7C195.8,234.8,195.3,234.8,194.3,235.1z"/>
	<path class="st0" d="M130.3,266.1c-0.6-0.6-1.7-1.3-2-2.2c-0.2-0.7,0.6-2.1,1.3-2.4c5.1-2.6,10.2-5.1,15.3-7.6
		c7.4-3.6,14.8-7.1,22.2-10.6c1.7-0.8,3.9-2.5,5.2,0.2c1.3,2.6-1.4,3.4-3,4.2c-12.3,6-24.7,12-37.1,18
		C131.8,265.8,131.3,265.8,130.3,266.1z"/>
	<path class="st0" d="M387.1,143.7c-0.7-0.5-1.7-0.9-1.9-1.6c-0.3-0.7,0-1.8,0.4-2.5c0.4-0.7,1.2-1.1,1.9-1.5
		c12.8-6,25.7-12,38.5-18c9.1-4.2,18.2-8.5,27.3-12.7c1.4-0.7,3-1,3.9,0.7c1,1.9-0.4,3-1.9,3.7c-13.9,6.5-27.7,13-41.6,19.5
		c-8,3.8-16,7.6-24.1,11.3C388.9,143,388.2,143.3,387.1,143.7z"/>
	<path class="st0" d="M267.1,111c-0.6,1.2-1.2,2.3-1.8,3.5c-0.1,0.2-0.1,0.5-0.2,0.7c-0.7,0.5-1.5,1-2.2,1.6
		c-9.7,8.8-21.1,12.9-34.1,12.7c-5.5-0.1-10.2-2.3-13.7-6.6c-4.1-5.1-4.1-9.4,0.3-14.6c4.2-5,10.2-7,16.2-8.7
		c11.5-3.2,22.5-1.6,33.2,3.3c0.5,0.6,0.9,1.2,1.4,1.7 M242.2,102.4c-2.5,0.4-6.6,0.8-10.6,1.8c-5,1.3-9.9,3.1-13.2,7.4
		c-2,2.6-2.2,5.4-0.5,7.8c2.8,3.8,5.8,5,9,3.8c4.5-1.6,9.1-3.1,13.6-4.8c7-2.6,14-5.3,20.9-8c0.8-0.3,1.8-1.3,1.8-2
		c0-0.7-1-1.6-1.8-2C256,103.5,250,102.7,242.2,102.4z M237.8,123.7c2.2,1.2,9.9-1.3,11.9-4C245.8,121,241.9,122.4,237.8,123.7z"/>
</g>
</svg>
