<?xml version="1.0" encoding="utf-8"?>
<!-- Generator: Adobe Illustrator 24.1.0, SVG Export Plug-In . SVG Version: 6.00 Build 0)  -->
<svg version="1.1" id="Calque_1" xmlns="http://www.w3.org/2000/svg" xmlns:xlink="http://www.w3.org/1999/xlink" x="0px" y="0px"
	 viewBox="0 0 272.2 269.5" style="enable-background:new 0 0 272.2 269.5;" xml:space="preserve">
<style type="text/css">
	.st0{enable-background:new    ;}
	.st1{fill:#9988BD;}
	.st2{fill:#D1D3E4;}
	.st3{fill:none;stroke:#707070;}
	.st4{fill:#FEF8F2;}
	.st5{fill:#F2E6E9;}
	.st6{fill:#464E9F;}
	.st7{fill:none;stroke:#F0EAD6;stroke-width:0.75;stroke-miterlimit:10;}
	.st8{fill:#F0EAD6;}
	.st9{font-family:'BodoniSvtyTwoITCTT-Book';}
	.st10{font-size:73.1261px;}
	.st11{font-family:'BodoniSvtyTwoITCTT-BookIta';}
	.st12{font-size:14.2596px;}
	.st13{fill:none;stroke:#FFFFFF;stroke-width:0.75;stroke-miterlimit:10;}
</style>
<g id="Rectangle_1" transform="translate(-618 63)" class="st0">
	<rect x="-352.2" y="2.8" class="st1" width="239.7" height="87.5"/>
	<rect x="-351.8" y="3.1" class="st1" width="239" height="86.9"/>
</g>
<g id="Rectangle_2" transform="translate(-618 352)">
	<rect x="-352.2" y="-121" class="st2" width="239.7" height="87.5"/>
	<rect x="-351.8" y="-120.7" class="st3" width="239" height="86.9"/>
</g>
<g id="Rectangle_3" transform="translate(-618 877)">
	<rect x="-352.2" y="-345.9" class="st4" width="239.7" height="87.5"/>
	<rect x="-351.8" y="-345.6" class="st3" width="239" height="86.9"/>
</g>
<g id="Rectangle_4" transform="translate(-618 624)">
	<rect x="-352.2" y="-237.5" class="st5" width="239.7" height="87.5"/>
	<rect x="-351.8" y="-237.2" class="st3" width="239" height="86.9"/>
</g>
<g id="Rectangle_5" transform="translate(-618 -226)">
	<rect x="-352.2" y="126.6" class="st6" width="239.7" height="87.5"/>
	<rect x="-351.8" y="126.9" class="st3" width="239" height="86.9"/>
</g>
<g>
	<path class="st7" d="M138.2,45.3c-49,0-88.7,39.7-88.7,88.7s39.7,88.7,88.7,88.7s88.7-39.7,88.7-88.7S187.2,45.3,138.2,45.3z"/>
	<path class="st7" d="M140,52.1c-46.8,0-84.6,37.9-84.6,84.6s37.8,84.7,84.6,84.7s84.6-37.9,84.6-84.6S186.7,52.1,140,52.1z"/>
	<path class="st7" d="M137.2,48.4c-48.7,0-88,39.4-88,88s39.4,88,88,88s88-39.4,88-88S185.8,48.4,137.2,48.4z"/>
	<text transform="matrix(1 0 0 1 105.7948 133.1589)" class="st8 st9 st10">S</text>
	<g>
		<text transform="matrix(1 0 0 1 132.8578 178.0196)" class="st8 st9 st10">E</text>
	</g>
	<text transform="matrix(1 0 0 1 141.0023 109.1707)" class="st8 st11 st12">souffle</text>
	<text transform="matrix(1 0 0 1 101.9399 195.1169)" class="st8 st11 st12">dՎquilibre</text>
	<g>
		<path class="st7" d="M164.1,122.8c0,0,2.8-2.7,4.4-0.9c2,2.3-0.7,9.1,1.6,14.1c1.3,2.7,2.6,1.8,5.2,6.1c1.5,2.4,2.2,4.6,2.4,4.3
			c0.4-0.3-0.1-3.7-0.9-6.3c-0.4-1.3-0.6-1.4-1.4-4c-0.3-0.8-0.4-1.4-0.8-2.2c-0.1-0.2-0.5-1.1-1.2-2.2c-0.9-1.3-1.5-1.6-3.1-4.7
			c-1.4-2.7-1.9-3.7-3.1-4.4C165.6,121.8,164.1,122.8,164.1,122.8z"/>
		<path class="st7" d="M191.2,130.7c-5.6,6.5-8.4,12.2-9.9,16.4c-0.4,1.1-1.2,3.5-2.7,6.5c-2,4-3.9,6.9-5.3,8.6"/>
		<path class="st7" d="M171.5,116.8c1.5,1.8,2.2,3.6,2.6,4.9c0.9,3,0.3,4.3,1.2,10.1c0.2,1,0.4,2.4,0.9,4.8c0.2,1.2,0.5,3,0.8,5.6
			c0,0.1,0,0.1,0,0.2c0.3,2.7,0.9,4.4,1.2,5.2c0.4,1.2,0.7,3,0.3,6.1"/>
		<path class="st7" d="M170.4,127.2c0.3,2,0.7,3.8,1.1,5.2c0,0,0.6,2.4,1.5,4.9l0,0c0,0,1.5,3.1,1.7,3.5"/>
		<path class="st7" d="M191.2,130.7c-0.1-0.2-0.5,0-2.8,2c-2.7,2.5-4.1,3.7-4.8,4.8c-3,4.2-4.3,11.6-3.4,12.8c0.8,1,3.3-2,4.8-4.6
			c1.4-2.5,1.2-3.6,3.1-8C189.9,133.3,191.4,131.2,191.2,130.7z"/>
		<path class="st13" d="M172.6,123.3"/>
		<path class="st7" d="M171.1,117c-0.2,0.4,0.6,1.5,1.2,3.1c1.3,3.1,0.9,4.9,1.6,11.5c0.3,2.8,0.9,6.9,2.2,11.5
			c0.5,1.8,1.4,4.7,2,4.5c0.7-0.3,0.7-4.9,0.6-6.4c0-3.6-0.5-6.4-0.6-7.2c-0.7-4.4-1.3-3.7-2.4-9c-0.7-3.4-0.9-4.6-1.8-6
			C172.9,117.3,171.3,116.5,171.1,117z"/>
	</g>
	<g>
		<path class="st7" d="M116.6,92.1c0,0-1.5-1-3.2,0c-1.2,0.7-1.6,1.7-3.1,4.4c-1.6,3-2.2,3.4-3.1,4.7c-0.7,1.1-1.1,1.9-1.2,2.2
			c-0.4,0.8-0.5,1.4-0.8,2.2c-0.8,2.6-1,2.7-1.4,4c-0.8,2.6-1.3,6-0.9,6.3c0.3,0.3,1-1.9,2.4-4.3c2.6-4.4,3.9-3.4,5.2-6.1
			c2.4-5-0.4-11.8,1.6-14.1C113.8,89.4,116.6,92.1,116.6,92.1z"/>
		<path class="st7" d="M107.6,131.6c-1.4-1.8-3.4-4.6-5.3-8.6c-1.5-3-2.3-5.5-2.7-6.5c-1.5-4.2-4.4-9.8-9.9-16.4"/>
		<path class="st7" d="M102.2,123c-0.4-3.1-0.1-5,0.3-6.1c0.3-0.8,1-2.5,1.2-5.2c0-0.1,0,0,0-0.2c0.2-2.6,0.6-4.4,0.8-5.6
			c0.4-2.4,0.7-3.8,0.9-4.8c1-5.8,0.4-7.1,1.2-10.1c0.4-1.3,1.1-3.1,2.6-4.9"/>
		<path class="st7" d="M106.1,110.1c0.2-0.4,1.7-3.5,1.7-3.5l0,0c0.9-2.4,1.5-4.9,1.5-4.9c0.4-1.4,0.7-3.1,1.1-5.2"/>
		<path class="st7" d="M89.6,100c-0.3,0.5,1.2,2.6,3.1,7s1.7,5.5,3.1,8c1.5,2.6,4,5.6,4.8,4.6c0.9-1.2-0.4-8.5-3.4-12.8
			c-0.7-1-2.1-2.3-4.8-4.8C90.1,99.9,89.7,99.7,89.6,100z"/>
		<path class="st13" d="M108.1,92.6"/>
		<path class="st7" d="M109.6,86.3c-0.2-0.5-1.8,0.3-2.9,2c-0.9,1.4-1.1,2.6-1.8,6c-1.1,5.3-1.6,4.6-2.4,9c-0.1,0.8-0.6,3.5-0.6,7.2
			c0,1.5-0.1,6.1,0.6,6.4c0.6,0.2,1.5-2.7,2-4.5c1.4-4.5,1.9-8.7,2.2-11.5c0.7-6.5,0.3-8.4,1.6-11.5C109,87.8,109.8,86.7,109.6,86.3
			z"/>
	</g>
	<circle class="st8" cx="188.4" cy="42.6" r="2.7"/>
	<circle class="st8" cx="230.1" cy="89" r="2.7"/>
	<circle class="st8" cx="220.1" cy="125" r="1.8"/>
	<circle class="st8" cx="216.4" cy="118.8" r="1.8"/>
	<circle class="st8" cx="237.6" cy="105.6" r="1.1"/>
	<circle class="st8" cx="234.7" cy="98" r="1.8"/>
	<circle class="st8" cx="236.5" cy="123.2" r="1.1"/>
	<circle class="st8" cx="221.1" cy="144.8" r="1.1"/>
	<circle class="st8" cx="236.5" cy="144.8" r="1.8"/>
	<circle class="st8" cx="236.5" cy="152.4" r="1.8"/>
	<circle class="st8" cx="232.8" cy="156.5" r="1.1"/>
	<circle class="st8" cx="199" cy="187.7" r="2.7"/>
	<circle class="st8" cx="207.6" cy="181.3" r="1.8"/>
	<circle class="st8" cx="211.3" cy="198.5" r="1.8"/>
	<circle class="st8" cx="206.5" cy="203.6" r="1.8"/>
	<circle class="st8" cx="201.8" cy="208.4" r="1.8"/>
	<circle class="st8" cx="162.3" cy="227.4" r="1.8"/>
	<circle class="st8" cx="169.2" cy="224.5" r="1.8"/>
	<circle class="st8" cx="208.4" cy="209.5" r="1.8"/>
	<circle class="st8" cx="173.6" cy="225.6" r="1.1"/>
	<circle class="st8" cx="172.5" cy="220.8" r="1.1"/>
	<circle class="st8" cx="193" cy="192.3" r="1.1"/>
	<circle class="st8" cx="196.3" cy="211.3" r="1.1"/>
	<circle class="st8" cx="182.4" cy="70.9" r="1.8"/>
	<circle class="st8" cx="188.6" cy="72.7" r="1.1"/>
	<circle class="st8" cx="186.4" cy="76.4" r="1.1"/>
	<circle class="st8" cx="141.1" cy="57.4" r="1.1"/>
	<circle class="st8" cx="125.7" cy="38.7" r="1.8"/>
	<circle class="st8" cx="120.2" cy="35.8" r="1.1"/>
	<circle class="st8" cx="119.1" cy="39.8" r="1.1"/>
	<circle class="st8" cx="107.8" cy="45.3" r="1.1"/>
	<circle class="st8" cx="79.1" cy="58.3" r="2.7"/>
	<circle class="st8" cx="85.9" cy="53" r="1.8"/>
	<circle class="st8" cx="80" cy="83.3" r="1.8"/>
	<circle class="st8" cx="70.9" cy="56.3" r="1.8"/>
	<circle class="st8" cx="58.8" cy="85.2" r="1.1"/>
	<circle class="st8" cx="78.2" cy="88.8" r="1.8"/>
	<circle class="st8" cx="84" cy="87" r="1.1"/>
	<circle class="st8" cx="65.2" cy="121.2" r="2.7"/>
	<circle class="st8" cx="62.5" cy="128.7" r="1.8"/>
	<circle class="st8" cx="69" cy="127.2" r="1.1"/>
	<circle class="st8" cx="40.5" cy="134.9" r="1.8"/>
	<circle class="st8" cx="42.4" cy="158.6" r="1.1"/>
	<circle class="st8" cx="65" cy="159.7" r="1.8"/>
	<circle class="st8" cx="46.6" cy="166.9" r="2.7"/>
	<circle class="st8" cx="78.2" cy="186.8" r="1.8"/>
	<circle class="st8" cx="82.9" cy="193.4" r="1.8"/>
	<circle class="st8" cx="66.9" cy="198.5" r="1.8"/>
	<circle class="st8" cx="63.2" cy="193.4" r="1.1"/>
	<circle class="st8" cx="72.3" cy="203.6" r="1.1"/>
	<circle class="st8" cx="126.6" cy="214" r="2.7"/>
	<circle class="st8" cx="134.5" cy="216.8" r="1.8"/>
	<circle class="st8" cx="129.4" cy="227.4" r="1.8"/>
</g>
</svg>
