<?xml version="1.0" encoding="utf-8"?>
<!-- Generator: Adobe Illustrator 24.1.0, SVG Export Plug-In . SVG Version: 6.00 Build 0)  -->
<svg version="1.1" id="Calque_1" xmlns="http://www.w3.org/2000/svg" xmlns:xlink="http://www.w3.org/1999/xlink" x="0px" y="0px"
	 viewBox="0 0 272.2 269.5" style="enable-background:new 0 0 272.2 269.5;" xml:space="preserve">
<style type="text/css">
	.st0{enable-background:new    ;}
	.st1{fill:#9988BD;}
	.st2{fill:#D1D3E4;}
	.st3{fill:none;stroke:#707070;}
	.st4{fill:#FEF8F2;}
	.st5{fill:#F2E6E9;}
	.st6{fill:#464E9F;}
	.st7{fill:none;stroke:#FFFFFF;stroke-width:0.75;stroke-miterlimit:10;}
	.st8{fill:#FFFFFF;}
	.st9{font-family:'BodoniSvtyTwoITCTT-Book';}
	.st10{font-size:73.1261px;}
	.st11{font-family:'BodoniSvtyTwoITCTT-BookIta';}
	.st12{font-size:14.2596px;}
	.st13{letter-spacing:1;}
</style>
<g id="Rectangle_1" transform="translate(-618 63)" class="st0">
	<rect x="-352.2" y="2.8" class="st1" width="239.7" height="87.5"/>
	<rect x="-351.8" y="3.1" class="st1" width="239" height="86.9"/>
</g>
<g id="Rectangle_2" transform="translate(-618 352)">
	<rect x="-352.2" y="-121" class="st2" width="239.7" height="87.5"/>
	<rect x="-351.8" y="-120.7" class="st3" width="239" height="86.9"/>
</g>
<g id="Rectangle_3" transform="translate(-618 877)">
	<rect x="-352.2" y="-345.9" class="st4" width="239.7" height="87.5"/>
	<rect x="-351.8" y="-345.6" class="st3" width="239" height="86.9"/>
</g>
<g id="Rectangle_4" transform="translate(-618 624)">
	<rect x="-352.2" y="-237.5" class="st5" width="239.7" height="87.5"/>
	<rect x="-351.8" y="-237.2" class="st3" width="239" height="86.9"/>
</g>
<g id="Rectangle_5" transform="translate(-618 -226)">
	<rect x="-352.2" y="126.6" class="st6" width="239.7" height="87.5"/>
	<rect x="-351.8" y="126.9" class="st3" width="239" height="86.9"/>
</g>
<g>
	<path class="st7" d="M130.8,37.2c-49,0-88.7,39.7-88.7,88.7s39.7,88.7,88.7,88.7s88.7-39.7,88.7-88.7S179.8,37.2,130.8,37.2z"/>
	<path class="st7" d="M132.6,44C85.8,44,48,81.9,48,128.6s37.8,84.7,84.6,84.7s84.6-37.9,84.6-84.6S179.3,44,132.6,44z"/>
	<path class="st7" d="M129.8,40.3c-48.7,0-88,39.4-88,88s39.4,88,88,88s88-39.4,88-88S178.4,40.3,129.8,40.3z"/>
	<text transform="matrix(1 0 0 1 98.4272 125.1024)" class="st8 st9 st10">S</text>
	<text transform="matrix(1 0 0 1 125.4902 169.9632)" class="st8 st9 st10">E</text>
	<text transform="matrix(1 0 0 1 133.6348 101.1142)" class="st8 st11 st12 st13">souffle</text>
	<text transform="matrix(1 0 0 1 94.5723 187.0604)" class="st8 st11 st12">dՎquilibre</text>
	<g>
		<path class="st7" d="M156.7,114.7c0,0,2.8-2.7,4.4-0.9c2,2.3-0.7,9.1,1.6,14.1c1.3,2.7,2.6,1.8,5.2,6.1c1.5,2.4,2.2,4.6,2.4,4.3
			c0.4-0.3-0.1-3.7-0.9-6.3c-0.4-1.3-0.6-1.4-1.4-4c-0.3-0.8-0.4-1.4-0.8-2.2c-0.1-0.2-0.5-1.1-1.2-2.2c-0.9-1.3-1.5-1.6-3.1-4.7
			c-1.4-2.7-1.9-3.7-3.1-4.4C158.2,113.7,156.7,114.7,156.7,114.7z"/>
		<path class="st7" d="M183.8,122.6c-5.6,6.5-8.4,12.2-9.9,16.4c-0.4,1.1-1.2,3.5-2.7,6.5c-2,4-3.9,6.9-5.3,8.6"/>
		<path class="st7" d="M164.1,108.7c1.5,1.8,2.2,3.6,2.6,4.9c0.9,3,0.3,4.3,1.2,10.1c0.2,1,0.4,2.4,0.9,4.8c0.2,1.2,0.5,3,0.8,5.6
			c0,0.1,0,0.1,0,0.2c0.3,2.7,0.9,4.4,1.2,5.2c0.4,1.2,0.7,3,0.3,6.1"/>
		<path class="st7" d="M163,119.1c0.3,2,0.7,3.8,1.1,5.2c0,0,0.6,2.4,1.5,4.9l0,0c0,0,1.5,3.1,1.7,3.5"/>
		<path class="st7" d="M183.8,122.6c-0.1-0.2-0.5,0-2.8,2c-2.7,2.5-4.1,3.7-4.8,4.8c-3,4.2-4.3,11.6-3.4,12.8c0.8,1,3.3-2,4.8-4.6
			c1.4-2.5,1.2-3.6,3.1-8C182.5,125.2,184,123.1,183.8,122.6z"/>
		<path class="st7" d="M165.2,115.2"/>
		<path class="st7" d="M163.7,108.9c-0.2,0.4,0.6,1.5,1.2,3.1c1.3,3.1,0.9,4.9,1.6,11.5c0.3,2.8,0.9,6.9,2.2,11.5
			c0.5,1.8,1.4,4.7,2,4.5c0.7-0.3,0.7-4.9,0.6-6.4c0-3.6-0.5-6.4-0.6-7.2c-0.7-4.4-1.3-3.7-2.4-9c-0.7-3.4-0.9-4.6-1.8-6
			C165.5,109.2,163.9,108.4,163.7,108.9z"/>
	</g>
	<g>
		<path class="st7" d="M109.2,84c0,0-1.5-1-3.2,0c-1.2,0.7-1.6,1.7-3.1,4.4c-1.6,3-2.2,3.4-3.1,4.7c-0.7,1.1-1.1,1.9-1.2,2.2
			c-0.4,0.8-0.5,1.4-0.8,2.2c-0.8,2.6-1,2.7-1.4,4c-0.8,2.6-1.3,6-0.9,6.3c0.3,0.3,1-1.9,2.4-4.3c2.6-4.4,3.9-3.4,5.2-6.1
			c2.4-5-0.4-11.8,1.6-14.1C106.4,81.3,109.2,84,109.2,84z"/>
		<path class="st7" d="M100.2,123.5c-1.4-1.8-3.4-4.6-5.3-8.6c-1.5-3-2.3-5.5-2.7-6.5c-1.5-4.2-4.4-9.8-9.9-16.4"/>
		<path class="st7" d="M94.8,114.9c-0.4-3.1-0.1-5,0.3-6.1c0.3-0.8,1-2.5,1.2-5.2c0-0.1,0,0,0-0.2c0.2-2.6,0.6-4.4,0.8-5.6
			c0.4-2.4,0.7-3.8,0.9-4.8c1-5.8,0.4-7.1,1.2-10.1c0.4-1.3,1.1-3.1,2.6-4.9"/>
		<path class="st7" d="M98.7,102c0.2-0.4,1.7-3.5,1.7-3.5l0,0c0.9-2.4,1.5-4.9,1.5-4.9c0.4-1.4,0.7-3.1,1.1-5.2"/>
		<path class="st7" d="M82.2,91.9c-0.3,0.5,1.2,2.6,3.1,7s1.7,5.5,3.1,8c1.5,2.6,4,5.6,4.8,4.6c0.9-1.2-0.4-8.5-3.4-12.8
			c-0.7-1-2.1-2.3-4.8-4.8C82.7,91.8,82.3,91.6,82.2,91.9z"/>
		<path class="st7" d="M100.7,84.5"/>
		<path class="st7" d="M102.2,78.2c-0.2-0.5-1.8,0.3-2.9,2c-0.9,1.4-1.1,2.6-1.8,6c-1.1,5.3-1.6,4.6-2.4,9c-0.1,0.8-0.6,3.5-0.6,7.2
			c0,1.5-0.1,6.1,0.6,6.4c0.6,0.2,1.5-2.7,2-4.5c1.4-4.5,1.9-8.7,2.2-11.5c0.7-6.5,0.3-8.4,1.6-11.5
			C101.6,79.7,102.4,78.6,102.2,78.2z"/>
	</g>
	<circle class="st8" cx="181" cy="34.5" r="2.7"/>
	<circle class="st8" cx="222.7" cy="80.9" r="2.7"/>
	<circle class="st8" cx="212.7" cy="116.9" r="1.8"/>
	<circle class="st8" cx="209" cy="110.7" r="1.8"/>
	<circle class="st8" cx="230.2" cy="97.5" r="1.1"/>
	<circle class="st8" cx="227.3" cy="89.9" r="1.8"/>
	<circle class="st8" cx="229.1" cy="115.1" r="1.1"/>
	<circle class="st8" cx="213.7" cy="136.7" r="1.1"/>
	<circle class="st8" cx="229.1" cy="136.7" r="1.8"/>
	<circle class="st8" cx="229.1" cy="144.3" r="1.8"/>
	<circle class="st8" cx="225.4" cy="148.4" r="1.1"/>
	<circle class="st8" cx="191.6" cy="179.6" r="2.7"/>
	<circle class="st8" cx="200.2" cy="173.2" r="1.8"/>
	<circle class="st8" cx="203.9" cy="190.4" r="1.8"/>
	<circle class="st8" cx="199.1" cy="195.5" r="1.8"/>
	<circle class="st8" cx="194.4" cy="200.3" r="1.8"/>
	<circle class="st8" cx="154.9" cy="219.3" r="1.8"/>
	<circle class="st8" cx="161.8" cy="216.4" r="1.8"/>
	<circle class="st8" cx="201" cy="201.4" r="1.8"/>
	<circle class="st8" cx="166.2" cy="217.5" r="1.1"/>
	<circle class="st8" cx="165.1" cy="212.7" r="1.1"/>
	<circle class="st8" cx="185.6" cy="184.2" r="1.1"/>
	<circle class="st8" cx="188.9" cy="203.2" r="1.1"/>
	<circle class="st8" cx="175" cy="62.8" r="1.8"/>
	<circle class="st8" cx="181.2" cy="64.6" r="1.1"/>
	<circle class="st8" cx="179" cy="68.3" r="1.1"/>
	<circle class="st8" cx="133.7" cy="49.3" r="1.1"/>
	<circle class="st8" cx="118.3" cy="30.6" r="1.8"/>
	<circle class="st8" cx="112.8" cy="27.7" r="1.1"/>
	<circle class="st8" cx="111.7" cy="31.7" r="1.1"/>
	<circle class="st8" cx="100.4" cy="37.2" r="1.1"/>
	<circle class="st8" cx="71.7" cy="50.2" r="2.7"/>
	<circle class="st8" cx="78.5" cy="44.9" r="1.8"/>
	<circle class="st8" cx="72.6" cy="75.2" r="1.8"/>
	<circle class="st8" cx="63.5" cy="48.2" r="1.8"/>
	<circle class="st8" cx="51.4" cy="77.1" r="1.1"/>
	<circle class="st8" cx="70.8" cy="80.7" r="1.8"/>
	<circle class="st8" cx="76.6" cy="78.9" r="1.1"/>
	<circle class="st8" cx="57.8" cy="113.1" r="2.7"/>
	<circle class="st8" cx="55.1" cy="120.6" r="1.8"/>
	<circle class="st8" cx="61.6" cy="119.1" r="1.1"/>
	<circle class="st8" cx="33.1" cy="126.8" r="1.8"/>
	<circle class="st8" cx="35" cy="150.5" r="1.1"/>
	<circle class="st8" cx="57.6" cy="151.6" r="1.8"/>
	<circle class="st8" cx="39.2" cy="158.8" r="2.7"/>
	<circle class="st8" cx="70.8" cy="178.7" r="1.8"/>
	<circle class="st8" cx="75.5" cy="185.3" r="1.8"/>
	<circle class="st8" cx="59.5" cy="190.4" r="1.8"/>
	<circle class="st8" cx="55.8" cy="185.3" r="1.1"/>
	<circle class="st8" cx="64.9" cy="195.5" r="1.1"/>
	<circle class="st8" cx="119.2" cy="205.9" r="2.7"/>
	<circle class="st8" cx="127.1" cy="208.7" r="1.8"/>
	<circle class="st8" cx="122" cy="219.3" r="1.8"/>
</g>
</svg>
