<?xml version="1.0" encoding="utf-8"?>
<!-- Generator: Adobe Illustrator 24.1.0, SVG Export Plug-In . SVG Version: 6.00 Build 0)  -->
<svg version="1.1" id="Calque_1" xmlns="http://www.w3.org/2000/svg" xmlns:xlink="http://www.w3.org/1999/xlink" x="0px" y="0px"
	 viewBox="0 0 272.2 269.5" style="enable-background:new 0 0 272.2 269.5;" xml:space="preserve">
<style type="text/css">
	.st0{enable-background:new    ;}
	.st1{fill:#9988BD;}
	.st2{fill:#D1D3E4;}
	.st3{fill:none;stroke:#707070;}
	.st4{fill:#FEF8F2;}
	.st5{fill:#F2E6E9;}
	.st6{fill:#464E9F;}
	.st7{fill:#FFFFFF;stroke:#9988BD;stroke-width:0.75;stroke-miterlimit:10;}
	.st8{fill:#FFFFFF;stroke:#000000;stroke-width:0.75;stroke-miterlimit:10;}
	.st9{font-family:'BodoniSvtyTwoITCTT-Book';}
	.st10{font-size:73.1261px;}
	.st11{font-family:'BodoniSvtyTwoITCTT-BookIta';}
	.st12{font-size:14.2596px;}
	.st13{letter-spacing:3;}
	.st14{letter-spacing:1;}
	.st15{fill:none;stroke:#9988BD;stroke-width:0.75;stroke-miterlimit:10;}
	.st16{fill:#FFFFFF;}
</style>
<g id="Rectangle_1" transform="translate(-618 63)" class="st0">
	<rect x="-352.2" y="2.8" class="st1" width="239.7" height="87.5"/>
	<rect x="-351.8" y="3.1" class="st1" width="239" height="86.9"/>
</g>
<g id="Rectangle_2" transform="translate(-618 352)">
	<rect x="-352.2" y="-121" class="st2" width="239.7" height="87.5"/>
	<rect x="-351.8" y="-120.7" class="st3" width="239" height="86.9"/>
</g>
<g id="Rectangle_3" transform="translate(-618 877)">
	<rect x="-352.2" y="-345.9" class="st4" width="239.7" height="87.5"/>
	<rect x="-351.8" y="-345.6" class="st3" width="239" height="86.9"/>
</g>
<g id="Rectangle_4" transform="translate(-618 624)">
	<rect x="-352.2" y="-237.5" class="st5" width="239.7" height="87.5"/>
	<rect x="-351.8" y="-237.2" class="st3" width="239" height="86.9"/>
</g>
<g id="Rectangle_5" transform="translate(-618 -226)">
	<rect x="-352.2" y="126.6" class="st6" width="239.7" height="87.5"/>
	<rect x="-351.8" y="126.9" class="st3" width="239" height="86.9"/>
</g>
<g>
	<path class="st7" d="M142.6,45.3c-50,0-90.5,40.5-90.5,90.5s40.5,90.5,90.5,90.5s90.5-40.5,90.5-90.5S192.6,45.3,142.6,45.3z"/>
	<path class="st7" d="M136.4,52.9c-48,0-86.8,38.9-86.8,86.8s38.9,86.8,86.8,86.8s86.8-38.9,86.8-86.8S184.4,52.9,136.4,52.9z"/>
	<path class="st7" d="M141.2,57.7c-46.8,0-84.6,37.9-84.6,84.6S94.4,227,141.2,227s84.6-37.9,84.6-84.6S187.9,57.7,141.2,57.7z"/>
	<path class="st7" d="M145.9,55.1c-46.8,0-84.6,37.9-84.6,84.6s37.9,84.6,84.6,84.6s84.6-37.9,84.6-84.6S192.7,55.1,145.9,55.1z"/>
	<path class="st7" d="M138.6,55.1C91.9,55.1,54,93,54,139.8s37.9,84.6,84.6,84.6s84.6-37.9,84.6-84.6S185.4,55.1,138.6,55.1z"/>
	<path class="st8" d="M141.2,55.1c-46.8,0-84.6,37.9-84.6,84.6s37.9,84.6,84.6,84.6s84.6-37.9,84.6-84.6S187.9,55.1,141.2,55.1z"/>
	<path class="st7" d="M141.2,55.1c-46.8,0-84.6,37.9-84.6,84.6s37.9,84.6,84.6,84.6s84.6-37.9,84.6-84.6S187.9,55.1,141.2,55.1z"/>
	<text transform="matrix(1 0 0 1 105.9233 135.9023)" class="st1 st9 st10">S</text>
	<text transform="matrix(1 0 0 1 132.9863 180.7632)" class="st1 st9 st10">E</text>
	<text transform="matrix(1 0 0 1 141.1309 111.9141)" class="st1 st11 st12 st13">souffle</text>
	<text transform="matrix(1 0 0 1 102.0684 197.8604)" class="st1 st11 st12 st14">dՎquilibre</text>
	<g>
		<path class="st15" d="M164.2,125.5c0,0,2.8-2.7,4.4-0.9c2,2.3-0.7,9.1,1.6,14.1c1.3,2.7,2.6,1.8,5.2,6.1c1.5,2.4,2.2,4.6,2.4,4.3
			c0.4-0.3-0.1-3.7-0.9-6.3c-0.4-1.3-0.6-1.4-1.4-4c-0.3-0.8-0.4-1.4-0.8-2.2c-0.1-0.2-0.5-1.1-1.2-2.2c-0.9-1.3-1.5-1.6-3.1-4.7
			c-1.4-2.7-1.9-3.7-3.1-4.4C165.7,124.5,164.2,125.5,164.2,125.5z"/>
		<path class="st15" d="M191.3,133.4c-5.6,6.5-8.4,12.2-9.9,16.4c-0.4,1.1-1.2,3.5-2.7,6.5c-2,4-3.9,6.9-5.3,8.6"/>
		<path class="st15" d="M171.6,119.5c1.5,1.8,2.2,3.6,2.6,4.9c0.9,3,0.3,4.3,1.2,10.1c0.2,1,0.4,2.4,0.9,4.8c0.2,1.2,0.5,3,0.8,5.6
			c0,0.1,0,0.1,0,0.2c0.3,2.7,0.9,4.4,1.2,5.2c0.4,1.2,0.7,3,0.3,6.1"/>
		<path class="st15" d="M170.5,129.9c0.3,2,0.7,3.8,1.1,5.2c0,0,0.6,2.4,1.5,4.9l0,0c0,0,1.5,3.1,1.7,3.5"/>
		<path class="st15" d="M191.3,133.4c-0.1-0.2-0.5,0-2.8,2c-2.7,2.5-4.1,3.7-4.8,4.8c-3,4.2-4.3,11.6-3.4,12.8c0.8,1,3.3-2,4.8-4.6
			c1.4-2.5,1.2-3.6,3.1-8C190,136,191.5,133.9,191.3,133.4z"/>
		<path class="st15" d="M172.7,126"/>
		<path class="st15" d="M171.2,119.7c-0.2,0.4,0.6,1.5,1.2,3.1c1.3,3.1,0.9,4.9,1.6,11.5c0.3,2.8,0.9,6.9,2.2,11.5
			c0.5,1.8,1.4,4.7,2,4.5c0.7-0.3,0.7-4.9,0.6-6.4c0-3.6-0.5-6.4-0.6-7.2c-0.7-4.4-1.3-3.7-2.4-9c-0.7-3.4-0.9-4.6-1.8-6
			C173,120,171.4,119.2,171.2,119.7z"/>
	</g>
	<g>
		<path class="st15" d="M116.7,94.8c0,0-1.5-1-3.2,0c-1.2,0.7-1.6,1.7-3.1,4.4c-1.6,3-2.2,3.4-3.1,4.7c-0.7,1.1-1.1,1.9-1.2,2.2
			c-0.4,0.8-0.5,1.4-0.8,2.2c-0.8,2.6-1,2.7-1.4,4c-0.8,2.6-1.3,6-0.9,6.3c0.3,0.3,1-1.9,2.4-4.3c2.6-4.4,3.9-3.4,5.2-6.1
			c2.4-5-0.4-11.8,1.6-14.1C113.9,92.1,116.7,94.8,116.7,94.8z"/>
		<path class="st15" d="M107.7,134.3c-1.4-1.8-3.4-4.6-5.3-8.6c-1.5-3-2.3-5.5-2.7-6.5c-1.5-4.2-4.4-9.8-9.9-16.4"/>
		<path class="st15" d="M102.3,125.7c-0.4-3.1-0.1-5,0.3-6.1c0.3-0.8,1-2.5,1.2-5.2c0-0.1,0,0,0-0.2c0.2-2.6,0.6-4.4,0.8-5.6
			c0.4-2.4,0.7-3.8,0.9-4.8c1-5.8,0.4-7.1,1.2-10.1c0.4-1.3,1.1-3.1,2.6-4.9"/>
		<path class="st15" d="M106.2,112.8c0.2-0.4,1.7-3.5,1.7-3.5l0,0c0.9-2.4,1.5-4.9,1.5-4.9c0.4-1.4,0.7-3.1,1.1-5.2"/>
		<path class="st15" d="M89.7,102.7c-0.3,0.5,1.2,2.6,3.1,7s1.7,5.5,3.1,8c1.5,2.6,4,5.6,4.8,4.6c0.9-1.2-0.4-8.5-3.4-12.8
			c-0.7-1-2.1-2.3-4.8-4.8C90.2,102.6,89.8,102.4,89.7,102.7z"/>
		<path class="st15" d="M108.2,95.3"/>
		<path class="st15" d="M109.7,89c-0.2-0.5-1.8,0.3-2.9,2c-0.9,1.4-1.1,2.6-1.8,6c-1.1,5.3-1.6,4.6-2.4,9c-0.1,0.8-0.6,3.5-0.6,7.2
			c0,1.5-0.1,6.1,0.6,6.4c0.6,0.2,1.5-2.7,2-4.5c1.4-4.5,1.9-8.7,2.2-11.5c0.7-6.5,0.3-8.4,1.6-11.5C109.1,90.5,109.9,89.4,109.7,89
			z"/>
	</g>
	<circle class="st16" cx="188.5" cy="45.3" r="2.7"/>
	<circle class="st16" cx="230.2" cy="91.7" r="2.7"/>
	<circle class="st1" cx="220.2" cy="127.7" r="1.8"/>
	<circle class="st1" cx="216.5" cy="121.5" r="1.8"/>
	<circle class="st16" cx="237.7" cy="108.3" r="1.1"/>
	<circle class="st16" cx="234.8" cy="100.7" r="1.8"/>
	<circle class="st16" cx="236.6" cy="125.9" r="1.1"/>
	<circle class="st1" cx="221.2" cy="147.5" r="1.1"/>
	<circle class="st16" cx="236.6" cy="147.5" r="1.8"/>
	<circle class="st16" cx="236.6" cy="155.1" r="1.8"/>
	<circle class="st16" cx="232.9" cy="159.2" r="1.1"/>
	<circle class="st1" cx="199.1" cy="190.4" r="2.7"/>
	<circle class="st1" cx="207.7" cy="184" r="1.8"/>
	<circle class="st16" cx="211.4" cy="201.2" r="1.8"/>
	<circle class="st16" cx="206.6" cy="206.3" r="1.8"/>
	<circle class="st16" cx="201.9" cy="211.1" r="1.8"/>
	<circle class="st16" cx="162.4" cy="230.1" r="1.8"/>
	<circle class="st16" cx="169.3" cy="227.2" r="1.8"/>
	<circle class="st16" cx="208.5" cy="212.2" r="1.8"/>
	<circle class="st16" cx="173.7" cy="228.3" r="1.1"/>
	<circle class="st16" cx="172.6" cy="223.5" r="1.1"/>
	<circle class="st1" cx="193.1" cy="195" r="1.1"/>
	<circle class="st16" cx="196.4" cy="214" r="1.1"/>
	<circle class="st1" cx="182.5" cy="73.6" r="1.8"/>
	<circle class="st1" cx="188.7" cy="75.4" r="1.1"/>
	<circle class="st1" cx="186.5" cy="79.1" r="1.1"/>
	<circle class="st1" cx="141.2" cy="60.1" r="1.1"/>
	<circle class="st16" cx="125.8" cy="41.4" r="1.8"/>
	<circle class="st16" cx="120.3" cy="38.5" r="1.1"/>
	<circle class="st16" cx="119.2" cy="42.5" r="1.1"/>
	<circle class="st16" cx="107.9" cy="48" r="1.1"/>
	<circle class="st16" cx="79.2" cy="61" r="2.7"/>
	<circle class="st16" cx="86" cy="55.7" r="1.8"/>
	<circle class="st1" cx="80.1" cy="86" r="1.8"/>
	<circle class="st16" cx="71" cy="59" r="1.8"/>
	<circle class="st16" cx="58.9" cy="87.9" r="1.1"/>
	<circle class="st1" cx="78.3" cy="91.5" r="1.8"/>
	<circle class="st1" cx="84.1" cy="89.7" r="1.1"/>
	<circle class="st1" cx="65.3" cy="123.9" r="2.7"/>
	<circle class="st1" cx="62.6" cy="131.4" r="1.8"/>
	<circle class="st1" cx="69.1" cy="129.9" r="1.1"/>
	<circle class="st16" cx="40.6" cy="137.6" r="1.8"/>
	<circle class="st16" cx="42.5" cy="161.3" r="1.1"/>
	<circle class="st1" cx="65.1" cy="162.4" r="1.8"/>
	<circle class="st16" cx="46.7" cy="169.6" r="2.7"/>
	<circle class="st1" cx="78.3" cy="189.5" r="1.8"/>
	<circle class="st1" cx="83" cy="196.1" r="1.8"/>
	<circle class="st16" cx="67" cy="201.2" r="1.8"/>
	<circle class="st16" cx="63.3" cy="196.1" r="1.1"/>
	<circle class="st16" cx="72.4" cy="206.3" r="1.1"/>
	<circle class="st1" cx="126.7" cy="216.7" r="2.7"/>
	<circle class="st1" cx="134.6" cy="219.5" r="1.8"/>
	<circle class="st16" cx="129.5" cy="230.1" r="1.8"/>
</g>
</svg>
