<?xml version="1.0" encoding="utf-8"?>
<!-- Generator: Adobe Illustrator 24.1.0, SVG Export Plug-In . SVG Version: 6.00 Build 0)  -->
<svg version="1.1" id="Calque_1" xmlns="http://www.w3.org/2000/svg" xmlns:xlink="http://www.w3.org/1999/xlink" x="0px" y="0px"
	 viewBox="0 0 1920 1155" style="enable-background:new 0 0 1920 1155;" xml:space="preserve">
<style type="text/css">
	.st0{fill:#C3BED0;}
	.st1{fill:none;stroke:#707070;}
	.st2{fill:#D1D3E4;}
	.st3{fill:#FEF8F2;}
	.st4{fill:#F2E6E9;}
	.st5{fill:#464E9F;}
	.st6{fill:#FFFFFF;stroke:#9988BD;stroke-width:0.75;stroke-miterlimit:10;}
	.st7{fill:#FFFFFF;stroke:#000000;stroke-width:0.75;stroke-miterlimit:10;}
	.st8{fill:#9988BD;}
	.st9{font-family:'BodoniSvtyTwoITCTT-Book';}
	.st10{font-size:331.6053px;}
	.st11{font-family:'BodoniSvtyTwoITCTT-BookIta';}
	.st12{font-size:64.6631px;}
	.st13{letter-spacing:13;}
	.st14{letter-spacing:4;}
	.st15{fill:none;stroke:#9988BD;stroke-width:0.75;stroke-miterlimit:10;}
	.st16{fill:#FFFFFF;}
	.st17{fill:#FDFDFD;}
	.st18{fill:#CACBE0;}
	.st19{fill:#FEFEFE;}
	.st20{fill:#FCFCFD;}
	.st21{fill:#CBCCE0;}
	.st22{fill:#C6C7DD;}
	.st23{fill:#C5C7DD;}
	.st24{fill:#E4E4EF;}
	.st25{fill:#DADBE9;}
	.st26{fill:#E1E2ED;}
	.st27{fill:#F2F2F7;}
	.st28{fill:#F3F3F8;}
	.st29{fill:#F6F7F9;}
	.st30{fill:#E4E5EF;}
	.st31{fill:#FDFDFE;}
	.st32{fill:#CCCDE1;}
	.st33{fill:#F9F9FB;}
	.st34{fill:#F1F1F6;}
	.st35{fill:#EEEFF5;}
	.st36{fill:#E6E7F1;}
	.st37{fill:#F4F4F8;}
</style>
<g id="Groupe_1" transform="translate(618 226)">
	<g id="Rectangle_1" transform="translate(-618 63)">
		<rect x="-290" y="159.7" class="st0" width="224" height="81.4"/>
		<rect x="-289.7" y="160" class="st1" width="223.3" height="80.8"/>
	</g>
	<g id="Rectangle_2" transform="translate(-618 352)">
		<rect x="-290" y="24.4" class="st2" width="224" height="81.4"/>
		<rect x="-289.7" y="24.7" class="st1" width="223.3" height="80.8"/>
	</g>
	<g id="Rectangle_3" transform="translate(-618 877)">
		<rect x="-290" y="-221.4" class="st3" width="224" height="81.4"/>
		<rect x="-289.7" y="-221.1" class="st1" width="223.3" height="80.8"/>
	</g>
	<g id="Rectangle_4" transform="translate(-618 624)">
		<rect x="-290" y="-102.9" class="st4" width="224" height="81.4"/>
		<rect x="-289.7" y="-102.7" class="st1" width="223.3" height="80.8"/>
	</g>
	<g id="Rectangle_5" transform="translate(-618 -226)">
		<rect x="-290" y="295" class="st5" width="224" height="81.4"/>
		<rect x="-289.7" y="295.3" class="st1" width="223.3" height="80.8"/>
	</g>
</g>
<g>
	<g>
		<path class="st6" d="M1069.8,232.6C843,232.6,659.4,416.3,659.4,643s183.7,410.4,410.4,410.4s410.4-183.7,410.4-410.4
			S1296.5,232.6,1069.8,232.6z"/>
		<path class="st6" d="M1041.6,267.1C824,267.1,648,443.5,648,660.7s176.4,393.6,393.6,393.6s393.6-176.4,393.6-393.6
			S1259.3,267.1,1041.6,267.1z"/>
		<path class="st6" d="M1063.4,288.9c-212.2,0-383.6,171.9-383.6,383.6s171.4,384.1,383.6,384.1S1447,884.7,1447,673
			S1275.2,288.9,1063.4,288.9z"/>
		<path class="st6" d="M1084.7,277.1c-212.2,0-383.6,171.9-383.6,383.6s171.9,383.6,383.6,383.6s383.6-171.9,383.6-383.6
			S1296.9,277.1,1084.7,277.1z"/>
		<path class="st6" d="M1051.6,277.1C839.8,277.1,668,448.9,668,661.2s171.9,383.6,383.6,383.6s383.6-171.9,383.6-383.6
			S1263.8,277.1,1051.6,277.1z"/>
		<path class="st7" d="M1063.4,277.1c-212.2,0-383.6,171.9-383.6,383.6s171.9,383.6,383.6,383.6S1447,872.5,1447,660.7
			S1275.2,277.1,1063.4,277.1z"/>
		<path class="st6" d="M1063.4,277.1c-212.2,0-383.6,171.9-383.6,383.6s171.9,383.6,383.6,383.6S1447,872.5,1447,660.7
			S1275.2,277.1,1063.4,277.1z"/>
		<text transform="matrix(1 0 0 1 903.4374 643.4949)" class="st8 st9 st10">S</text>
		<text transform="matrix(1 0 0 1 1026.161 846.9266)" class="st8 st9 st10">E</text>
		<text transform="matrix(1 0 0 1 1063.0956 534.7195)" class="st8 st11 st12 st13">souffle</text>
		<text transform="matrix(1 0 0 1 885.9579 924.4608)" class="st8 st11 st12 st14">dՎquilibre</text>
		<g>
			<path class="st15" d="M1167.7,596.3c0,0,12.7-12.2,20-4.1c9.1,10.4-3.2,41.3,7.3,63.9c5.9,12.2,11.8,8.2,23.6,27.7
				c6.8,10.9,10,20.9,10.9,19.5c1.8-1.4-0.5-16.8-4.1-28.6c-1.8-5.9-2.7-6.3-6.3-18.1c-1.4-3.6-1.8-6.3-3.6-10
				c-0.5-0.9-2.3-5-5.4-10c-4.1-5.9-6.8-7.3-14.1-21.3c-6.3-12.2-8.6-16.8-14.1-20C1174.5,591.8,1167.7,596.3,1167.7,596.3z"/>
			<path class="st15" d="M1290.6,632.1c-25.4,29.5-38.1,55.3-44.9,74.4c-1.8,5-5.4,15.9-12.2,29.5c-9.1,18.1-17.7,31.3-24,39"/>
			<path class="st15" d="M1201.3,569.1c6.8,8.2,10,16.3,11.8,22.2c4.1,13.6,1.4,19.5,5.4,45.8c0.9,4.5,1.8,10.9,4.1,21.8
				c0.9,5.4,2.3,13.6,3.6,25.4c0,0.5,0,0.5,0,0.9c1.4,12.2,4.1,20,5.4,23.6c1.8,5.4,3.2,13.6,1.4,27.7"/>
			<path class="st15" d="M1196.3,616.3c1.4,9.1,3.2,17.2,5,23.6c0,0,2.7,10.9,6.8,22.2l0,0c0,0,6.8,14.1,7.7,15.9"/>
			<path class="st15" d="M1290.6,632.1c-0.5-0.9-2.3,0-12.7,9.1c-12.2,11.3-18.6,16.8-21.8,21.8c-13.6,19-19.5,52.6-15.4,58
				c3.6,4.5,15-9.1,21.8-20.9c6.3-11.3,5.4-16.3,14.1-36.3C1284.7,643.9,1291.5,634.4,1290.6,632.1z"/>
			<path class="st15" d="M1206.2,598.6"/>
			<path class="st15" d="M1199.4,570c-0.9,1.8,2.7,6.8,5.4,14.1c5.9,14.1,4.1,22.2,7.3,52.1c1.4,12.7,4.1,31.3,10,52.1
				c2.3,8.2,6.3,21.3,9.1,20.4c3.2-1.4,3.2-22.2,2.7-29c0-16.3-2.3-29-2.7-32.6c-3.2-20-5.9-16.8-10.9-40.8
				c-3.2-15.4-4.1-20.9-8.2-27.2C1207.6,571.4,1200.4,567.8,1199.4,570z"/>
		</g>
		<g>
			<path class="st15" d="M952.3,457.1c0,0-6.8-4.5-14.5,0c-5.4,3.2-7.3,7.7-14.1,20c-7.3,13.6-10,15.4-14.1,21.3
				c-3.2,5-5,8.6-5.4,10c-1.8,3.6-2.3,6.3-3.6,10c-3.6,11.8-4.5,12.2-6.3,18.1c-3.6,11.8-5.9,27.2-4.1,28.6
				c1.4,1.4,4.5-8.6,10.9-19.5c11.8-20,17.7-15.4,23.6-27.7c10.9-22.7-1.8-53.5,7.3-63.9C939.6,444.9,952.3,457.1,952.3,457.1z"/>
			<path class="st15" d="M911.5,636.2c-6.3-8.2-15.4-20.9-24-39c-6.8-13.6-10.4-24.9-12.2-29.5c-6.8-19-20-44.4-44.9-74.4"/>
			<path class="st15" d="M887,597.2c-1.8-14.1-0.5-22.7,1.4-27.7c1.4-3.6,4.5-11.3,5.4-23.6c0-0.5,0,0,0-0.9
				c0.9-11.8,2.7-20,3.6-25.4c1.8-10.9,3.2-17.2,4.1-21.8c4.5-26.3,1.8-32.2,5.4-45.8c1.8-5.9,5-14.1,11.8-22.2"/>
			<path class="st15" d="M904.7,538.7c0.9-1.8,7.7-15.9,7.7-15.9l0,0c4.1-10.9,6.8-22.2,6.8-22.2c1.8-6.3,3.2-14.1,5-23.6"/>
			<path class="st15" d="M829.9,492.9c-1.4,2.3,5.4,11.8,14.1,31.7s7.7,24.9,14.1,36.3c6.8,11.8,18.1,25.4,21.8,20.9
				c4.1-5.4-1.8-38.5-15.4-58c-3.2-4.5-9.5-10.4-21.8-21.8C832.1,492.5,830.3,491.6,829.9,492.9z"/>
			<path class="st15" d="M913.8,459.4"/>
			<path class="st15" d="M920.6,430.8c-0.9-2.3-8.2,1.4-13.2,9.1c-4.1,6.3-5,11.8-8.2,27.2c-5,24-7.3,20.9-10.9,40.8
				c-0.5,3.6-2.7,15.9-2.7,32.6c0,6.8-0.5,27.7,2.7,29c2.7,0.9,6.8-12.2,9.1-20.4c6.3-20.4,8.6-39.5,10-52.1
				c3.2-29.5,1.4-38.1,7.3-52.1C917.8,437.6,921.5,432.6,920.6,430.8z"/>
		</g>
		<circle class="st16" cx="1277.9" cy="232.6" r="12.2"/>
		<circle class="st16" cx="1467" cy="443.1" r="12.2"/>
		<circle class="st8" cx="1421.6" cy="606.3" r="8.2"/>
		<circle class="st8" cx="1404.9" cy="578.2" r="8.2"/>
		<circle class="st16" cx="1501" cy="518.3" r="5"/>
		<circle class="st16" cx="1487.9" cy="483.9" r="8.2"/>
		<circle class="st16" cx="1496" cy="598.1" r="5"/>
		<circle class="st8" cx="1426.2" cy="696.1" r="5"/>
		<circle class="st16" cx="1496" cy="696.1" r="8.2"/>
		<circle class="st16" cx="1496" cy="730.6" r="8.2"/>
		<circle class="st16" cx="1479.2" cy="749.1" r="5"/>
		<circle class="st8" cx="1326" cy="890.6" r="12.2"/>
		<circle class="st8" cx="1365" cy="861.6" r="8.2"/>
		<circle class="st16" cx="1381.7" cy="939.6" r="8.2"/>
		<circle class="st16" cx="1360" cy="962.7" r="8.2"/>
		<circle class="st16" cx="1338.7" cy="984.5" r="8.2"/>
		<circle class="st16" cx="1159.5" cy="1070.7" r="8.2"/>
		<circle class="st16" cx="1190.8" cy="1057.5" r="8.2"/>
		<circle class="st16" cx="1368.6" cy="989.5" r="8.2"/>
		<circle class="st16" cx="1210.8" cy="1062.5" r="5"/>
		<circle class="st16" cx="1205.8" cy="1040.7" r="5"/>
		<circle class="st8" cx="1298.8" cy="911.5" r="5"/>
		<circle class="st16" cx="1313.7" cy="997.6" r="5"/>
		<circle class="st8" cx="1250.7" cy="361" r="8.2"/>
		<circle class="st8" cx="1278.8" cy="369.1" r="5"/>
		<circle class="st8" cx="1268.8" cy="385.9" r="5"/>
		<circle class="st8" cx="1063.4" cy="299.8" r="5"/>
		<circle class="st16" cx="993.6" cy="215" r="8.2"/>
		<circle class="st16" cx="968.6" cy="201.8" r="5"/>
		<circle class="st16" cx="963.6" cy="219.9" r="5"/>
		<circle class="st16" cx="912.4" cy="244.9" r="5"/>
		<circle class="st16" cx="782.3" cy="303.8" r="12.2"/>
		<circle class="st16" cx="813.1" cy="279.8" r="8.2"/>
		<circle class="st8" cx="786.3" cy="417.2" r="8.2"/>
		<circle class="st16" cx="745.1" cy="294.8" r="8.2"/>
		<circle class="st16" cx="690.2" cy="425.8" r="5"/>
		<circle class="st8" cx="778.2" cy="442.1" r="8.2"/>
		<circle class="st8" cx="804.5" cy="434" r="5"/>
		<circle class="st8" cx="719.2" cy="589.1" r="12.2"/>
		<circle class="st8" cx="707" cy="623.1" r="8.2"/>
		<circle class="st8" cx="736.5" cy="616.3" r="5"/>
		<circle class="st16" cx="607.2" cy="651.2" r="8.2"/>
		<circle class="st16" cx="615.8" cy="758.7" r="5"/>
		<circle class="st8" cx="718.3" cy="763.7" r="8.2"/>
		<circle class="st16" cx="634.9" cy="796.3" r="12.2"/>
		<circle class="st8" cx="778.2" cy="886.5" r="8.2"/>
		<circle class="st8" cx="799.5" cy="916.5" r="8.2"/>
		<circle class="st16" cx="726.9" cy="939.6" r="8.2"/>
		
			<ellipse transform="matrix(0.9951 -9.853782e-02 9.853782e-02 0.9951 -86.8512 74.437)" class="st16" cx="710.2" cy="916.5" rx="5" ry="5"/>
		<circle class="st16" cx="751.4" cy="962.7" r="5"/>
		<circle class="st8" cx="997.7" cy="1009.9" r="12.2"/>
		<circle class="st8" cx="1033.5" cy="1022.6" r="8.2"/>
		<circle class="st16" cx="1010.3" cy="1070.7" r="8.2"/>
	</g>
	<circle class="st16" cx="1058.4" cy="665.7" r="315.6"/>
	<g>
		<path class="st17" d="M962.9,749.8c-6.8,2.9-14,3.4-20.5,0.4c-10.7-4.9-22.3-6.5-33-11.7c-8.7-4.2-18.1-7.9-27-12
			c-9.6-4.4-18.7-10-27.9-15.3c-2-1.2-4.1-2.9-3.7-5.8c0.4-2.8,2.5-4.3,4.8-4.9c14.6-4.1,29.2-9.3,44.5-7.8
			c13.4,1.4,26.8,0.5,40.1,1c4.1,0.2,8-0.4,12.2-1.8c-2.6-3.7-5.7-6-9.8-7.7c-22.7-9.9-40.3-24.7-48.7-49.2
			c-3.2-9.2-6.9-18-7.6-27.9c-0.2-3-0.8-6,0-9c1-3.6,1-7.1,0.1-10.8c-0.6-2.3-0.7-4.9-0.4-7.2c0.8-5.9,4.6-8.5,10.3-7
			c12.7,3.2,23.9,9.6,34.3,17.4c1.3,1,2.4,2.7,4.1,1.7c1.9-1.2,0.5-2.9,0-4.3c-4.4-12.4-6.1-25.4-8.6-38.3
			c-1.4-7.4,2.1-14.7,0.5-22.3c-0.5-2.3,4.2-5.5,8.5-4.4c18.2,4.8,32.6,16.2,47.3,27.1c2.9,2.2,5,5.7,8.1,7.9c3,2.1,4.5,1.7,4.9-1.7
			c2.6-20.7,14.3-37,26-53.2c5.7-7.9,12.3-7,17,1.5c2.2,3.9,5.7,6.8,7.6,10.9c1.1,2.5,3.7,1.9,5.9,0.9c5.4-2.3,10.5-5.2,16.1-7.2
			c4.9-1.7,5.9-7.4,7.5-12c0.7-2,0.2-4.6,2.9-5.6c1.3,0.6,2.1,1.5,2.3,2.9c-0.6,10.8-3.7,19.5-15.6,22.9c-6,1.7-11.1,5.7-16.9,7.9
			c-3.3,0.6-4.7-1.8-6.1-4.1c-2.9-4.7-6-9.2-9.4-13.5c-1.6-2-3.7-3.2-5.6-0.8c-12.7,16.9-26,33.5-26.4,56.2c0,3.1,0,6.2,0,9.3
			c-1,7.2,2.5,13.9,2.2,20.3c1.7-8.2,4.8-16.7,9.3-24.6c4.5-8,6.9-8.6,14.9-3.6c5.2,3.3,10.1,6.8,14.7,10.8
			c5.4,4.7,5.8,4.6,10.5-0.9c1-1.2,2-2.6,3.6-3.2c0.6-0.2,1.2-0.2,1.8,0c2.5,0.7,2.7,3.4,4.5,5.2c2.7-0.9,3.5-3.6,5.2-5.4
			c3.4-3.7,5.1-3.9,8.3,0.1c6.4,7.9,11.6,16.7,16,25.8c6.5,13.6,12,27.5,12.6,42.9c0,4.8-0.1,9.7,0.8,14.5c0,1.7-0.7,3.2-0.9,4.8
			c-3.5,11.4-5.9,23.1-8.8,34.7c-1.4,3.3-0.4,6.9-1.3,10.3c-0.2,1.2-0.7,2.4-0.9,3.6c-1.9,6.1-6,10.9-9.4,16.1
			c-0.9,1.4-2.1,3.5-4.1,2.6c-1.8-0.9-1.4-3.1-1.5-4.9c-0.1-4.2,0.2-8.4-0.5-12.6c-2.3-12.8-10.9-19.2-22.4-22.8
			c-2.5-0.8-5.1-1.4-7.2-3c-1.6-1.1-3.5-1.7-4.9-3c-4.6-10.5-5.6-21.3-3.4-32.4c2.3-5.2,7-8,11.7-10.1c12.8-5.5,13.9-17.2,14.8-28.3
			c0.6-7.3-1.6-14.8-5.2-22.5c-5.6,8.7-9.7,17.6-12.6,26.9c-2.5,8.1-4.8,16.3-5.6,24.8c-0.2,2.6-1,5.2-2.2,7.5c-2.4,3-3.4,8-9.1,6.6
			c-2.1-6.6-0.1-13.2,0.6-19.7c1.3-12.2,5.1-23.8,10.8-34.7c2-3.8,1.5-6.3-2.1-8.7c-5.2-3.5-9.9-7.7-15-11.5c-3-2.3-4.9-1.8-6.6,1.6
			c-4.5,8.8-6.8,18.3-8.4,27.8c-3.8,21.8-2.7,43.2,6.8,63.7c7.6,16.4,18.5,30.3,31.7,43.3c0.1-2.8-1.6-4.3-1.6-6.3
			c0.7-3.6-0.5-6.2-3.8-7.9c-3.2-5.6-5.8-11.4-7-17.8c0.3-2.5,1.8-3.3,4.1-3c1.3,0.2,2.1,1.2,3.3,1.8c4.7,10.5,8.2,21.6,14.5,31.4
			c3.7,5.7,8.7,10.1,12.8,15.4c0.7,1,1.9,1.4,3.2,1.7c5.7,1.3,6.9,3,4.8,8.2c-2.1,5.5-2.5,11-2.1,16.7c0.2,2.4,1,4.4,3.7,4.8
			c1.6,0.2,3.4,0.3,4.6-1c1.5-1.7,0.1-2.9-0.8-4.3c-2.1-3.4-4.1-6.8-0.2-10.3c0.6-0.3,1.3-0.5,1.9-0.6c12.9,1.4,25.7,3.4,38.6,4.9
			c15.4,1.8,30.7,1.2,46,0.4c2.4-0.1,4.8-1,6.9,1c-3.1,4.8-8,5.3-12.9,4.6c-10.1-1.5-20.1-1.2-30.2-0.1c-6.8,0.7-13.3-2.8-20.2-2.7
			c-6.6,0.1-13.1,1-19.7-0.5c-2.8-0.6-2.6,1.8-2.5,4.1c0.1,3,1.9,7.5-2.1,8.6c-5.2,1.4-11,3.8-16.3-0.5c-2-1.6-2.2-3.7-2.2-6
			c0.1-5.9-0.1-11.8,0.1-17.6c0.1-2.7-0.5-5-3.5-5.5c-3.4-0.5-3.5,2.9-3.5,4.5c0,7.4-3.9,9.1-10.5,10.3c-9.1,1.6-18.1,4.2-27.4,1.8
			c-0.9-0.2-1.8-0.8-2.7-1.2c1-1.7,2.7-2.5,4.5-2.6c8.7-0.7,17.1-2.9,25.7-3.6c1.9-0.1,3.8,0.7,4.6,0.4c-0.3,0.2-1.7-0.4-3-0.3
			c-25-5.9-47-17.8-66-34.9c-3.2-2.8-6.7-4.6-10.7-5.6c-23.6-5.7-47.5-7.8-71.9-5.8c-14.2,1.2-28.3,2.6-42.1,6
			c-2.1,0.5-4.5,0.6-6.8,2.9c5.7,4.1,11.5,7.5,17.5,10.7c25,13.3,50.9,24.4,79,29.6C958.5,747.1,961.3,747.2,962.9,749.8z"/>
		<path class="st17" d="M1080.1,494c-0.4-0.8-0.8-1.7-1.3-2.5c1.2-0.5,1.9-1.4,2.4-2.6c1.2-3.3,2.2-1.7,3.6,0
			c3.7,4.6,3.5,10.6,5.9,15.7c2.8,5.9,7.6,7,12.3,2.4c1.7-1.7,3.4-3.5,4.9-5.4c4.1-5,8.4-5.4,12.6-0.6
			c10.3,11.8,18.1,25.3,24.4,39.4c2.3,5.2,3.4,11.6,3.4,17.7c0,1.2,0,2.6,1.3,3.2c1.4,0.7,2.1-0.7,2.9-1.5
			c9.2-9.7,19.1-18.8,30.8-25.3c7.9-4.3,15.9-8.8,24.8-11c6-1.4,7.9,1.8,8.9,7.7c2.1,13-1.7,25.2-2.7,37.8
			c-0.6,6.6-3.1,12.5-5.4,18.5c-0.7,1.8-1.5,3.8,0.1,5.1c2.2,1.8,2.9-1.1,4.3-2c11.6-7.5,23.1-15.3,37-18.2c4.5-0.9,8.8,3.2,9.1,9
			c0.6,13.4-0.5,26.6-4.2,39.6c-3.3,11.3-7.1,22.3-13.7,32.2c-9.1,13.7-22.3,22.9-36.4,30.2c-4.8,2.5-9.1,5-14.1,9.1
			c17.3,2,33.3,2.1,49.4,0.5c12-1.2,23.7,1.9,35.3,4.6c3.7,0.9,7.3,2.3,11.2,2.5c2.9,0.2,5.8,0.8,6.6,4.2c0.8,3.3-1,5.7-3.5,7.1
			c-7.9,4.5-15.7,9.1-23.9,12.7c-3.7,1.6-7.2,3.7-10.5,5.7c-10,6.1-21,9.6-31.8,13.3s-21.7,7.5-33.2,9.2c-3.6,0.5-7.3,0.1-10.4-2.3
			c1.3-3.1,4.3-2.7,6.8-3.2c34.4-6.4,65.7-20.7,95.5-38.5c0.7-0.4,1.4-0.9,1.7-1.8c-0.6-1.8-2.5-1.7-4-2
			c-37.2-9.1-74.6-10.3-112.2-2.1c-6.5,1.4-11.9,4.2-17,8.8c-17.3,15.8-38,25.4-60.3,31.8c-1.7,0.5-3.6,1-5.4,0.1
			c-2.1-2.1-1.1-4.2-0.1-6.4c0.9-1.4,2-2.5,3.4-3.4c14.2-5.4,28.2-11.5,41.2-19.6c20.1-12.5,37.1-28.2,49.4-48.6
			c9.7-16,13.4-33.8,14.5-52.3c0.2-2.9-1.1-3.6-3.6-3.1c-14.1,2.5-27.6,6.8-39.9,14.3c-2.5,1.5-3.8,3.5-3.8,6.4
			c-0.6,29.2-13.3,53.4-30.6,75.9c-5.1,6.6-11.1,12.4-17.1,18.2c-1.7,1.7-3.7,3.2-6.4,3.1c-1.4-0.4-2.1-1.4-2.3-2.8
			c-0.3-2,0.2-3.8,1.5-5.4c0.8-0.9,1.8-1.7,2.5-2.7c11.3-11.2,21.1-23.4,28.7-37.4c7.3-13.6,11.1-28.1,11.9-43.5
			c0.7-14.1-0.8-27.9-4.8-41.4c-1-3.3-1.9-6.6-3.3-9.8c-4.1-9.8-4.5-9.9-12.8-3.2c-1.9,1.5-3.8,3.1-5.9,4.3c-1.7,1-3.5,2.5-5.3,0.1
			c-0.8-3.6,1.2-6.6,1.9-9.9c0.7-1.7,1.9-3.1,3.1-4.5c3.4-3.5,7.7-6,11.9-8.3c5.1-2.8,7.4-2.2,10.6,2.9c5.1,8.1,8.8,16.8,10.4,26.1
			c3.2-10.9,3.2-22.2,2.5-33.5c-0.4-6.6-2.5-12.7-5.3-18.6c-5-10.7-11.5-20.5-18.4-30.1c-4.5-6.2-5-6.1-9.9,0.2
			c-1.8,2.4-3.3,5.2-6.2,6.6c-12.9-0.1-18.2-4.4-20-16.4C1082.9,497.6,1082.8,495.1,1080.1,494z"/>
		<path class="st18" d="M1056.8,744.8c-10.6,1.7-21.1,3.3-31.7,4.9c-10.5,0.7-21,2.3-31.4,1.8c-10.3-0.5-20.6,0.2-30.8-1.8
			c-30-5.1-58.1-15.9-84.8-30.3c-7.6-4.1-14.9-8.7-23.2-13.6c8.4-4.5,16.6-5.8,24.6-7.1c18.2-2.8,36.6-4.6,55-3.8
			c15.5,0.7,30.9,2.7,46.2,6.3c7.6,1.7,11.8,7.4,17.3,11.7c18,13.9,37.9,24.1,60,29.5C1058.8,743.9,1057.5,744.2,1056.8,744.8z"/>
		<path class="st18" d="M1084.9,742.5c26.1-6.8,49.8-17.8,69.5-36.8c5.7-5.5,14.2-5.6,21.6-6.9c16.1-2.8,32.5-4.7,48.9-3.8
			c20.2,1,40.3,3.1,59.8,8.6c1.3,0.4,2.8,0.6,3.6,2.6c-10.5,6.7-21.4,12.8-32.5,18.3c-19.5,9.6-39.6,17.5-60.9,22
			c-4.9,1-9.9,2.1-14.8,3.1c-0.4,0-0.8,0-1.2,0c-9.3,2.2-18.9,1.4-28.4,1.9c-11.2,0.5-22.5-1.4-33.7-2.6
			c-10.2-1.1-20.4-2.8-30.6-4.3c-0.6-0.5-1.3-0.8-1.5-1.7C1084.7,743,1084.8,742.7,1084.9,742.5z"/>
		<path class="st18" d="M1059.2,735.2c-19.2-5.4-37-14.2-53.3-25.6c-18.7-13.2-34.9-28.9-45.4-49.8c-7.8-15.7-10.5-32.6-11.9-49.8
			c-0.2-2.9,1.5-2.9,3.5-2.5c15.1,2.5,29.5,7.2,42.9,14.6c2.7,1.5,4.7,3.2,4.6,7c-0.7,26.8,9.9,49.6,25.8,70.3
			c9.1,11.9,19.2,23,31.6,31.8c1.1,0.8,2.4,1.5,3.6,2.2C1060.2,734,1059.7,734.6,1059.2,735.2z"/>
		<path class="st18" d="M973.8,691.6c-48.4-14.4-73.1-35.9-82.8-80.9c-2.1-9.9-2.9-19.9-1.4-30c0.6-3.8,2.2-4.5,5.2-3.6
			c16.5,5.2,31.1,13.8,43,26.4c1.5,1.6,1.9,3.4,1.9,5.5c1,31.1,12.9,57.6,33.1,80.8C973.1,690.1,973.2,690.5,973.8,691.6z"/>
		<path class="st18" d="M996.6,614.5c-15.8-8.6-31.7-14.7-49.2-15.9c-3-0.2-4-2.7-4.9-4.8c-6-14.4-10.1-29.3-11.4-45
			c-0.6-6.4-1-12.9-1-19.3c0-3.4,1.1-4.3,4.5-2.9c20.2,8.1,38.1,19.7,53.2,35.3c2.5,2.6,3.3,5.4,2.7,9.3c-1.8,12,0.9,23.7,4.4,35.1
			C995.6,608.7,997.2,611,996.6,614.5z"/>
		<path class="st18" d="M1038.5,682.7c2.4,5.7,4.9,11.4,7.3,17.1c2.1,2,3.1,4.6,3.7,7.4c1.3,3.2,2.5,6.3,4,10
			c-2.7,0.2-4.1-1.3-5.4-2.6c-16.3-16.2-30-34.2-36.2-56.7c-7.7-27.8-4.3-54.8,7.6-80.9c1.6-3.6,3-4.6,6.6-1.6
			c6,5.1,12.5,9.6,18.8,14.3c2.4,1.7,3.3,3.3,1.6,6.5c-7.9,14.2-12.3,29.3-12.8,45.6c-0.1,3.4-0.6,6.8-1,10.2c0,0.9-0.2,1.7-0.6,2.5
			c-1.4,2.5-3.7,4.2-5.6,6.4c-5.2,5.9-4.3,10.3,2.9,13.6c1.7,0.8,3.4,1.3,4.9,2.2C1037.2,677.8,1038.2,680,1038.5,682.7z"/>
		<path class="st18" d="M999.6,562.1c-0.2-14.7,6.8-26.9,14.1-38.8c3.7-6,8.1-11.6,12.2-17.4c2.9-4.1,5.6-3.9,8.3,0.2
			c3.3,4.9,6.6,9.7,9.9,14.6c1.1,1.7,1.8,3.7,4.3,3.7c0.6,0.8,0.7,1.7,0.2,2.5c-4.5,1.7-5.1,5-3.9,9.2c2.3,8.4,5.2,16.4,9.5,24.1
			c1.9,3.5,5.1,7,2.9,11.7c-1.2,1.4-2.4,2.7-3.5,4.1c-5.3,6.6-5.3,6.7-11.8,0.7c-4.9-4.5-10.4-8.3-16.1-11.8
			c-6.4-4.1-7.3-3.7-11.2,2.9c-4.8,8.2-7.5,17.3-10.7,27.6c-2.7-8.1-4.5-15-4.1-22.4C1000.5,569.4,1000.5,565.8,999.6,562.1z"/>
		<path class="st19" d="M1102.2,646.5c-1.1,8-3.9,15.5-6.6,22.8c-3.3,8.7-3.3,17.8-4.5,26.7c-0.2,1.6,0,3.4-0.6,4.8
			c-1.2,2.4-1.5,6.5-4.4,6.6c-2.6,0.1-1.7-4.1-2.8-6c-2.4-4-5-7.9-7.8-11.6c-2.5-3.4-0.7-4.7,2.2-5.6c9.5-2.9,9.2-2.9,9.9-12.6
			c0.5-7.2,2.2-14.4,0-21.6c-1.7-5.6-6.3-7.9-11.6-6c-8.6,3.1-16.3,7.9-23.6,13.3c-2.3,1.7-5,2-7.2,0c-2.2-2-1.5-4.4,0-6.6
			c1.4-2.1,3.2-3.5,5.4-4.8c4.5-2.7,8.9-5.6,13.3-8.5c2.1-1.4,4.1-3,4.6-5.5c2.5-11.3,5.7-22.6,2.7-34.4c-1.1-4.1-1.7-8.3-2.6-12.4
			c-0.6-3,0.4-5.5,2.9-6.6c2.5-1.1,4.4,1.3,5.3,3.1c5.6,11,12.4,21.4,16.4,33.4c3,8.8,5.2,17.8,8.3,26.5
			C1101.9,643,1101.9,644.9,1102.2,646.5z"/>
		<path class="st18" d="M1105.7,575.5c0.1,3.5-1.9,6.5-2.6,9.8c-0.3,1.6-0.4,3.3-1.6,4.5c-3.3,2.2-2.7,5.2-1.6,8.3
			c1.3,4.1,0.8,8.3,2,12.4c1,4,3.2,7.5,3.9,11.5c0.6,3.5-0.2,7.2,1,10.6c0.4,1.7,0.5,3.3,0.5,5c-0.4,2.6,0.8,5.7-2.4,7.4
			c-2.5-1.6,0-4.5-1.7-6.3c-1-17.2-7.5-32.6-15.5-47.5c-3.7-6.9-7.9-13.6-12.7-20c-2.2-2.9-3.6-3.2-5.8,0c-2,2.9-3.8,6.2-6.7,8.4
			c-2.5-2.3-1.7-6.2-4.5-8c1-6.1-0.3-12.1-0.8-18.1c0.3-1,0.9-1.6,1.9-1.7c3.7,1.2,5.5,4.6,8.3,6.9c3.4,2.7,6.2,1.8,7-2.4
			c0.8-3.9-0.2-7.4-2.7-10.8c-4.5-6-1.3-12.1,1.4-17.7c2.3-4.8,6.8-6,11.9-4.6c4.7,1.3,7.1,4.5,7.4,9.3c0.1,1.6,0.1,3.2,0,4.8
			c-0.1,3.5-1.9,6.5-2.9,9.7c-0.8,2.2-1.7,4.4-2.1,6.7c-3.1,8.3-1.7,15.4,4.8,21.8c2.8,2.7,4.8,3.8,8,1.1
			C1101.8,575.6,1103.4,573.9,1105.7,575.5z"/>
		<path class="st18" d="M1086.2,736.4c-0.4,2-0.9,4.1-1.3,6.1l0,0c-0.9,0.8-0.8,1.6,0,2.5c-0.9,3.3-0.5,6.3,2.1,8.9
			c1.4,1.3,3.7,2.6,2.2,5c-2,3.3-5.7,2.3-8.7,2.7c-2.8,0.4-3.5-2.1-3.7-4c-0.7-6.2-1.3-12.5,1.3-18.6c2.5-5.8,2.4-5.8-3.4-6.8
			c-0.9-0.2-1.7-1-2.4-1.7c-13.6-13.8-23.4-29.8-27.7-48.9c1.6-0.9,3.3-1,4.8,0.1c2.8,3,7,3.3,10.5,4.2
			c15.3,4.3,21.9,19.2,20.2,35.1c-0.2,1.4,0,2.8,0,5.5c5.2-6.6,9.4-12.5,12.2-19.3c1.7-0.4,1.9,0.9,2.3,2c0.2,1.1,0.1,2.3-0.2,3.4
			c-1,2.1-1.1,4.6-2.2,6.7c-0.9,1.5-1.5,3-1.3,4.8c-1.4,1.6-0.7,3.7-1.4,5.4c-0.2,0.5-0.4,1-0.7,1.5
			C1087.8,732.7,1085.2,733.6,1086.2,736.4z"/>
		<path class="st18" d="M1041,646.2c1.7-22.5,8.2-43.5,21.2-63.8c3.7,12.5,8,23.1,4.9,35.9c-2.4,10.2-6.4,17.2-16.1,21.2
			C1047.5,641.1,1044.4,643.9,1041,646.2L1041,646.2z"/>
		<path class="st18" d="M1083.7,670.6c0,0.6,0,1.2,0,1.8c-0.2,9.7-4,12.1-12.9,7.6c-8.2-4.2-16.2-8.8-24.5-13.3
			c0.2-1.9,1.9-2.7,3.4-3.6c7.8-4.7,15.6-9.4,23.4-14c6.5-3.9,7.9-3.3,10.5,4.5C1083.7,659.2,1083.6,664.9,1083.7,670.6z"/>
		<path class="st20" d="M1093.4,713.2c0.1-1.2,0.1-2.4,0.2-3.6c1.3-1.7-0.3-3.3-0.1-5c0.5-3.6-1.2-7.5,1.1-10.9
			c1.9,2,1.4,3.9,0.6,5.1c3.8-10.8,6.5-22.9,8.1-35.1c1-2.9,1.6-5.9,1.1-9c-1.8-5.2-1-10.5-1.2-15.8c2,1.7,0.9,4,1.3,6
			c1.4,1.7,0.6,3.3,0.1,5c1.3-4,2.6-8,1.1-12.3c0-1.6,0-3.2-0.1-4.8c-1.5-3.6,0.4-7.5-1.2-11c-1.2-3.7-3.5-6.9-3.7-10.9
			c-0.4-3-1.8-6.1,0.9-8.8c2.8,1.3,3.3,4,4.2,6.4c10.7,30,9.1,59.8-2.1,89.2c-2.2,5.8-3.7,12.1-8.3,16.7
			C1094.1,714.8,1093.2,714.8,1093.4,713.2z"/>
		<path class="st18" d="M1048.3,526.9c0-0.8,0.1-1.7,0.1-2.5c4.6-3.8,10-6.7,15.4-8.1c12.1-3.1,15.2-11.8,16.3-22.4
			c1.3-0.7,2.7-4.7,3.7,0.2c0.2,0.8,0.6,1.6,0.6,2.3c-1,13.5,8.2,17.3,18.9,19.4c0.1,0.3,0.2,0.6,0.3,0.8c-2.3,6.3-4,7.1-9.5,4.6
			c-1.5-0.6-2.9-1.4-4.3-2c-5.7-4-10.8-2.7-16.5,0.8c-7.3,4.5-13.4,10.2-19.9,15.6c-1.3,0.2-2.3-0.5-3.2-1.4
			C1048.9,532,1046.6,530,1048.3,526.9z"/>
		<path class="st17" d="M1048.3,526.9c0.8,2.4,1.7,4.8,2.5,7.2c3.7,3.5,4.1,8.7,6.7,12.9c0.2,0.5,0.4,1.1,0.6,1.6
			c0.7,1.7-0.7,3.3,0,5c1.3,6.1,4.1,12.2-0.1,18.3h-0.5l-0.5,0c-0.4-4.1-2.2-7.6-4.3-11.1c-5-8.3-7.9-17.5-10.2-26.9
			C1041.1,528.4,1042.9,526.5,1048.3,526.9z"/>
		<path class="st18" d="M1038.5,682.7c-1-2.2-2.7-3.7-4.8-4.8c0.8-1.9,1.2-3.8,0.6-5.9c-1.7-6-2-12.3-3-18.4c0.4-0.5,0.9-1,1.3-1.4
			c3.9-0.5,5.2-4.5,8.4-6l0,0c-0.3,11.5,0.2,23,3.7,34.1c-0.8,0.7-1.6,0.7-2.4,0.1C1040.4,680.2,1038.7,680.2,1038.5,682.7z"/>
		<path class="st21" d="M1104.5,663.3c-0.6,12.8-3.4,25-9.6,36.6c-0.1-2.1-0.2-4.1-0.3-6.2c2.1-11.9,5.2-23.6,8.6-35.3
			C1106.5,659.3,1104.8,661.5,1104.5,663.3z"/>
		<path class="st22" d="M1083.7,670.6c-2-5.7-2-11.4,0-17.1C1085.5,659.2,1085.4,664.9,1083.7,670.6z"/>
		<path class="st20" d="M1049.5,707.3c-1.9-2.1-3-4.7-3.7-7.4C1049.8,700.9,1051.3,703.2,1049.5,707.3z"/>
		<path class="st19" d="M1049.1,674.4c1.3,0.3,2.5,0.8,2.3,2.3c-0.1,1-1,1.1-1.8,1c-1.1-0.2-1.9-0.8-2-1.9
			C1047.4,674.7,1048.4,674.5,1049.1,674.4z"/>
		<path class="st23" d="M999.6,562.1c1.9,3.7,1.9,7.3,0,10.9C999.6,569.4,999.6,565.8,999.6,562.1z"/>
		<path class="st24" d="M1104.5,663.3c-0.3-1.7,0.6-3.6-1.3-4.8c0.4-1.2,0.8-2.5,1.2-3.7C1106.4,657.6,1106.2,660.4,1104.5,663.3z"
			/>
		<path class="st25" d="M1056.8,744.8c0.4-0.8,0.8-1.6,1.2-2.3c1.5,0,2.7,0.6,4.8,2.3C1060.1,744.8,1058.5,744.8,1056.8,744.8z"/>
		<path class="st20" d="M1042.2,680.4c0.8,0,1.6,0,2.4-0.1c1.7,0.2,3.6-0.6,4.8,1.3c-1.6,0-3.2-0.1-4.8-0.1
			C1043.7,681.5,1042.8,681.4,1042.2,680.4z"/>
		<path class="st26" d="M1093.4,704.6c1.7,1.6,1.6,3.3,0.1,5c-0.1-1-0.2-1.9-1.2-2.4C1092.2,706.2,1092.5,705.2,1093.4,704.6z"/>
		<path class="st20" d="M1054.9,717.6c0.9,1.6,1.4,2.2,1.5,2.9c0.1,0.2-0.8,0.9-1.1,0.9c-0.8-0.1-1.4-0.6-1.3-1.6
			C1054,719.2,1054.4,718.7,1054.9,717.6z"/>
		<path class="st27" d="M1084.9,744.9c-1-0.3-2.6,0.6-2.6-1c0-1.3,1.6-1.3,2.7-1.5c0.4,0.8,0.8,1.6,1.2,2.4
			C1085.7,744.9,1085.3,744.9,1084.9,744.9z"/>
		<path class="st18" d="M1092.3,726.7c11.3-7.6,19.7-18,27.6-28.8c12.6-17.3,21.1-36.4,24.4-57.6c0.3-1.8,0.6-3.7,0.2-5.4
			c-1.7-8.4,2.9-12.3,9.8-15.5c11.8-5.6,24.1-9.4,36.9-11.9c2.2-0.4,4.9-0.7,4.5,2.9c-1.8,17.1-4.1,34.1-12.2,49.7
			c-12.3,23.5-30.8,41-53.1,54.7c-13.1,8.1-26.9,15.1-41.9,19.2c-1.1-1.2-0.9-2.4,0-3.7l0,0C1089.6,728.8,1090.3,727.1,1092.3,726.7
			z"/>
		<path class="st18" d="M1171.7,690.4c2.6-3.8,5.2-7.5,7.9-11.2c15-20.8,24.5-43.6,24.9-69.7c0-3.1,1.4-5.4,3.4-7.5
			c11.4-12.2,25.5-19.7,41.3-24.6c4.3-1.3,5.1,0,5.5,4.1c2.6,24.6-4,46.8-16.4,67.6c-6.7,11.2-17,18.9-27.9,25.7
			c-10.9,6.8-22.6,11.8-34.8,15.8C1174.4,691,1173.3,691.5,1171.7,690.4z"/>
		<path class="st18" d="M1145.8,615.5c6.2-14.1,9.9-27.3,8.3-40.8c-1-8.4,2.6-13.3,7.9-18.1c14-12.8,29.8-22.9,47.5-29.9
			c3.6-1.4,4.7-0.7,4.8,3.1c0.3,22.3-3.4,43.8-12.8,64.2c-1.5,3.3-3.5,4.5-7.3,4.9c-15.6,1.9-30.4,6.4-44.1,14.5
			C1149.3,613.8,1148.4,614.2,1145.8,615.5z"/>
		<path class="st18" d="M1094.6,714.4c10.2-19.9,16.4-41.1,16.8-63.4c0.2-14.1-1.8-28.2-7.1-41.6c-0.9-2.2-1.6-4.6-2.4-6.9
			c-2.3-2.6-1.4-5.8-1.6-8.8c-0.3-1.6,1.2-3.1,0.4-4.8c0.8-1.2,1.5-2.4,2.3-3.5c5.1,0.3,7.6-3.9,10.8-6.5c8.6-6.9,9.1-7.3,13,2.7
			c13.1,33.6,14,66.9-3.7,99.6c-7.5,13.9-17.6,25.7-28.5,36.9C1092.3,717,1092.3,716.9,1094.6,714.4z"/>
		<path class="st18" d="M1103.2,515.8c3-4.1,6-8.1,9.1-12.1c1.1-1.4,2.3-2.9,4.2-0.4c11.3,15.3,23.2,30.4,27.1,49.5
			c2.9,14.2,2.1,28.4-3.2,43.2c-2.7-10-5.3-19-10.1-27.2c-4.5-7.9-5.4-8.2-12.9-3.4c-3.2,2.1-6.3,4.3-9.5,6.5
			c-3.1-1.7-0.9-3.8-0.2-5.5c3.6-9.2,8.5-17.9,10.6-27.7c0.1-0.4,0.2-0.8,0.3-1.2c3.3-11.8,2.6-13.1-8.6-17.6
			C1107.6,519,1104.5,518.8,1103.2,515.8L1103.2,515.8z"/>
		<path class="st17" d="M1103.2,515.8c5.4,2.3,10.8,4.6,16.1,6.9c2.9,1.2,3.4,3.1,3,6.3c-2,13.8-7.9,26.2-13.4,38.8
			c-0.6,1.3-2.4,2.5-0.9,4.3c0.2,1.8-1.7,2.2-2.4,3.5c-0.8,0.2-1.7,0.2-2.3,0.7c-8.3,5.6-7.8,5.2-14.4-2.1c-6-6.6-5-13.3-2.8-20.5
			c1.9-0.5,2.4,1.2,3.3,2.1c4.8,5.8,5.6,5.6,10.5,0.1c5-5.5,7.3-12,9.3-18.8c1.4-4.7-3.2-11-8.1-11.3c-1.8-0.1-2.5,1-3.2,2.3
			c-1.1,1.9-1.8,4.1-3.2,5.9c-2.2,2.9-3.1,1-3.9-1.1c0.2-4.5-2.5-6.8-6.2-8.4c-4.3-6.8,3.1-4.3,4.9-6.2c1.1,0.4,2.4,0.5,3.3,1.1
			C1098.3,523.1,1101.3,521.2,1103.2,515.8z"/>
		<path class="st28" d="M1088.6,730.3c0,1.2,0,2.4,0,3.7c-0.8,0.8-1.6,1.6-2.4,2.5C1082.1,732.4,1087.1,732.1,1088.6,730.3z"/>
		<path class="st29" d="M1092.3,726.7c-0.9,1.5-2.1,2.7-3.7,3.5c0.1-2.3-0.4-4.8,2.4-6.1C1091.1,725.2,1091.3,726.2,1092.3,726.7z"
			/>
		<path class="st30" d="M1094.6,714.4c-0.1,1.2-2,2.4,0,3.7c-0.5,1-1.4,1.3-2.3,1.3c-1.1-2.3-0.4-4.3,1.1-6.2
			C1093.8,713.6,1094.2,714,1094.6,714.4z"/>
		<path class="st17" d="M1031.3,653.6c1.5,0.5,2.3,1.7,2.3,3.2c-0.2,6.1,1.4,11.9,2.9,17.6c0.8,3.1-0.3,3.5-2.8,3.4
			c-15.5-6.2-16.2-9.8-4.3-21.9C1030.1,655.2,1030.6,654.4,1031.3,653.6z"/>
		<path class="st31" d="M1089.8,518.2c0.5,1.5,1.3,4-1.5,2.7c-5.3-2.5-2.9,1.7-3.4,3.4c-9.2,0-17.5,11.1-13.1,18.5
			c2.4,4,4.9,7.3,4.7,12.2c-0.1,3.3-1,5.7-4.2,7.3c-3.6,1.8-4.6-1.4-6.4-2.9c-2.4-2.1-4.5-4.7-6.7-7c-1.7-0.7-1.5-2.6-2.4-3.8
			c0-0.4,0-0.8,0-1.2c-1.4-4-4.1-7.6-3.7-12.2c6.7-9.9,17.1-15.1,27.1-20.5C1083.6,513,1086.6,516.9,1089.8,518.2z"/>
		<path class="st18" d="M1091.1,532.8c0.9,0,1.1,2.7,2.6,0.8c0.5-0.6,0.7-1.4,1.1-2.1c5.2-9.8,5.1-9.7,13.8-3.2
			c3.1,2.3,3.8,4.8,2.6,8.4c-2.5,7.7-5.2,15.1-10.7,21.4c-5.2,6-8.1,5.8-12-2c-1.1-2.3-1-4.7,0.1-7c0.3-3.9,5.3-6.7,2.5-11.3
			C1091,536.1,1091,534.5,1091.1,532.8z"/>
		<path class="st32" d="M1102,592.6c0,3.3,0,6.6,0,9.9c-2.5,2.5-0.7,5.6-1.2,8.3c-2.1-4.2-0.9-9.1-2.4-13.4
			C1100.6,596.6,1098.4,592.4,1102,592.6z"/>
		<path class="st33" d="M1102,592.6c-2.9,0.4,1.3,6-3.7,4.9c-2.8-3.9-1-6.4,2.4-8.6C1102.3,589.7,1101.9,591.2,1102,592.6z"/>
		<path class="st34" d="M1091,537.8c3.6,0.7,2.5,2.9,1.5,5c-0.9,2-1.9,3.9-2.9,5.9c-1.1,0.2-1.7,0-1.2-1.3
			C1089.4,544.2,1090.2,541,1091,537.8z"/>
		<path class="st32" d="M1105.7,637.6c2.3,4.1,1,8.1-1.2,12.2c0-1.6,0-3.2,0-4.8C1106.6,642.8,1105.2,640,1105.7,637.6z"/>
		<path class="st35" d="M1088.5,547.4c0.4,0.4,0.8,0.8,1.2,1.3c-1.3,2.3-1.1,4.8-1.2,7.4c-0.8-0.8-1.5-1.6-2.3-2.4
			C1086.6,551.4,1087,549.2,1088.5,547.4z"/>
		<path class="st32" d="M1104.5,621.7c2.3,3.5,0.7,7.4,1.2,11C1103.2,629.3,1104.9,625.4,1104.5,621.7z"/>
		<path class="st36" d="M1056.9,548.7c0.8,1.3,1.6,2.5,2.4,3.8c-0.4,0.4-0.8,0.8-1.2,1.1C1056.3,552.3,1057,550.4,1056.9,548.7z"/>
		<path class="st37" d="M1053.2,535.3c0.8,4.2,3.8,7.7,3.7,12.2c-4.1-3.6-3.9-9-6.1-13.4C1051.6,534.5,1052.4,534.9,1053.2,535.3z"
			/>
	</g>
</g>
</svg>
