<?xml version="1.0" encoding="utf-8"?>
<!-- Generator: Adobe Illustrator 24.1.0, SVG Export Plug-In . SVG Version: 6.00 Build 0)  -->
<svg version="1.1" id="Calque_1" xmlns="http://www.w3.org/2000/svg" xmlns:xlink="http://www.w3.org/1999/xlink" x="0px" y="0px"
	 viewBox="0 0 454 304.5" style="enable-background:new 0 0 454 304.5;" xml:space="preserve">
<style type="text/css">
	.st0{fill:#464E9F;}
	.st1{fill:#C9CADF;}
	.st2{fill:#F1E5E8;}
	.st3{fill:#F0E5E8;}
</style>
<g>
	<path class="st0" d="M197.2,201.2c7.8,3,16.1,5.2,23.3,9.2c6,3.3,10,9.4,11,16.6c0.8,6,0.7,12.2,1.9,18.9c3.9-6,7.9-12,12.5-19
		c0.8,2.7,1.2,4,1.8,6.1c1-1.9,1.8-3.4,2.5-5c14.6-33.2,18.4-66.9,3.7-101.1c4.4,13.3,6.1,26.9,4.6,40.7c-0.6,0.1-1.3,0.1-1.9,0.2
		c-0.8-5.2-1.8-10.5-2.4-15.7c-2.2-16.9-9.6-31.7-18.1-46.1c-2.7-4.6-6-8.7-8.8-13.3c-2.2-3.6-4.2-2.5-6.1-0.1
		c-2,2.5-3.8,5.2-6.2,8.5c-1.7-3.2-2.9-5.5-4.5-8.5c-2.5,2.4-4.8,4.2-6.6,6.4c-2.8,3.4-5,3.1-8.2,0.4c-5.7-4.8-11.6-9.4-17.7-13.6
		c-5.9-4.1-7.9-3.7-11,3c-3.6,7.7-6.5,15.6-9.7,23.5c-0.3,0.7-0.6,1.5-2,2.3c-1-4.2-2.3-8.3-3-12.6c-4.5-25.2,4.3-46.7,19-66.4
		c2.1-2.8,4.2-5.5,6.2-8.4c3.6-5,6.2-5,9.8,0.2c3.2,4.7,6.3,9.4,9.5,14c0.9,1.3,2,2.5,2.3,2.9c7-3,13.1-5.8,19.3-8.3
		c7.3-3,11.2-8.4,12.8-16c0.5-2.6,1.6-5.1,2.4-7.6c0.6,0.1,1.2,0.1,1.8,0.2c0.3,1.4,0.7,2.9,0.8,4.3c0.5,11.1,6.5,17.7,17.4,18.7
		c1.1,0.1,2.6-1,3.4-1.9c3.3-3.9,6.4-7.9,9.9-12.3c13.8,17.5,27.1,34.4,29.9,56.3c1.6,12.5,1.6,25.5-3.7,37.3
		c-3.7-8.7-7.1-17.4-11-26c-3.2-7-4.9-7.3-11.4-3.3c-2.5,1.6-4.9,3.4-7.5,4.8c-1.1,0.6-2.6,0.6-3.9,0.9c0.1-1.3-0.1-2.8,0.3-4
		c3.9-10.9,8.2-21.7,11.8-32.7c2.5-7.7,1.1-9.8-6.5-12.9c-2.9-1.2-5.8-2.4-9-3.7c-1.9,6-6.2,6.2-10.2,3.5c-11-7.3-19.5-2-27.9,4.6
		c-2.3,1.8-4.6,3.8-6.8,5.8c-6.4,5.8-7.7,5.5-11.3-2.6c-3,0.8-3.9,2.7-2.8,5.5c3.8,10.2,7.7,20.4,11.5,30.6c0.7-0.2,1.4-0.4,2.2-0.5
		c-0.3-2.6-0.7-5.1-0.8-7.7c0-1.5,0.6-3.1,0.9-4.6c1.5,0.5,3.2,0.7,4.4,1.6c1.7,1.2,2.9,3.3,4.7,4.4c1.4,0.9,3.4,1.2,5,0.9
		c0.8-0.2,1.4-2.3,1.7-3.7c0.9-4.6-1.2-8.3-3.5-12.1c-2.6-4.2-0.2-13.2,4.1-17.8c3.5-3.7,8-4.1,11.8-1.7c3,1.8,5,5.4,7.5,8.4
		c1-1.5,2.6-3.9,4.2-6.3c1.8-2.5,3.9-2.7,6.4-1c7.6,4.8,8.8,7.2,5.4,15.5c-2.6,6.4-5.8,12.7-9.9,18.2c-4.3,5.7-7.1,5.1-11.1-0.9
		c-0.5-0.7-0.8-1.4-1.2-2.2c-3.2,7.6-1.1,16.4,5.7,20.8c1.6,1.1,4.5,0.3,6.8,0c1.5-0.1,3-0.8,4.4-1.2c0.1,1.7,0.3,3.3,0.1,5
		c-0.1,1.2-0.6,2.5,0.1,4.8c1.6-0.9,3.4-1.7,4.9-2.8c2.9-2.2,5.7-4.5,8.6-6.8c3.2-2.5,5.6-1.5,6.9,2.1c2.9,8.3,6.2,16.5,8.3,25
		c1.9,8,3.1,16.4,3.2,24.6c0.1,14.1-1.9,28.1-7.3,41.4c-7.2,17.9-18.3,33.1-31.7,46.6c-3.4,3.4-7.7,5.8-6.8,11.5l-0.4,0.2l0.2,0.2
		l0.2-0.4c5.5-4.4,11.8-8.1,16.5-13.3c10.3-11.5,19.2-24.1,25.9-38.2c5.5-11.7,9.1-23.8,11.4-36.4c0.1-0.5,0.2-1,0.1-1.5
		c-3.2-10.3,2.6-15.5,11-18.5c11.1-4,22.3-7.6,33.6-10.9c5.3-1.5,7-0.1,6.4,4.7c-2.2,16.8-4.4,33.5-12.7,48.8
		c-8.4,15.4-19.4,28.5-32.9,39.6c-16.4,13.6-34.6,24-54.6,31.3c-1.4,0.5-2.8,1-4.3,1.3c-6.1,1.2-6.3,1.5-4.5,8.7
		c7.7-2.7,15.4-5.1,22.8-8c17-6.8,31.7-17,45.6-28.9c4.6-3.9,12.1-5.3,18.5-6.2c14.4-2,29-4.3,43.4-4.1c22.5,0.3,45,1.8,66.8,8.6
		c1.3,0.4,2.4,1.3,3.7,2c-0.9,1-1.6,2.3-2.7,3c-27.1,16.5-55.5,29.8-86.5,37.5c-20.7,5.2-41.7,6.8-62.7,5.3
		c-16-1.1-31.8-4.3-47.6-6.5c-0.8-0.1-1.6,0-2.6,0c-1.1,3.4-0.9,6.1,1.7,8.8c1.3,1.3,2.7,4.2,2.1,5.3c-0.8,1.4-3.4,2.3-5.4,2.6
		c-3.9,0.7-7.6,0.3-7.2-5.2c0.5-6,0.7-12.1,1.6-18c0.5-3.1,0.7-4.4-2.8-6c-3.6-1.6-6.6-4.9-9.3-8c-9.6-11.2-16.8-23.9-20.6-38.3
		C197.5,204.8,197.4,203,197.2,201.2C197.2,201.2,197.2,201.2,197.2,201.2z"/>
	<path class="st0" d="M7.7,225.3c7.3-2,14.5-4.9,21.9-5.8c18.1-2,36.3-4.2,54.4-3.9c16.2,0.3,32.5,3.5,48.6,6.2
		c4.1,0.7,8.4,3.4,11.6,6.3c17.8,15.9,38.2,26.9,61.1,33.4c1.6,0.5,3.2,1.3,4.7,2c0,0.6,0,1.1,0,1.7c-2.8,0.7-5.6,1.5-8.5,2
		c-22.8,3.7-45.7,5.9-68.8,5.2c-15.4-0.5-30.2-3.9-44.8-8.1c-27.5-7.8-53-20.4-77.3-35.3c-1-0.6-1.9-1.4-2.8-2
		C7.8,226.3,7.8,225.8,7.7,225.3z"/>
	<path class="st0" d="M212.7,255.5c-1.3-0.1-2.6,0-3.8-0.3c-25.2-7.6-47.4-20.4-67.2-37.8c-16.6-14.6-29-31.9-35.3-53.2
		c-3.4-11.4-5.4-23.1-5.1-36.6c6.1,1.3,11.9,1.8,17.2,3.7c10,3.5,19.8,7.5,29.4,12.1c2.2,1,4.2,5,4.2,7.6
		c-0.3,27.6,11.1,50.4,27.7,71.4c9.6,12.1,20,23.5,33.3,31.8C212.9,254.5,212.8,255,212.7,255.5z"/>
	<path class="st0" d="M323.6,212.2c2.6-4.1,4.2-7.1,6.2-9.8c10.8-14.4,19.3-29.9,23.6-47.4c1.3-5.3,3.2-10.9,2.6-16.1
		c-1.4-11.2,4.8-17.9,12.3-24c9.8-7.9,21-13.3,33.1-16.9c4.2-1.3,5.6,0.4,5.9,4.1c2.1,26.9-4.4,51.5-20.3,73.3
		c-7.8,10.6-18.8,17.9-30.3,23.9c-9,4.6-18.6,8-27.9,11.9C327.6,211.6,326.3,211.6,323.6,212.2z"/>
	<path class="st0" d="M125.8,213.5c-12.7-5.5-24.9-10-36.2-15.9c-15.3-8-27.4-19.8-35.5-35.2C48,151,44,138.9,42.4,126.1
		c-0.9-7.4-1.1-14.9-1-22.3c0.1-6.4,2.1-7.4,8.2-5.4c14.9,5,28,12.9,39.1,24c1.8,1.8,3.3,4.8,3.4,7.3c1,27.1,10.3,51.1,26.7,72.5
		c2.1,2.8,4.3,5.4,6.5,8.2C125.5,210.7,125.4,211.3,125.8,213.5z"/>
	<path class="st0" d="M149.7,135.5c-5.6-2.6-9.8-4.6-13.9-6.6c-11.2-5.4-23.1-7.9-35.3-9.9c-1.9-0.3-4.4-1.9-5.1-3.6
		C88.5,100.1,84,84,83.2,67.1c-0.3-5.8-0.6-11.6-1-17.4c-0.2-3.3,1.2-4.2,4.2-2.9c20.4,8.3,38.8,19.7,53.7,36.1
		c2.1,2.3,3.3,6.9,2.8,10c-2.4,12.7,1.8,24.2,5.1,36C148.6,130.7,149,132.6,149.7,135.5z"/>
	<path class="st0" d="M299.2,135.2c1.6-4.9,3.9-9.6,4.6-14.6c1.3-9,2-18.1,2.3-27.1c0.2-6.5,2.7-11.7,7.3-15.8
		c13.8-12.1,28.6-22.6,45.8-29.4c1.9-0.8,4-0.9,6.9-1.5c0,8.9,1.2,17.2-0.3,25c-2.4,13-6.3,25.6-9.8,38.4c-1.9,7-6.5,9.6-13.9,10.3
		c-12.3,1.2-23.8,5.4-34.8,11.1C304.7,132.9,301.9,134,299.2,135.2L299.2,135.2z"/>
	<path class="st0" d="M197.2,201.2c-7,0.1-7.1,0.3-4.3,6.5c3.9,8.6,7.6,17.3,11.4,25.9c0.4,0.9,0.5,1.8,1.1,4.4
		c-2.7-1.3-4.6-1.8-5.7-2.9c-20.8-20.8-36.4-44.5-39.3-74.5c-2-20,1.2-39.4,9-57.9c5.2-12.2,4.7-9.7,13.6-3.1
		c4.2,3.2,8.3,6.7,12.7,9.5c4.3,2.7,3.8,5.8,2.2,9.8c-3.6,9.3-7.5,18.5-9.9,28.1c-2,8-1.9,16.5-2.9,26c3-2.3,4.9-3.9,6.6-5.2
		C193.6,178.9,195.4,190.1,197.2,201.2C197.2,201.2,197.2,201.2,197.2,201.2z M186.5,196.4c-1-6.8-1.8-12.6-2.8-19
		c-3.8,3.7-8.7,6.4-7.8,11.8C176.7,193.5,181,195.2,186.5,196.4z"/>
	<path class="st0" d="M193.1,166.3c2.1-23,8.8-43.6,21.3-63.4c4.9,12.7,7.3,24.6,5,37.4C216.7,154.8,205.2,159.9,193.1,166.3z"/>
	<path class="st0" d="M237.6,181c-0.6,6.5-0.8,11.1-1.5,15.7c-0.8,5.5-4.1,7.7-9.2,5.4c-8.9-4.1-17.5-8.7-26.1-13.4
		c-0.6-0.3-0.7-3.7,0-4.1c9.3-5.8,18.7-11.4,28.3-16.6c1.1-0.6,4.9,1.3,5.6,2.9C236.4,174.6,237,178.7,237.6,181z"/>
	<path class="st0" d="M255.5,180.2c2,13.8-0.9,26.8-7.8,38.9C246.8,205.5,251.5,193,255.5,180.2z"/>
	<path class="st1" d="M299.2,135.2c-0.1,0.1-0.3,0.3-0.4,0.4c0-0.1,0-0.2,0.1-0.3C299,135.3,299.1,135.2,299.2,135.2
		C299.2,135.2,299.2,135.2,299.2,135.2z"/>
	<polygon class="st2" points="243.2,247.2 243,247.6 242.8,247.4 	"/>
	<path class="st3" d="M183.8,177.4c0.9,6.4,1.8,12.3,2.8,19"/>
</g>
</svg>
