<?xml version="1.0" encoding="UTF-8"?>
<svg id="Calque_1" xmlns="http://www.w3.org/2000/svg" version="1.1" viewBox="0 0 1920 1155">
  <!-- Generator: Adobe Illustrator 29.0.1, SVG Export Plug-In . SVG Version: 2.1.0 Build 192)  -->
  <defs>
    <style>
      .st0 {
        fill: #cacbe0;
      }

      .st1 {
        fill: #fdfdfe;
      }

      .st2, .st3, .st4 {
        stroke-miterlimit: 10;
        stroke-width: .8px;
      }

      .st2, .st5 {
        fill: none;
      }

      .st2, .st4 {
        stroke: #9988bd;
      }

      .st6 {
        fill: #fef8f2;
      }

      .st7 {
        fill: #f9f9fb;
      }

      .st8 {
        fill: #eeeff5;
      }

      .st9 {
        fill: #f2f2f7;
      }

      .st10 {
        letter-spacing: 0em;
      }

      .st10, .st11, .st12, .st13 {
        fill: #9988bd;
      }

      .st10, .st12, .st13 {
        isolation: isolate;
      }

      .st10, .st13 {
        font-family: BodoniSvtyTwoITCTT-BookIta, 'Bodoni 72';
        font-size: 64.7px;
        font-style: italic;
      }

      .st14 {
        fill: #cccde1;
      }

      .st15 {
        fill: #f3f3f8;
      }

      .st16 {
        fill: #f6f7f9;
      }

      .st17 {
        fill: #fcfcfd;
      }

      .st18 {
        fill: #464e9f;
      }

      .st19 {
        fill: #e1e2ed;
      }

      .st20 {
        fill: #f4f4f8;
      }

      .st21 {
        fill: #cbcce0;
      }

      .st22 {
        fill: #f2e6e9;
      }

      .st23 {
        fill: #d1d3e4;
      }

      .st24 {
        fill: #e4e5ef;
      }

      .st12 {
        font-family: BodoniSvtyTwoITCTT-Book, 'Bodoni 72';
        font-size: 331.6px;
      }

      .st25 {
        fill: #e4e4ef;
      }

      .st26 {
        fill: #f1f1f6;
      }

      .st27, .st3, .st4 {
        fill: #fff;
      }

      .st3 {
        stroke: #000;
      }

      .st28 {
        fill: #e6e7f1;
      }

      .st29 {
        fill: #dadbe9;
      }

      .st30 {
        fill: #fefefe;
      }

      .st13 {
        letter-spacing: .2em;
      }

      .st31 {
        fill: #c3bed0;
      }

      .st32 {
        fill: #c5c7dd;
      }

      .st5 {
        stroke: #707070;
      }

      .st33 {
        fill: #c6c7dd;
      }

      .st34 {
        fill: #fdfdfd;
      }
    </style>
  </defs>
  <g id="Groupe_1">
    <g id="Rectangle_1">
      <rect class="st31" x="-290" y="448.7" width="224" height="81.4"/>
      <rect class="st5" x="-289.7" y="449" width="223.3" height="80.8"/>
    </g>
    <g id="Rectangle_2">
      <rect class="st23" x="-290" y="602.4" width="224" height="81.4"/>
      <rect class="st5" x="-289.7" y="602.7" width="223.3" height="80.8"/>
    </g>
    <g id="Rectangle_3">
      <rect class="st6" x="-290" y="881.6" width="224" height="81.4"/>
      <rect class="st5" x="-289.7" y="881.9" width="223.3" height="80.8"/>
    </g>
    <g id="Rectangle_4">
      <rect class="st22" x="-290" y="747.1" width="224" height="81.4"/>
      <rect class="st5" x="-289.7" y="747.3" width="223.3" height="80.8"/>
    </g>
    <g id="Rectangle_5">
      <rect class="st18" x="-290" y="295" width="224" height="81.4"/>
      <rect class="st5" x="-289.7" y="295.3" width="223.3" height="80.8"/>
    </g>
  </g>
  <g>
    <g>
      <path class="st4" d="M1069.8,232.6c-226.8,0-410.4,183.7-410.4,410.4s183.7,410.4,410.4,410.4,410.4-183.7,410.4-410.4-183.7-410.4-410.4-410.4Z"/>
      <path class="st4" d="M1041.6,267.1c-217.6,0-393.6,176.4-393.6,393.6s176.4,393.6,393.6,393.6,393.6-176.4,393.6-393.6-175.9-393.6-393.6-393.6Z"/>
      <path class="st4" d="M1063.4,288.9c-212.2,0-383.6,171.9-383.6,383.6s171.4,384.1,383.6,384.1,383.6-171.9,383.6-383.6-171.8-384.1-383.6-384.1Z"/>
      <path class="st4" d="M1084.7,277.1c-212.2,0-383.6,171.9-383.6,383.6s171.9,383.6,383.6,383.6,383.6-171.9,383.6-383.6-171.4-383.6-383.6-383.6Z"/>
      <path class="st4" d="M1051.6,277.1c-211.8,0-383.6,171.8-383.6,384.1s171.9,383.6,383.6,383.6,383.6-171.9,383.6-383.6-171.4-384.1-383.6-384.1Z"/>
      <path class="st3" d="M1063.4,277.1c-212.2,0-383.6,171.9-383.6,383.6s171.9,383.6,383.6,383.6,383.6-171.8,383.6-383.6-171.8-383.6-383.6-383.6Z"/>
      <path class="st4" d="M1063.4,277.1c-212.2,0-383.6,171.9-383.6,383.6s171.9,383.6,383.6,383.6,383.6-171.8,383.6-383.6-171.8-383.6-383.6-383.6Z"/>
      <text class="st12" transform="translate(903.4 643.5)"><tspan x="0" y="0">S</tspan></text>
      <text class="st12" transform="translate(1026.2 846.9)"><tspan x="0" y="0">E</tspan></text>
      <text class="st13" transform="translate(1063.1 534.7)"><tspan x="0" y="0">souffle</tspan></text>
      <text class="st10" transform="translate(886 924.5)"><tspan x="0" y="0">dՎquilibre</tspan></text>
      <g>
        <path class="st2" d="M1167.7,596.3s12.7-12.2,20-4.1c9.1,10.4-3.2,41.3,7.3,63.9,5.9,12.2,11.8,8.2,23.6,27.7,6.8,10.9,10,20.9,10.9,19.5,1.8-1.4-.5-16.8-4.1-28.6-1.8-5.9-2.7-6.3-6.3-18.1-1.4-3.6-1.8-6.3-3.6-10-.5-.9-2.3-5-5.4-10-4.1-5.9-6.8-7.3-14.1-21.3-6.3-12.2-8.6-16.8-14.1-20-7.4-3.5-14.2,1-14.2,1Z"/>
        <path class="st2" d="M1290.6,632.1c-25.4,29.5-38.1,55.3-44.9,74.4-1.8,5-5.4,15.9-12.2,29.5-9.1,18.1-17.7,31.3-24,39"/>
        <path class="st2" d="M1201.3,569.1c6.8,8.2,10,16.3,11.8,22.2,4.1,13.6,1.4,19.5,5.4,45.8.9,4.5,1.8,10.9,4.1,21.8.9,5.4,2.3,13.6,3.6,25.4v.9c1.4,12.2,4.1,20,5.4,23.6,1.8,5.4,3.2,13.6,1.4,27.7"/>
        <path class="st2" d="M1196.3,616.3c1.4,9.1,3.2,17.2,5,23.6,0,0,2.7,10.9,6.8,22.2h0s6.8,14.1,7.7,15.9"/>
        <path class="st2" d="M1290.6,632.1c-.5-.9-2.3,0-12.7,9.1-12.2,11.3-18.6,16.8-21.8,21.8-13.6,19-19.5,52.6-15.4,58,3.6,4.5,15-9.1,21.8-20.9,6.3-11.3,5.4-16.3,14.1-36.3,8.1-19.9,14.9-29.4,14-31.7Z"/>
        <path class="st2" d="M1206.2,598.6"/>
        <path class="st2" d="M1199.4,570c-.9,1.8,2.7,6.8,5.4,14.1,5.9,14.1,4.1,22.2,7.3,52.1,1.4,12.7,4.1,31.3,10,52.1,2.3,8.2,6.3,21.3,9.1,20.4,3.2-1.4,3.2-22.2,2.7-29,0-16.3-2.3-29-2.7-32.6-3.2-20-5.9-16.8-10.9-40.8-3.2-15.4-4.1-20.9-8.2-27.2-4.5-7.7-11.7-11.3-12.7-9.1Z"/>
      </g>
      <g>
        <path class="st2" d="M952.3,457.1s-6.8-4.5-14.5,0c-5.4,3.2-7.3,7.7-14.1,20-7.3,13.6-10,15.4-14.1,21.3-3.2,5-5,8.6-5.4,10-1.8,3.6-2.3,6.3-3.6,10-3.6,11.8-4.5,12.2-6.3,18.1-3.6,11.8-5.9,27.2-4.1,28.6,1.4,1.4,4.5-8.6,10.9-19.5,11.8-20,17.7-15.4,23.6-27.7,10.9-22.7-1.8-53.5,7.3-63.9,7.6-9.1,20.3,3.1,20.3,3.1Z"/>
        <path class="st2" d="M911.5,636.2c-6.3-8.2-15.4-20.9-24-39-6.8-13.6-10.4-24.9-12.2-29.5-6.8-19-20-44.4-44.9-74.4"/>
        <path class="st2" d="M887,597.2c-1.8-14.1-.5-22.7,1.4-27.7,1.4-3.6,4.5-11.3,5.4-23.6v-.9c.9-11.8,2.7-20,3.6-25.4,1.8-10.9,3.2-17.2,4.1-21.8,4.5-26.3,1.8-32.2,5.4-45.8,1.8-5.9,5-14.1,11.8-22.2"/>
        <path class="st2" d="M904.7,538.7c.9-1.8,7.7-15.9,7.7-15.9h0c4.1-10.9,6.8-22.2,6.8-22.2,1.8-6.3,3.2-14.1,5-23.6"/>
        <path class="st2" d="M829.9,492.9c-1.4,2.3,5.4,11.8,14.1,31.7,8.7,19.9,7.7,24.9,14.1,36.3,6.8,11.8,18.1,25.4,21.8,20.9,4.1-5.4-1.8-38.5-15.4-58-3.2-4.5-9.5-10.4-21.8-21.8-10.6-9.5-12.4-10.4-12.8-9.1Z"/>
        <path class="st2" d="M913.8,459.4"/>
        <path class="st2" d="M920.6,430.8c-.9-2.3-8.2,1.4-13.2,9.1-4.1,6.3-5,11.8-8.2,27.2-5,24-7.3,20.9-10.9,40.8-.5,3.6-2.7,15.9-2.7,32.6s-.5,27.7,2.7,29c2.7.9,6.8-12.2,9.1-20.4,6.3-20.4,8.6-39.5,10-52.1,3.2-29.5,1.4-38.1,7.3-52.1,3.1-7.3,6.8-12.3,5.9-14.1Z"/>
      </g>
      <circle class="st27" cx="1277.9" cy="232.6" r="12.2"/>
      <circle class="st27" cx="1467" cy="443.1" r="12.2"/>
      <circle class="st11" cx="1421.6" cy="606.3" r="8.2"/>
      <circle class="st11" cx="1404.9" cy="578.2" r="8.2"/>
      <circle class="st27" cx="1501" cy="518.3" r="5"/>
      <circle class="st27" cx="1487.9" cy="483.9" r="8.2"/>
      <circle class="st27" cx="1496" cy="598.1" r="5"/>
      <circle class="st11" cx="1426.2" cy="696.1" r="5"/>
      <circle class="st27" cx="1496" cy="696.1" r="8.2"/>
      <circle class="st27" cx="1496" cy="730.6" r="8.2"/>
      <circle class="st27" cx="1479.2" cy="749.1" r="5"/>
      <circle class="st11" cx="1326" cy="890.6" r="12.2"/>
      <circle class="st11" cx="1365" cy="861.6" r="8.2"/>
      <circle class="st27" cx="1381.7" cy="939.6" r="8.2"/>
      <circle class="st27" cx="1360" cy="962.7" r="8.2"/>
      <circle class="st27" cx="1338.7" cy="984.5" r="8.2"/>
      <circle class="st27" cx="1159.5" cy="1070.7" r="8.2"/>
      <circle class="st27" cx="1190.8" cy="1057.5" r="8.2"/>
      <circle class="st27" cx="1368.6" cy="989.5" r="8.2"/>
      <circle class="st27" cx="1210.8" cy="1062.5" r="5"/>
      <circle class="st27" cx="1205.8" cy="1040.7" r="5"/>
      <circle class="st11" cx="1298.8" cy="911.5" r="5"/>
      <circle class="st27" cx="1313.7" cy="997.6" r="5"/>
      <circle class="st11" cx="1250.7" cy="361" r="8.2"/>
      <circle class="st11" cx="1278.8" cy="369.1" r="5"/>
      <circle class="st11" cx="1268.8" cy="385.9" r="5"/>
      <circle class="st11" cx="1063.4" cy="299.8" r="5"/>
      <circle class="st27" cx="993.6" cy="215" r="8.2"/>
      <circle class="st27" cx="968.6" cy="201.8" r="5"/>
      <circle class="st27" cx="963.6" cy="219.9" r="5"/>
      <circle class="st27" cx="912.4" cy="244.9" r="5"/>
      <circle class="st27" cx="782.3" cy="303.8" r="12.2"/>
      <circle class="st27" cx="813.1" cy="279.8" r="8.2"/>
      <circle class="st11" cx="786.3" cy="417.2" r="8.2"/>
      <circle class="st27" cx="745.1" cy="294.8" r="8.2"/>
      <circle class="st27" cx="690.2" cy="425.8" r="5"/>
      <circle class="st11" cx="778.2" cy="442.1" r="8.2"/>
      <circle class="st11" cx="804.5" cy="434" r="5"/>
      <circle class="st11" cx="719.2" cy="589.1" r="12.2"/>
      <circle class="st11" cx="707" cy="623.1" r="8.2"/>
      <circle class="st11" cx="736.5" cy="616.3" r="5"/>
      <circle class="st27" cx="607.2" cy="651.2" r="8.2"/>
      <circle class="st27" cx="615.8" cy="758.7" r="5"/>
      <circle class="st11" cx="718.3" cy="763.7" r="8.2"/>
      <circle class="st27" cx="634.9" cy="796.3" r="12.2"/>
      <circle class="st11" cx="778.2" cy="886.5" r="8.2"/>
      <circle class="st11" cx="799.5" cy="916.5" r="8.2"/>
      <circle class="st27" cx="726.9" cy="939.6" r="8.2"/>
      <circle class="st27" cx="710.2" cy="916.5" r="5"/>
      <circle class="st27" cx="751.4" cy="962.7" r="5"/>
      <circle class="st11" cx="997.7" cy="1009.9" r="12.2"/>
      <circle class="st11" cx="1033.5" cy="1022.6" r="8.2"/>
      <circle class="st27" cx="1010.3" cy="1070.7" r="8.2"/>
    </g>
    <circle class="st27" cx="1058.4" cy="665.7" r="315.6"/>
    <g>
      <path class="st34" d="M962.9,749.8c-6.8,2.9-14,3.4-20.5.4-10.7-4.9-22.3-6.5-33-11.7-8.7-4.2-18.1-7.9-27-12-9.6-4.4-18.7-10-27.9-15.3-2-1.2-4.1-2.9-3.7-5.8.4-2.8,2.5-4.3,4.8-4.9,14.6-4.1,29.2-9.3,44.5-7.8,13.4,1.4,26.8.5,40.1,1,4.1.2,8-.4,12.2-1.8-2.6-3.7-5.7-6-9.8-7.7-22.7-9.9-40.3-24.7-48.7-49.2-3.2-9.2-6.9-18-7.6-27.9-.2-3-.8-6,0-9,1-3.6,1-7.1,0-10.8-.6-2.3-.7-4.9-.4-7.2.8-5.9,4.6-8.5,10.3-7,12.7,3.2,23.9,9.6,34.3,17.4,1.3,1,2.4,2.7,4.1,1.7,1.9-1.2.5-2.9,0-4.3-4.4-12.4-6.1-25.4-8.6-38.3-1.4-7.4,2.1-14.7.5-22.3-.5-2.3,4.2-5.5,8.5-4.4,18.2,4.8,32.6,16.2,47.3,27.1,2.9,2.2,5,5.7,8.1,7.9,3,2.1,4.5,1.7,4.9-1.7,2.6-20.7,14.3-37,26-53.2,5.7-7.9,12.3-7,17,1.5,2.2,3.9,5.7,6.8,7.6,10.9,1.1,2.5,3.7,1.9,5.9.9,5.4-2.3,10.5-5.2,16.1-7.2,4.9-1.7,5.9-7.4,7.5-12,.7-2,.2-4.6,2.9-5.6,1.3.6,2.1,1.5,2.3,2.9-.6,10.8-3.7,19.5-15.6,22.9-6,1.7-11.1,5.7-16.9,7.9-3.3.6-4.7-1.8-6.1-4.1-2.9-4.7-6-9.2-9.4-13.5-1.6-2-3.7-3.2-5.6-.8-12.7,16.9-26,33.5-26.4,56.2v9.3c-1,7.2,2.5,13.9,2.2,20.3,1.7-8.2,4.8-16.7,9.3-24.6,4.5-8,6.9-8.6,14.9-3.6,5.2,3.3,10.1,6.8,14.7,10.8,5.4,4.7,5.8,4.6,10.5-.9,1-1.2,2-2.6,3.6-3.2.6-.2,1.2-.2,1.8,0,2.5.7,2.7,3.4,4.5,5.2,2.7-.9,3.5-3.6,5.2-5.4,3.4-3.7,5.1-3.9,8.3,0,6.4,7.9,11.6,16.7,16,25.8,6.5,13.6,12,27.5,12.6,42.9,0,4.8,0,9.7.8,14.5,0,1.7-.7,3.2-.9,4.8-3.5,11.4-5.9,23.1-8.8,34.7-1.4,3.3-.4,6.9-1.3,10.3-.2,1.2-.7,2.4-.9,3.6-1.9,6.1-6,10.9-9.4,16.1-.9,1.4-2.1,3.5-4.1,2.6-1.8-.9-1.4-3.1-1.5-4.9,0-4.2.2-8.4-.5-12.6-2.3-12.8-10.9-19.2-22.4-22.8-2.5-.8-5.1-1.4-7.2-3-1.6-1.1-3.5-1.7-4.9-3-4.6-10.5-5.6-21.3-3.4-32.4,2.3-5.2,7-8,11.7-10.1,12.8-5.5,13.9-17.2,14.8-28.3.6-7.3-1.6-14.8-5.2-22.5-5.6,8.7-9.7,17.6-12.6,26.9-2.5,8.1-4.8,16.3-5.6,24.8-.2,2.6-1,5.2-2.2,7.5-2.4,3-3.4,8-9.1,6.6-2.1-6.6,0-13.2.6-19.7,1.3-12.2,5.1-23.8,10.8-34.7,2-3.8,1.5-6.3-2.1-8.7-5.2-3.5-9.9-7.7-15-11.5-3-2.3-4.9-1.8-6.6,1.6-4.5,8.8-6.8,18.3-8.4,27.8-3.8,21.8-2.7,43.2,6.8,63.7,7.6,16.4,18.5,30.3,31.7,43.3,0-2.8-1.6-4.3-1.6-6.3.7-3.6-.5-6.2-3.8-7.9-3.2-5.6-5.8-11.4-7-17.8.3-2.5,1.8-3.3,4.1-3,1.3.2,2.1,1.2,3.3,1.8,4.7,10.5,8.2,21.6,14.5,31.4,3.7,5.7,8.7,10.1,12.8,15.4.7,1,1.9,1.4,3.2,1.7,5.7,1.3,6.9,3,4.8,8.2-2.1,5.5-2.5,11-2.1,16.7.2,2.4,1,4.4,3.7,4.8,1.6.2,3.4.3,4.6-1,1.5-1.7,0-2.9-.8-4.3-2.1-3.4-4.1-6.8-.2-10.3.6-.3,1.3-.5,1.9-.6,12.9,1.4,25.7,3.4,38.6,4.9,15.4,1.8,30.7,1.2,46,.4,2.4,0,4.8-1,6.9,1-3.1,4.8-8,5.3-12.9,4.6-10.1-1.5-20.1-1.2-30.2,0-6.8.7-13.3-2.8-20.2-2.7-6.6,0-13.1,1-19.7-.5-2.8-.6-2.6,1.8-2.5,4.1,0,3,1.9,7.5-2.1,8.6-5.2,1.4-11,3.8-16.3-.5-2-1.6-2.2-3.7-2.2-6,0-5.9,0-11.8,0-17.6,0-2.7-.5-5-3.5-5.5-3.4-.5-3.5,2.9-3.5,4.5,0,7.4-3.9,9.1-10.5,10.3-9.1,1.6-18.1,4.2-27.4,1.8-.9-.2-1.8-.8-2.7-1.2,1-1.7,2.7-2.5,4.5-2.6,8.7-.7,17.1-2.9,25.7-3.6,1.9,0,3.8.7,4.6.4-.3.2-1.7-.4-3-.3-25-5.9-47-17.8-66-34.9-3.2-2.8-6.7-4.6-10.7-5.6-23.6-5.7-47.5-7.8-71.9-5.8-14.2,1.2-28.3,2.6-42.1,6-2.1.5-4.5.6-6.8,2.9,5.7,4.1,11.5,7.5,17.5,10.7,25,13.3,50.9,24.4,79,29.6,3,1.1,5.8,1.2,7.4,3.8Z"/>
      <path class="st34" d="M1080.1,494c-.4-.8-.8-1.7-1.3-2.5,1.2-.5,1.9-1.4,2.4-2.6,1.2-3.3,2.2-1.7,3.6,0,3.7,4.6,3.5,10.6,5.9,15.7,2.8,5.9,7.6,7,12.3,2.4,1.7-1.7,3.4-3.5,4.9-5.4,4.1-5,8.4-5.4,12.6-.6,10.3,11.8,18.1,25.3,24.4,39.4,2.3,5.2,3.4,11.6,3.4,17.7s0,2.6,1.3,3.2c1.4.7,2.1-.7,2.9-1.5,9.2-9.7,19.1-18.8,30.8-25.3,7.9-4.3,15.9-8.8,24.8-11,6-1.4,7.9,1.8,8.9,7.7,2.1,13-1.7,25.2-2.7,37.8-.6,6.6-3.1,12.5-5.4,18.5-.7,1.8-1.5,3.8,0,5.1,2.2,1.8,2.9-1.1,4.3-2,11.6-7.5,23.1-15.3,37-18.2,4.5-.9,8.8,3.2,9.1,9,.6,13.4-.5,26.6-4.2,39.6-3.3,11.3-7.1,22.3-13.7,32.2-9.1,13.7-22.3,22.9-36.4,30.2-4.8,2.5-9.1,5-14.1,9.1,17.3,2,33.3,2.1,49.4.5,12-1.2,23.7,1.9,35.3,4.6,3.7.9,7.3,2.3,11.2,2.5,2.9.2,5.8.8,6.6,4.2.8,3.3-1,5.7-3.5,7.1-7.9,4.5-15.7,9.1-23.9,12.7-3.7,1.6-7.2,3.7-10.5,5.7-10,6.1-21,9.6-31.8,13.3s-21.7,7.5-33.2,9.2c-3.6.5-7.3,0-10.4-2.3,1.3-3.1,4.3-2.7,6.8-3.2,34.4-6.4,65.7-20.7,95.5-38.5.7-.4,1.4-.9,1.7-1.8-.6-1.8-2.5-1.7-4-2-37.2-9.1-74.6-10.3-112.2-2.1-6.5,1.4-11.9,4.2-17,8.8-17.3,15.8-38,25.4-60.3,31.8-1.7.5-3.6,1-5.4,0-2.1-2.1-1.1-4.2,0-6.4.9-1.4,2-2.5,3.4-3.4,14.2-5.4,28.2-11.5,41.2-19.6,20.1-12.5,37.1-28.2,49.4-48.6,9.7-16,13.4-33.8,14.5-52.3.2-2.9-1.1-3.6-3.6-3.1-14.1,2.5-27.6,6.8-39.9,14.3-2.5,1.5-3.8,3.5-3.8,6.4-.6,29.2-13.3,53.4-30.6,75.9-5.1,6.6-11.1,12.4-17.1,18.2-1.7,1.7-3.7,3.2-6.4,3.1-1.4-.4-2.1-1.4-2.3-2.8-.3-2,.2-3.8,1.5-5.4.8-.9,1.8-1.7,2.5-2.7,11.3-11.2,21.1-23.4,28.7-37.4,7.3-13.6,11.1-28.1,11.9-43.5.7-14.1-.8-27.9-4.8-41.4-1-3.3-1.9-6.6-3.3-9.8-4.1-9.8-4.5-9.9-12.8-3.2-1.9,1.5-3.8,3.1-5.9,4.3-1.7,1-3.5,2.5-5.3,0-.8-3.6,1.2-6.6,1.9-9.9.7-1.7,1.9-3.1,3.1-4.5,3.4-3.5,7.7-6,11.9-8.3,5.1-2.8,7.4-2.2,10.6,2.9,5.1,8.1,8.8,16.8,10.4,26.1,3.2-10.9,3.2-22.2,2.5-33.5-.4-6.6-2.5-12.7-5.3-18.6-5-10.7-11.5-20.5-18.4-30.1-4.5-6.2-5-6.1-9.9.2-1.8,2.4-3.3,5.2-6.2,6.6-12.9,0-18.2-4.4-20-16.4-.2-2.7-.3-5.2-3-6.3Z"/>
      <path class="st0" d="M1056.8,744.8c-10.6,1.7-21.1,3.3-31.7,4.9-10.5.7-21,2.3-31.4,1.8-10.3-.5-20.6.2-30.8-1.8-30-5.1-58.1-15.9-84.8-30.3-7.6-4.1-14.9-8.7-23.2-13.6,8.4-4.5,16.6-5.8,24.6-7.1,18.2-2.8,36.6-4.6,55-3.8,15.5.7,30.9,2.7,46.2,6.3,7.6,1.7,11.8,7.4,17.3,11.7,18,13.9,37.9,24.1,60,29.5.8,1.5-.5,1.8-1.2,2.4Z"/>
      <path class="st0" d="M1084.9,742.5c26.1-6.8,49.8-17.8,69.5-36.8,5.7-5.5,14.2-5.6,21.6-6.9,16.1-2.8,32.5-4.7,48.9-3.8,20.2,1,40.3,3.1,59.8,8.6,1.3.4,2.8.6,3.6,2.6-10.5,6.7-21.4,12.8-32.5,18.3-19.5,9.6-39.6,17.5-60.9,22-4.9,1-9.9,2.1-14.8,3.1h-1.2c-9.3,2.2-18.9,1.4-28.4,1.9-11.2.5-22.5-1.4-33.7-2.6-10.2-1.1-20.4-2.8-30.6-4.3-.6-.5-1.3-.8-1.5-1.7,0,.1,0-.2.2-.4Z"/>
      <path class="st0" d="M1059.2,735.2c-19.2-5.4-37-14.2-53.3-25.6-18.7-13.2-34.9-28.9-45.4-49.8-7.8-15.7-10.5-32.6-11.9-49.8-.2-2.9,1.5-2.9,3.5-2.5,15.1,2.5,29.5,7.2,42.9,14.6,2.7,1.5,4.7,3.2,4.6,7-.7,26.8,9.9,49.6,25.8,70.3,9.1,11.9,19.2,23,31.6,31.8,1.1.8,2.4,1.5,3.6,2.2-.4.6-.9,1.2-1.4,1.8Z"/>
      <path class="st0" d="M973.8,691.6c-48.4-14.4-73.1-35.9-82.8-80.9-2.1-9.9-2.9-19.9-1.4-30,.6-3.8,2.2-4.5,5.2-3.6,16.5,5.2,31.1,13.8,43,26.4,1.5,1.6,1.9,3.4,1.9,5.5,1,31.1,12.9,57.6,33.1,80.8.3.3.4.7,1,1.8Z"/>
      <path class="st0" d="M996.6,614.5c-15.8-8.6-31.7-14.7-49.2-15.9-3-.2-4-2.7-4.9-4.8-6-14.4-10.1-29.3-11.4-45-.6-6.4-1-12.9-1-19.3s1.1-4.3,4.5-2.9c20.2,8.1,38.1,19.7,53.2,35.3,2.5,2.6,3.3,5.4,2.7,9.3-1.8,12,.9,23.7,4.4,35.1.7,2.4,2.3,4.7,1.7,8.2Z"/>
      <path class="st0" d="M1038.5,682.7c2.4,5.7,4.9,11.4,7.3,17.1,2.1,2,3.1,4.6,3.7,7.4,1.3,3.2,2.5,6.3,4,10-2.7.2-4.1-1.3-5.4-2.6-16.3-16.2-30-34.2-36.2-56.7-7.7-27.8-4.3-54.8,7.6-80.9,1.6-3.6,3-4.6,6.6-1.6,6,5.1,12.5,9.6,18.8,14.3,2.4,1.7,3.3,3.3,1.6,6.5-7.9,14.2-12.3,29.3-12.8,45.6,0,3.4-.6,6.8-1,10.2,0,.9-.2,1.7-.6,2.5-1.4,2.5-3.7,4.2-5.6,6.4-5.2,5.9-4.3,10.3,2.9,13.6,1.7.8,3.4,1.3,4.9,2.2,2.9,1.1,3.9,3.3,4.2,6Z"/>
      <path class="st0" d="M999.6,562.1c-.2-14.7,6.8-26.9,14.1-38.8,3.7-6,8.1-11.6,12.2-17.4,2.9-4.1,5.6-3.9,8.3.2,3.3,4.9,6.6,9.7,9.9,14.6,1.1,1.7,1.8,3.7,4.3,3.7.6.8.7,1.7.2,2.5-4.5,1.7-5.1,5-3.9,9.2,2.3,8.4,5.2,16.4,9.5,24.1,1.9,3.5,5.1,7,2.9,11.7-1.2,1.4-2.4,2.7-3.5,4.1-5.3,6.6-5.3,6.7-11.8.7-4.9-4.5-10.4-8.3-16.1-11.8-6.4-4.1-7.3-3.7-11.2,2.9-4.8,8.2-7.5,17.3-10.7,27.6-2.7-8.1-4.5-15-4.1-22.4.8-3.6.8-7.2,0-10.9Z"/>
      <path class="st30" d="M1102.2,646.5c-1.1,8-3.9,15.5-6.6,22.8-3.3,8.7-3.3,17.8-4.5,26.7-.2,1.6,0,3.4-.6,4.8-1.2,2.4-1.5,6.5-4.4,6.6-2.6,0-1.7-4.1-2.8-6-2.4-4-5-7.9-7.8-11.6-2.5-3.4-.7-4.7,2.2-5.6,9.5-2.9,9.2-2.9,9.9-12.6.5-7.2,2.2-14.4,0-21.6-1.7-5.6-6.3-7.9-11.6-6-8.6,3.1-16.3,7.9-23.6,13.3-2.3,1.7-5,2-7.2,0s-1.5-4.4,0-6.6c1.4-2.1,3.2-3.5,5.4-4.8,4.5-2.7,8.9-5.6,13.3-8.5,2.1-1.4,4.1-3,4.6-5.5,2.5-11.3,5.7-22.6,2.7-34.4-1.1-4.1-1.7-8.3-2.6-12.4-.6-3,.4-5.5,2.9-6.6s4.4,1.3,5.3,3.1c5.6,11,12.4,21.4,16.4,33.4,3,8.8,5.2,17.8,8.3,26.5.4,1.5.4,3.4.7,5Z"/>
      <path class="st0" d="M1105.7,575.5c0,3.5-1.9,6.5-2.6,9.8-.3,1.6-.4,3.3-1.6,4.5-3.3,2.2-2.7,5.2-1.6,8.3,1.3,4.1.8,8.3,2,12.4,1,4,3.2,7.5,3.9,11.5.6,3.5-.2,7.2,1,10.6.4,1.7.5,3.3.5,5-.4,2.6.8,5.7-2.4,7.4-2.5-1.6,0-4.5-1.7-6.3-1-17.2-7.5-32.6-15.5-47.5-3.7-6.9-7.9-13.6-12.7-20-2.2-2.9-3.6-3.2-5.8,0-2,2.9-3.8,6.2-6.7,8.4-2.5-2.3-1.7-6.2-4.5-8,1-6.1-.3-12.1-.8-18.1.3-1,.9-1.6,1.9-1.7,3.7,1.2,5.5,4.6,8.3,6.9,3.4,2.7,6.2,1.8,7-2.4.8-3.9-.2-7.4-2.7-10.8-4.5-6-1.3-12.1,1.4-17.7,2.3-4.8,6.8-6,11.9-4.6,4.7,1.3,7.1,4.5,7.4,9.3,0,1.6,0,3.2,0,4.8,0,3.5-1.9,6.5-2.9,9.7-.8,2.2-1.7,4.4-2.1,6.7-3.1,8.3-1.7,15.4,4.8,21.8,2.8,2.7,4.8,3.8,8,1.1,1.6-1,3.2-2.7,5.5-1.1Z"/>
      <path class="st0" d="M1086.2,736.4c-.4,2-.9,4.1-1.3,6.1h0c-.9.8-.8,1.6,0,2.5-.9,3.3-.5,6.3,2.1,8.9,1.4,1.3,3.7,2.6,2.2,5-2,3.3-5.7,2.3-8.7,2.7-2.8.4-3.5-2.1-3.7-4-.7-6.2-1.3-12.5,1.3-18.6,2.5-5.8,2.4-5.8-3.4-6.8-.9-.2-1.7-1-2.4-1.7-13.6-13.8-23.4-29.8-27.7-48.9,1.6-.9,3.3-1,4.8,0,2.8,3,7,3.3,10.5,4.2,15.3,4.3,21.9,19.2,20.2,35.1-.2,1.4,0,2.8,0,5.5,5.2-6.6,9.4-12.5,12.2-19.3,1.7-.4,1.9.9,2.3,2,.2,1.1,0,2.3-.2,3.4-1,2.1-1.1,4.6-2.2,6.7-.9,1.5-1.5,3-1.3,4.8-1.4,1.6-.7,3.7-1.4,5.4-.2.5-.4,1-.7,1.5-1,1.7-3.6,2.6-2.6,5.4Z"/>
      <path class="st0" d="M1041,646.2c1.7-22.5,8.2-43.5,21.2-63.8,3.7,12.5,8,23.1,4.9,35.9-2.4,10.2-6.4,17.2-16.1,21.2-3.5,1.6-6.6,4.4-10,6.7h0Z"/>
      <path class="st0" d="M1083.7,670.6v1.8c-.2,9.7-4,12.1-12.9,7.6-8.2-4.2-16.2-8.8-24.5-13.3.2-1.9,1.9-2.7,3.4-3.6,7.8-4.7,15.6-9.4,23.4-14,6.5-3.9,7.9-3.3,10.5,4.5,0,5.6,0,11.3,0,17Z"/>
      <path class="st17" d="M1093.4,713.2c0-1.2,0-2.4.2-3.6,1.3-1.7-.3-3.3,0-5,.5-3.6-1.2-7.5,1.1-10.9,1.9,2,1.4,3.9.6,5.1,3.8-10.8,6.5-22.9,8.1-35.1,1-2.9,1.6-5.9,1.1-9-1.8-5.2-1-10.5-1.2-15.8,2,1.7.9,4,1.3,6,1.4,1.7.6,3.3,0,5,1.3-4,2.6-8,1.1-12.3,0-1.6,0-3.2,0-4.8-1.5-3.6.4-7.5-1.2-11-1.2-3.7-3.5-6.9-3.7-10.9-.4-3-1.8-6.1.9-8.8,2.8,1.3,3.3,4,4.2,6.4,10.7,30,9.1,59.8-2.1,89.2-2.2,5.8-3.7,12.1-8.3,16.7-1.3.4-2.2.4-2-1.2Z"/>
      <path class="st0" d="M1048.3,526.9c0-.8,0-1.7,0-2.5,4.6-3.8,10-6.7,15.4-8.1,12.1-3.1,15.2-11.8,16.3-22.4,1.3-.7,2.7-4.7,3.7.2.2.8.6,1.6.6,2.3-1,13.5,8.2,17.3,18.9,19.4,0,.3.2.6.3.8-2.3,6.3-4,7.1-9.5,4.6-1.5-.6-2.9-1.4-4.3-2-5.7-4-10.8-2.7-16.5.8-7.3,4.5-13.4,10.2-19.9,15.6-1.3.2-2.3-.5-3.2-1.4-1.3-2.2-3.6-4.2-1.9-7.3Z"/>
      <path class="st34" d="M1048.3,526.9c.8,2.4,1.7,4.8,2.5,7.2,3.7,3.5,4.1,8.7,6.7,12.9.2.5.4,1.1.6,1.6.7,1.7-.7,3.3,0,5,1.3,6.1,4.1,12.2,0,18.3h-1c-.4-4.1-2.2-7.6-4.3-11.1-5-8.3-7.9-17.5-10.2-26.9-1.4-5.5.4-7.4,5.8-7Z"/>
      <path class="st0" d="M1038.5,682.7c-1-2.2-2.7-3.7-4.8-4.8.8-1.9,1.2-3.8.6-5.9-1.7-6-2-12.3-3-18.4.4-.5.9-1,1.3-1.4,3.9-.5,5.2-4.5,8.4-6h0c-.3,11.5.2,23,3.7,34.1-.8.7-1.6.7-2.4,0-1.9-.2-3.6-.2-3.8,2.3Z"/>
      <path class="st21" d="M1104.5,663.3c-.6,12.8-3.4,25-9.6,36.6,0-2.1-.2-4.1-.3-6.2,2.1-11.9,5.2-23.6,8.6-35.3,3.3.9,1.6,3.1,1.3,4.9Z"/>
      <path class="st33" d="M1083.7,670.6c-2-5.7-2-11.4,0-17.1,1.8,5.7,1.7,11.4,0,17.1Z"/>
      <path class="st17" d="M1049.5,707.3c-1.9-2.1-3-4.7-3.7-7.4,4,1,5.5,3.3,3.7,7.4Z"/>
      <path class="st30" d="M1049.1,674.4c1.3.3,2.5.8,2.3,2.3,0,1-1,1.1-1.8,1-1.1-.2-1.9-.8-2-1.9-.2-1.1.8-1.3,1.5-1.4Z"/>
      <path class="st32" d="M999.6,562.1c1.9,3.7,1.9,7.3,0,10.9v-10.9Z"/>
      <path class="st25" d="M1104.5,663.3c-.3-1.7.6-3.6-1.3-4.8.4-1.2.8-2.5,1.2-3.7,2,2.8,1.8,5.6.1,8.5Z"/>
      <path class="st29" d="M1056.8,744.8c.4-.8.8-1.6,1.2-2.3,1.5,0,2.7.6,4.8,2.3h-6Z"/>
      <path class="st17" d="M1042.2,680.4c.8,0,1.6,0,2.4,0,1.7.2,3.6-.6,4.8,1.3-1.6,0-3.2,0-4.8,0-.9,0-1.8-.1-2.4-1.1Z"/>
      <path class="st19" d="M1093.4,704.6c1.7,1.6,1.6,3.3,0,5,0-1-.2-1.9-1.2-2.4-.1-1,.2-2,1.1-2.6Z"/>
      <path class="st17" d="M1054.9,717.6c.9,1.6,1.4,2.2,1.5,2.9,0,.2-.8.9-1.1.9-.8,0-1.4-.6-1.3-1.6,0-.6.4-1.1.9-2.2Z"/>
      <path class="st9" d="M1084.9,744.9c-1-.3-2.6.6-2.6-1s1.6-1.3,2.7-1.5c.4.8.8,1.6,1.2,2.4-.5,0-.9,0-1.3,0Z"/>
      <path class="st0" d="M1092.3,726.7c11.3-7.6,19.7-18,27.6-28.8,12.6-17.3,21.1-36.4,24.4-57.6.3-1.8.6-3.7.2-5.4-1.7-8.4,2.9-12.3,9.8-15.5,11.8-5.6,24.1-9.4,36.9-11.9,2.2-.4,4.9-.7,4.5,2.9-1.8,17.1-4.1,34.1-12.2,49.7-12.3,23.5-30.8,41-53.1,54.7-13.1,8.1-26.9,15.1-41.9,19.2-1.1-1.2-.9-2.4,0-3.7h0c1.1-1.5,1.8-3.2,3.8-3.6Z"/>
      <path class="st0" d="M1171.7,690.4c2.6-3.8,5.2-7.5,7.9-11.2,15-20.8,24.5-43.6,24.9-69.7,0-3.1,1.4-5.4,3.4-7.5,11.4-12.2,25.5-19.7,41.3-24.6,4.3-1.3,5.1,0,5.5,4.1,2.6,24.6-4,46.8-16.4,67.6-6.7,11.2-17,18.9-27.9,25.7s-22.6,11.8-34.8,15.8c-1.2.4-2.3.9-3.9-.2Z"/>
      <path class="st0" d="M1145.8,615.5c6.2-14.1,9.9-27.3,8.3-40.8-1-8.4,2.6-13.3,7.9-18.1,14-12.8,29.8-22.9,47.5-29.9,3.6-1.4,4.7-.7,4.8,3.1.3,22.3-3.4,43.8-12.8,64.2-1.5,3.3-3.5,4.5-7.3,4.9-15.6,1.9-30.4,6.4-44.1,14.5-.8.4-1.7.8-4.3,2.1Z"/>
      <path class="st0" d="M1094.6,714.4c10.2-19.9,16.4-41.1,16.8-63.4.2-14.1-1.8-28.2-7.1-41.6-.9-2.2-1.6-4.6-2.4-6.9-2.3-2.6-1.4-5.8-1.6-8.8-.3-1.6,1.2-3.1.4-4.8.8-1.2,1.5-2.4,2.3-3.5,5.1.3,7.6-3.9,10.8-6.5,8.6-6.9,9.1-7.3,13,2.7,13.1,33.6,14,66.9-3.7,99.6-7.5,13.9-17.6,25.7-28.5,36.9-2.3-1.1-2.3-1.2,0-3.7Z"/>
      <path class="st0" d="M1103.2,515.8c3-4.1,6-8.1,9.1-12.1,1.1-1.4,2.3-2.9,4.2-.4,11.3,15.3,23.2,30.4,27.1,49.5,2.9,14.2,2.1,28.4-3.2,43.2-2.7-10-5.3-19-10.1-27.2-4.5-7.9-5.4-8.2-12.9-3.4-3.2,2.1-6.3,4.3-9.5,6.5-3.1-1.7-.9-3.8-.2-5.5,3.6-9.2,8.5-17.9,10.6-27.7,0-.4.2-.8.3-1.2,3.3-11.8,2.6-13.1-8.6-17.6-2.4-.9-5.5-1.1-6.8-4.1h0Z"/>
      <path class="st34" d="M1103.2,515.8c5.4,2.3,10.8,4.6,16.1,6.9,2.9,1.2,3.4,3.1,3,6.3-2,13.8-7.9,26.2-13.4,38.8-.6,1.3-2.4,2.5-.9,4.3.2,1.8-1.7,2.2-2.4,3.5-.8.2-1.7.2-2.3.7-8.3,5.6-7.8,5.2-14.4-2.1-6-6.6-5-13.3-2.8-20.5,1.9-.5,2.4,1.2,3.3,2.1,4.8,5.8,5.6,5.6,10.5,0,5-5.5,7.3-12,9.3-18.8,1.4-4.7-3.2-11-8.1-11.3-1.8,0-2.5,1-3.2,2.3-1.1,1.9-1.8,4.1-3.2,5.9-2.2,2.9-3.1,1-3.9-1.1.2-4.5-2.5-6.8-6.2-8.4-4.3-6.8,3.1-4.3,4.9-6.2,1.1.4,2.4.5,3.3,1.1,5.5,3.7,8.5,1.8,10.4-3.6Z"/>
      <path class="st15" d="M1088.6,730.3v3.7c-.8.8-1.6,1.6-2.4,2.5-4.1-4.1.9-4.4,2.4-6.2Z"/>
      <path class="st16" d="M1092.3,726.7c-.9,1.5-2.1,2.7-3.7,3.5,0-2.3-.4-4.8,2.4-6.1,0,1.1.3,2.1,1.3,2.6Z"/>
      <path class="st24" d="M1094.6,714.4c0,1.2-2,2.4,0,3.7-.5,1-1.4,1.3-2.3,1.3-1.1-2.3-.4-4.3,1.1-6.2.4.4.8.8,1.2,1.2Z"/>
      <path class="st34" d="M1031.3,653.6c1.5.5,2.3,1.7,2.3,3.2-.2,6.1,1.4,11.9,2.9,17.6.8,3.1-.3,3.5-2.8,3.4-15.5-6.2-16.2-9.8-4.3-21.9.7-.7,1.2-1.5,1.9-2.3Z"/>
      <path class="st1" d="M1089.8,518.2c.5,1.5,1.3,4-1.5,2.7-5.3-2.5-2.9,1.7-3.4,3.4-9.2,0-17.5,11.1-13.1,18.5,2.4,4,4.9,7.3,4.7,12.2,0,3.3-1,5.7-4.2,7.3s-4.6-1.4-6.4-2.9c-2.4-2.1-4.5-4.7-6.7-7-1.7-.7-1.5-2.6-2.4-3.8v-1.2c-1.4-4-4.1-7.6-3.7-12.2,6.7-9.9,17.1-15.1,27.1-20.5,3.4-1.7,6.4,2.2,9.6,3.5Z"/>
      <path class="st0" d="M1091.1,532.8c.9,0,1.1,2.7,2.6.8.5-.6.7-1.4,1.1-2.1,5.2-9.8,5.1-9.7,13.8-3.2,3.1,2.3,3.8,4.8,2.6,8.4-2.5,7.7-5.2,15.1-10.7,21.4-5.2,6-8.1,5.8-12-2-1.1-2.3-1-4.7,0-7,.3-3.9,5.3-6.7,2.5-11.3,0-1.7,0-3.3,0-5Z"/>
      <path class="st14" d="M1102,592.6v9.9c-2.5,2.5-.7,5.6-1.2,8.3-2.1-4.2-.9-9.1-2.4-13.4,2.2-.8,0-5,3.6-4.8Z"/>
      <path class="st7" d="M1102,592.6c-2.9.4,1.3,6-3.7,4.9-2.8-3.9-1-6.4,2.4-8.6,1.6.8,1.2,2.3,1.3,3.7Z"/>
      <path class="st26" d="M1091,537.8c3.6.7,2.5,2.9,1.5,5-.9,2-1.9,3.9-2.9,5.9-1.1.2-1.7,0-1.2-1.3,1-3.2,1.8-6.4,2.6-9.6Z"/>
      <path class="st14" d="M1105.7,637.6c2.3,4.1,1,8.1-1.2,12.2v-4.8c2.1-2.2.7-5,1.2-7.4Z"/>
      <path class="st8" d="M1088.5,547.4c.4.4.8.8,1.2,1.3-1.3,2.3-1.1,4.8-1.2,7.4-.8-.8-1.5-1.6-2.3-2.4.4-2.3.8-4.5,2.3-6.3Z"/>
      <path class="st14" d="M1104.5,621.7c2.3,3.5.7,7.4,1.2,11-2.5-3.4-.8-7.3-1.2-11Z"/>
      <path class="st28" d="M1056.9,548.7c.8,1.3,1.6,2.5,2.4,3.8-.4.4-.8.8-1.2,1.1-1.8-1.3-1.1-3.2-1.2-4.9Z"/>
      <path class="st20" d="M1053.2,535.3c.8,4.2,3.8,7.7,3.7,12.2-4.1-3.6-3.9-9-6.1-13.4l2.4,1.2Z"/>
    </g>
  </g>
</svg>