<?xml version="1.0" encoding="utf-8"?>
<!-- Generator: Adobe Illustrator 24.1.0, SVG Export Plug-In . SVG Version: 6.00 Build 0)  -->
<svg version="1.1" id="Calque_1" xmlns="http://www.w3.org/2000/svg" xmlns:xlink="http://www.w3.org/1999/xlink" x="0px" y="0px"
	 viewBox="0 0 1920 1155" style="enable-background:new 0 0 1920 1155;" xml:space="preserve">
<style type="text/css">
	.st0{fill:#C3BED0;}
	.st1{fill:none;stroke:#707070;}
	.st2{fill:#D1D3E4;}
	.st3{fill:#FEF8F2;}
	.st4{fill:#F2E6E9;}
	.st5{fill:#464E9F;}
	.st6{fill:none;stroke:#FFFFFF;stroke-miterlimit:10;}
	.st7{fill:#F2E6E9;stroke:#FFFFFF;stroke-miterlimit:10;}
	.st8{fill:#FFFFFF;}
	.st9{fill:#CACBE0;}
	.st10{fill:#CBCCE0;}
	.st11{fill:#C6C7DD;}
	.st12{fill:#C5C7DD;}
	.st13{fill:#E4E4EF;}
	.st14{fill:#DADBE9;}
	.st15{fill:#CCCDE1;}
</style>
<g id="Groupe_1">
	<g id="Rectangle_1">
		<rect x="-290" y="448.7" class="st0" width="224" height="81.4"/>
		<rect x="-289.7" y="449" class="st1" width="223.3" height="80.8"/>
	</g>
	<g id="Rectangle_2">
		<rect x="-290" y="602.4" class="st2" width="224" height="81.4"/>
		<rect x="-289.7" y="602.7" class="st1" width="223.3" height="80.8"/>
	</g>
	<g id="Rectangle_3">
		<rect x="-290" y="881.6" class="st3" width="224" height="81.4"/>
		<rect x="-289.7" y="881.9" class="st1" width="223.3" height="80.8"/>
	</g>
	<g id="Rectangle_4">
		<rect x="-290" y="747.1" class="st4" width="224" height="81.4"/>
		<rect x="-289.7" y="747.3" class="st1" width="223.3" height="80.8"/>
	</g>
	<g id="Rectangle_5">
		<rect x="-290" y="295" class="st5" width="224" height="81.4"/>
		<rect x="-289.7" y="295.3" class="st1" width="223.3" height="80.8"/>
	</g>
</g>
<path class="st6" d="M1128.5,216.8c-156.8,0-283.7,127-283.7,283.7s127,283.7,283.7,283.7s283.7-127,283.7-283.7
	S1285.3,216.8,1128.5,216.8z"/>
<path class="st7" d="M1134.2,238.4c-149.7,0-270.6,121.2-270.6,270.6s120.9,270.9,270.6,270.9s270.6-121.2,270.6-270.6
	S1283.6,238.4,1134.2,238.4z"/>
<path class="st6" d="M1125.4,226.6C969.7,226.6,844,352.7,844,508S970,789.4,1125.4,789.4c155.3,0,281.4-126.1,281.4-281.4
	S1280.7,226.6,1125.4,226.6z"/>
<circle class="st8" cx="1289" cy="208.1" r="8.6"/>
<circle class="st8" cx="1422.4" cy="356.5" r="8.6"/>
<circle class="st9" cx="1390.4" cy="471.7" r="5.8"/>
<circle class="st9" cx="1378.6" cy="451.9" r="5.8"/>
<circle class="st8" cx="1446.4" cy="409.6" r="3.5"/>
<circle class="st8" cx="1437.1" cy="385.3" r="5.8"/>
<circle class="st8" cx="1442.9" cy="465.9" r="3.5"/>
<circle class="st9" cx="1393.6" cy="535" r="3.5"/>
<circle class="st8" cx="1442.9" cy="535" r="5.8"/>
<circle class="st8" cx="1442.9" cy="559.3" r="5.8"/>
<circle class="st8" cx="1431" cy="572.4" r="3.5"/>
<circle class="st9" cx="1322.9" cy="672.2" r="8.6"/>
<circle class="st9" cx="1350.4" cy="651.8" r="5.8"/>
<circle class="st8" cx="1362.3" cy="706.8" r="5.8"/>
<circle class="st8" cx="1346.9" cy="723.1" r="5.8"/>
<circle class="st8" cx="1331.9" cy="738.4" r="5.8"/>
<circle class="st8" cx="1205.5" cy="799.2" r="5.8"/>
<circle class="st8" cx="1227.6" cy="789.9" r="5.8"/>
<circle class="st8" cx="1353" cy="741.9" r="5.8"/>
<circle class="st8" cx="1241.7" cy="793.4" r="3.5"/>
<circle class="st8" cx="1238.2" cy="778.1" r="3.5"/>
<circle class="st9" cx="1303.7" cy="686.9" r="3.5"/>
<circle class="st8" cx="1314.3" cy="747.7" r="3.5"/>
<circle class="st9" cx="1269.8" cy="298.6" r="5.8"/>
<circle class="st9" cx="1289.7" cy="304.4" r="3.5"/>
<circle class="st9" cx="1282.6" cy="316.2" r="3.5"/>
<circle class="st9" cx="1137.7" cy="255.5" r="3.5"/>
<circle class="st8" cx="1088.5" cy="195.7" r="5.8"/>
<circle class="st8" cx="1070.9" cy="186.4" r="3.5"/>
<circle class="st8" cx="1067.4" cy="199.2" r="3.5"/>
<circle class="st8" cx="1031.2" cy="216.8" r="3.5"/>
<circle class="st8" cx="939.4" cy="258.3" r="8.6"/>
<circle class="st8" cx="961.2" cy="241.4" r="5.8"/>
<circle class="st9" cx="942.3" cy="338.3" r="5.8"/>
<circle class="st8" cx="913.2" cy="252" r="5.8"/>
<circle class="st8" cx="874.5" cy="344.4" r="3.5"/>
<circle class="st9" cx="936.6" cy="355.9" r="5.8"/>
<circle class="st9" cx="955.1" cy="350.1" r="3.5"/>
<circle class="st9" cx="895" cy="459.5" r="8.6"/>
<circle class="st9" cx="886.3" cy="483.5" r="5.8"/>
<circle class="st9" cx="907.1" cy="478.7" r="3.5"/>
<circle class="st8" cx="816" cy="503.3" r="5.8"/>
<circle class="st8" cx="822.1" cy="579.1" r="3.5"/>
<circle class="st9" cx="894.3" cy="582.7" r="5.8"/>
<circle class="st8" cx="835.5" cy="605.7" r="8.6"/>
<circle class="st9" cx="936.6" cy="669.3" r="5.8"/>
<circle class="st9" cx="951.6" cy="690.5" r="5.8"/>
<circle class="st8" cx="900.4" cy="706.8" r="5.8"/>
<ellipse transform="matrix(0.9951 -9.853781e-02 9.853781e-02 0.9951 -63.7111 90.9188)" class="st8" cx="888.6" cy="690.5" rx="3.5" ry="3.5"/>
<circle class="st8" cx="917.7" cy="723.1" r="3.5"/>
<circle class="st9" cx="1091.4" cy="756.3" r="8.6"/>
<circle class="st9" cx="1116.6" cy="765.3" r="5.8"/>
<circle class="st8" cx="1100.3" cy="799.2" r="5.8"/>
<g>
	<path class="st9" d="M1126.9,606.3c-10.6,1.7-21.1,3.3-31.7,4.9c-10.5,0.7-21,2.3-31.4,1.8c-10.3-0.5-20.6,0.2-30.8-1.8
		c-30-5.1-58.1-15.9-84.8-30.3c-7.6-4.1-14.9-8.7-23.2-13.6c8.4-4.5,16.6-5.8,24.6-7.1c18.2-2.8,36.6-4.6,55-3.8
		c15.5,0.7,30.9,2.7,46.2,6.3c7.6,1.7,11.8,7.4,17.3,11.7c18,13.9,37.9,24.1,60,29.5C1128.9,605.4,1127.6,605.7,1126.9,606.3
		L1126.9,606.3z"/>
	<path class="st9" d="M1155,604c26.1-6.8,49.8-17.8,69.5-36.8c5.7-5.5,14.2-5.6,21.6-6.9c16.1-2.8,32.5-4.7,48.9-3.8
		c20.2,1,40.3,3.1,59.8,8.6c1.3,0.4,2.8,0.6,3.6,2.6c-10.5,6.7-21.4,12.8-32.5,18.3c-19.5,9.6-39.6,17.5-60.9,22
		c-4.9,1-9.9,2.1-14.8,3.1h-1.2c-9.3,2.2-18.9,1.4-28.4,1.9c-11.2,0.5-22.5-1.4-33.7-2.6c-10.2-1.1-20.4-2.8-30.6-4.3
		c-0.6-0.5-1.3-0.8-1.5-1.7C1154.8,604.5,1154.8,604.2,1155,604L1155,604z"/>
	<path class="st9" d="M1129.3,596.7c-19.2-5.4-37-14.2-53.3-25.6c-18.7-13.2-34.9-28.9-45.4-49.8c-7.8-15.7-10.5-32.6-11.9-49.8
		c-0.2-2.9,1.5-2.9,3.5-2.5c15.1,2.5,29.5,7.2,42.9,14.6c2.7,1.5,4.7,3.2,4.6,7c-0.7,26.8,9.9,49.6,25.8,70.3
		c9.1,11.9,19.2,23,31.6,31.8c1.1,0.8,2.4,1.5,3.6,2.2C1130.3,595.5,1129.8,596.1,1129.3,596.7L1129.3,596.7z"/>
	<path class="st9" d="M1043.9,553.1c-48.4-14.4-73.1-35.9-82.8-80.9c-2.1-9.9-2.9-19.9-1.4-30c0.6-3.8,2.2-4.5,5.2-3.6
		c16.5,5.2,31.1,13.8,43,26.4c1.5,1.6,1.9,3.4,1.9,5.5c1,31.1,12.9,57.6,33.1,80.8C1043.2,551.6,1043.3,552,1043.9,553.1z"/>
	<path class="st9" d="M1066.7,476c-15.8-8.6-31.7-14.7-49.2-15.9c-3-0.2-4-2.7-4.9-4.8c-6-14.4-10.1-29.3-11.4-45
		c-0.6-6.4-1-12.9-1-19.3s1.1-4.3,4.5-2.9c20.2,8.1,38.1,19.7,53.2,35.3c2.5,2.6,3.3,5.4,2.7,9.3c-1.8,12,0.9,23.7,4.4,35.1
		C1065.7,470.2,1067.3,472.5,1066.7,476L1066.7,476z"/>
	<path class="st9" d="M1108.6,544.2c2.4,5.7,4.9,11.4,7.3,17.1c2.1,2,3.1,4.6,3.7,7.4c1.3,3.2,2.5,6.3,4,10
		c-2.7,0.2-4.1-1.3-5.4-2.6c-16.3-16.2-30-34.2-36.2-56.7c-7.7-27.8-4.3-54.8,7.6-80.9c1.6-3.6,3-4.6,6.6-1.6
		c6,5.1,12.5,9.6,18.8,14.3c2.4,1.7,3.3,3.3,1.6,6.5c-7.9,14.2-12.3,29.3-12.8,45.6c0,3.4-0.6,6.8-1,10.2c0,0.9-0.2,1.7-0.6,2.5
		c-1.4,2.5-3.7,4.2-5.6,6.4c-5.2,5.9-4.3,10.3,2.9,13.6c1.7,0.8,3.4,1.3,4.9,2.2C1107.3,539.3,1108.3,541.5,1108.6,544.2z"/>
	<path class="st9" d="M1069.7,423.6c-0.2-14.7,6.8-26.9,14.1-38.8c3.7-6,8.1-11.6,12.2-17.4c2.9-4.1,5.6-3.9,8.3,0.2
		c3.3,4.9,6.6,9.7,9.9,14.6c1.1,1.7,1.8,3.7,4.3,3.7c0.6,0.8,0.7,1.7,0.2,2.5c-4.5,1.7-5.1,5-3.9,9.2c2.3,8.4,5.2,16.4,9.5,24.1
		c1.9,3.5,5.1,7,2.9,11.7c-1.2,1.4-2.4,2.7-3.5,4.1c-5.3,6.6-5.3,6.7-11.8,0.7c-4.9-4.5-10.4-8.3-16.1-11.8
		c-6.4-4.1-7.3-3.7-11.2,2.9c-4.8,8.2-7.5,17.3-10.7,27.6c-2.7-8.1-4.5-15-4.1-22.4C1070.6,430.9,1070.6,427.3,1069.7,423.6
		L1069.7,423.6z"/>
	<path class="st9" d="M1175.8,437c0,3.5-1.9,6.5-2.6,9.8c-0.3,1.6-0.4,3.3-1.6,4.5c-3.3,2.2-2.7,5.2-1.6,8.3c1.3,4.1,0.8,8.3,2,12.4
		c1,4,3.2,7.5,3.9,11.5c0.6,3.5-0.2,7.2,1,10.6c0.4,1.7,0.5,3.3,0.5,5c-0.4,2.6,0.8,5.7-2.4,7.4c-2.5-1.6,0-4.5-1.7-6.3
		c-1-17.2-7.5-32.6-15.5-47.5c-3.7-6.9-7.9-13.6-12.7-20c-2.2-2.9-3.6-3.2-5.8,0c-2,2.9-3.8,6.2-6.7,8.4c-2.5-2.3-1.7-6.2-4.5-8
		c1-6.1-0.3-12.1-0.8-18.1c0.3-1,0.9-1.6,1.9-1.7c3.7,1.2,5.5,4.6,8.3,6.9c3.4,2.7,6.2,1.8,7-2.4c0.8-3.9-0.2-7.4-2.7-10.8
		c-4.5-6-1.3-12.1,1.4-17.7c2.3-4.8,6.8-6,11.9-4.6c4.7,1.3,7.1,4.5,7.4,9.3c0,1.6,0,3.2,0,4.8c0,3.5-1.9,6.5-2.9,9.7
		c-0.8,2.2-1.7,4.4-2.1,6.7c-3.1,8.3-1.7,15.4,4.8,21.8c2.8,2.7,4.8,3.8,8,1.1C1171.9,437.1,1173.5,435.4,1175.8,437L1175.8,437z"/>
	<path class="st9" d="M1156.3,597.9c-0.4,2-0.9,4.1-1.3,6.1l0,0c-0.9,0.8-0.8,1.6,0,2.5c-0.9,3.3-0.5,6.3,2.1,8.9
		c1.4,1.3,3.7,2.6,2.2,5c-2,3.3-5.7,2.3-8.7,2.7c-2.8,0.4-3.5-2.1-3.7-4c-0.7-6.2-1.3-12.5,1.3-18.6c2.5-5.8,2.4-5.8-3.4-6.8
		c-0.9-0.2-1.7-1-2.4-1.7c-13.6-13.8-23.4-29.8-27.7-48.9c1.6-0.9,3.3-1,4.8,0c2.8,3,7,3.3,10.5,4.2c15.3,4.3,21.9,19.2,20.2,35.1
		c-0.2,1.4,0,2.8,0,5.5c5.2-6.6,9.4-12.5,12.2-19.3c1.7-0.4,1.9,0.9,2.3,2c0.2,1.1,0,2.3-0.2,3.4c-1,2.1-1.1,4.6-2.2,6.7
		c-0.9,1.5-1.5,3-1.3,4.8c-1.4,1.6-0.7,3.7-1.4,5.4c-0.2,0.5-0.4,1-0.7,1.5C1157.9,594.1,1155.3,595,1156.3,597.9L1156.3,597.9z"/>
	<path class="st9" d="M1111.1,507.7c1.7-22.5,8.2-43.5,21.2-63.8c3.7,12.5,8,23.1,4.9,35.9c-2.4,10.2-6.4,17.2-16.1,21.2
		C1117.6,502.6,1114.5,505.4,1111.1,507.7L1111.1,507.7L1111.1,507.7z"/>
	<path class="st9" d="M1153.8,532.1v1.8c-0.2,9.7-4,12.1-12.9,7.6c-8.2-4.2-16.2-8.8-24.5-13.3c0.2-1.9,1.9-2.7,3.4-3.6
		c7.8-4.7,15.6-9.4,23.4-14c6.5-3.9,7.9-3.3,10.5,4.5C1153.7,520.7,1153.7,526.4,1153.8,532.1L1153.8,532.1z"/>
	<path class="st9" d="M1118.4,388.4c0-0.8,0-1.7,0-2.5c4.6-3.8,10-6.7,15.4-8.1c12.1-3.1,15.2-11.8,16.3-22.4
		c1.3-0.7,2.7-4.7,3.7,0.2c0.2,0.8,0.6,1.6,0.6,2.3c-1,13.5,8.2,17.3,18.9,19.4c0,0.3,0.2,0.6,0.3,0.8c-2.3,6.3-4,7.1-9.5,4.6
		c-1.5-0.6-2.9-1.4-4.3-2c-5.7-4-10.8-2.7-16.5,0.8c-7.3,4.5-13.4,10.2-19.9,15.6c-1.3,0.2-2.3-0.5-3.2-1.4
		C1118.9,393.5,1116.6,391.5,1118.4,388.4L1118.4,388.4z"/>
	<path class="st9" d="M1108.6,544.2c-1-2.2-2.7-3.7-4.8-4.8c0.8-1.9,1.2-3.8,0.6-5.9c-1.7-6-2-12.3-3-18.4c0.4-0.5,0.9-1,1.3-1.4
		c3.9-0.5,5.2-4.5,8.4-6l0,0c-0.3,11.5,0.2,23,3.7,34.1c-0.8,0.7-1.6,0.7-2.4,0c-1.9-0.2-3.6-0.2-3.8,2.3L1108.6,544.2z"/>
	<path class="st10" d="M1174.6,524.8c-0.6,12.8-3.4,25-9.6,36.6c0-2.1-0.2-4.1-0.3-6.2c2.1-11.9,5.2-23.6,8.6-35.3
		C1176.6,520.8,1174.9,523,1174.6,524.8z"/>
	<path class="st11" d="M1153.8,532.1c-2-5.7-2-11.4,0-17.1C1155.6,520.7,1155.5,526.4,1153.8,532.1z"/>
	<path class="st12" d="M1069.7,423.6c1.9,3.7,1.9,7.3,0,10.9V423.6z"/>
	<path class="st13" d="M1174.6,524.8c-0.3-1.7,0.6-3.6-1.3-4.8c0.4-1.2,0.8-2.5,1.2-3.7C1176.5,519.1,1176.3,521.9,1174.6,524.8
		L1174.6,524.8z"/>
	<path class="st14" d="M1126.9,606.3c0.4-0.8,0.8-1.6,1.2-2.3c1.5,0,2.7,0.6,4.8,2.3H1126.9z"/>
	<path class="st9" d="M1162.4,588.2c11.3-7.6,19.7-18,27.6-28.8c12.6-17.3,21.1-36.4,24.4-57.6c0.3-1.8,0.6-3.7,0.2-5.4
		c-1.7-8.4,2.9-12.3,9.8-15.5c11.8-5.6,24.1-9.4,36.9-11.9c2.2-0.4,4.9-0.7,4.5,2.9c-1.8,17.1-4.1,34.1-12.2,49.7
		c-12.3,23.5-30.8,41-53.1,54.7c-13.1,8.1-26.9,15.1-41.9,19.2c-1.1-1.2-0.9-2.4,0-3.7l0,0C1159.7,590.3,1160.4,588.6,1162.4,588.2
		L1162.4,588.2z"/>
	<path class="st9" d="M1241.8,551.9c2.6-3.8,5.2-7.5,7.9-11.2c15-20.8,24.5-43.6,24.9-69.7c0-3.1,1.4-5.4,3.4-7.5
		c11.4-12.2,25.5-19.7,41.3-24.6c4.3-1.3,5.1,0,5.5,4.1c2.6,24.6-4,46.8-16.4,67.6c-6.7,11.2-17,18.9-27.9,25.7
		s-22.6,11.8-34.8,15.8C1244.5,552.5,1243.4,553,1241.8,551.9L1241.8,551.9z"/>
	<path class="st9" d="M1215.9,477c6.2-14.1,9.9-27.3,8.3-40.8c-1-8.4,2.6-13.3,7.9-18.1c14-12.8,29.8-22.9,47.5-29.9
		c3.6-1.4,4.7-0.7,4.8,3.1c0.3,22.3-3.4,43.8-12.8,64.2c-1.5,3.3-3.5,4.5-7.3,4.9c-15.6,1.9-30.4,6.4-44.1,14.5
		C1219.4,475.3,1218.5,475.7,1215.9,477z"/>
	<path class="st9" d="M1164.7,575.9c10.2-19.9,16.4-41.1,16.8-63.4c0.2-14.1-1.8-28.2-7.1-41.6c-0.9-2.2-1.6-4.6-2.4-6.9
		c-2.3-2.6-1.4-5.8-1.6-8.8c-0.3-1.6,1.2-3.1,0.4-4.8c0.8-1.2,1.5-2.4,2.3-3.5c5.1,0.3,7.6-3.9,10.8-6.5c8.6-6.9,9.1-7.3,13,2.7
		c13.1,33.6,14,66.9-3.7,99.6c-7.5,13.9-17.6,25.7-28.5,36.9C1162.4,578.5,1162.4,578.4,1164.7,575.9L1164.7,575.9z"/>
	<path class="st9" d="M1173.3,377.3c3-4.1,6-8.1,9.1-12.1c1.1-1.4,2.3-2.9,4.2-0.4c11.3,15.3,23.2,30.4,27.1,49.5
		c2.9,14.2,2.1,28.4-3.2,43.2c-2.7-10-5.3-19-10.1-27.2c-4.5-7.9-5.4-8.2-12.9-3.4c-3.2,2.1-6.3,4.3-9.5,6.5
		c-3.1-1.7-0.9-3.8-0.2-5.5c3.6-9.2,8.5-17.9,10.6-27.7c0-0.4,0.2-0.8,0.3-1.2c3.3-11.8,2.6-13.1-8.6-17.6
		C1177.7,380.5,1174.6,380.3,1173.3,377.3L1173.3,377.3z"/>
	<path class="st9" d="M1161.2,394.3c0.9,0,1.1,2.7,2.6,0.8c0.5-0.6,0.7-1.4,1.1-2.1c5.2-9.8,5.1-9.7,13.8-3.2
		c3.1,2.3,3.8,4.8,2.6,8.4c-2.5,7.7-5.2,15.1-10.7,21.4c-5.2,6-8.1,5.8-12-2c-1.1-2.3-1-4.7,0-7c0.3-3.9,5.3-6.7,2.5-11.3
		C1161.1,397.6,1161.1,396,1161.2,394.3L1161.2,394.3z"/>
	<path class="st15" d="M1172.1,454.1v9.9c-2.5,2.5-0.7,5.6-1.2,8.3c-2.1-4.2-0.9-9.1-2.4-13.4
		C1170.7,458.1,1168.5,453.9,1172.1,454.1z"/>
	<path class="st15" d="M1175.8,499.1c2.3,4.1,1,8.1-1.2,12.2v-4.8C1176.7,504.3,1175.3,501.5,1175.8,499.1z"/>
	<path class="st15" d="M1174.6,483.2c2.3,3.5,0.7,7.4,1.2,11C1173.3,490.8,1175,486.9,1174.6,483.2z"/>
</g>
</svg>
