<?xml version="1.0" encoding="utf-8"?>
<!-- Generator: Adobe Illustrator 24.1.0, SVG Export Plug-In . SVG Version: 6.00 Build 0)  -->
<svg version="1.1" id="Calque_1" xmlns="http://www.w3.org/2000/svg" xmlns:xlink="http://www.w3.org/1999/xlink" x="0px" y="0px"
	 viewBox="0 0 2812 2393" style="enable-background:new 0 0 2812 2393;" xml:space="preserve">
<style type="text/css">
	.st0{fill:#C9CADF;}
	.st1{fill:#D7D7E7;}
	.st2{fill:#FEFEFE;}
	.st3{fill:#FDFDFD;}
	.st4{fill:#FDFEFE;}
	.st5{fill:#FCFCFD;}
	.st6{fill:#F4F5F8;}
	.st7{fill:#D8D9E8;}
	.st8{fill:#EAEAF2;}
	.st9{fill:#E2E2EE;}
	.st10{fill:#E6E7F0;}
	.st11{fill:#EEEFF5;}
	.st12{fill:#EDEEF4;}
	.st13{fill:#FBFBFC;}
	.st14{fill:#D6D7E7;}
	.st15{fill:#CBCCE0;}
	.st16{fill:#CCCDE1;}
	.st17{fill:#D3D4E5;}
	.st18{fill:#D9DAE9;}
	.st19{fill:#D0D1E3;}
	.st20{fill:#CECFE2;}
	.st21{fill:#D2D3E4;}
	.st22{fill:#D1D2E4;}
	.st23{fill:#C6C7DE;}
	.st24{fill:#DCDDEA;}
	.st25{fill:#CFD0E3;}
	.st26{fill:#464E9F;}
	.st27{font-family:'BodoniSvtyTwoITCTT-Bold';}
	.st28{font-size:70.9683px;}
	.st29{fill:#C3BED0;}
	.st30{fill:none;stroke:#707070;}
	.st31{fill:#D1D3E4;}
	.st32{fill:#FEF8F2;}
	.st33{fill:#F2E6E9;}
</style>
<g>
	<g>
		<path class="st0" d="M1418.9,279.2c-6.8-25.4-13.5-50.7-20.3-76.1c21.7,11.7,24.3,35.5,39.8,54.8c-0.8-9.2-1.3-15.2-1.9-21.2
			c1.6-1.1,3.2-2.2,4.7-3.3c43.4,108.7,118.7,192.8,203.1,270c-19.6-40-44-76.7-76.7-107.4c4.3-5.6,8.8-4,11.9-1.6
			c62.7,48.9,122.6,100.9,162.6,171.3c38.3,67.4,42.1,140.1,27.5,214.3c-16.1,81.8-44.4,159.5-81.5,234.1
			c-15.8,31.7-29.1,64.4-40.5,98c-18.7,54.7-53.1,101.3-81.6,150.9c-16.7,29.1-34.8,57.3-53.1,85.5c-27,41.6-63.7,73.3-104,101.7
			c-56.9,40-118.3,72.3-182.1,99.1c-29.9,12.5-61.1,24.2-93.8,29.9c-20.1,3.6-40.2-0.1-60.2,2.9c-29.2,4.4-56.8,12.8-83.3,26
			c-16.3,8.1-33.8,13.6-51.7,18c-33.7,8.3-63,24.2-88.5,48.9c-32.3,31.4-73.2,48.6-117.2,55.8c-42.3,6.8-76.1,27.2-107,55.3
			c-19.9,18.1-35.5,40-56,57.6c-31.8,27.4-67.3,40.9-109.1,38c-4.6-0.3-9.8-1.6-14.2,2.3c-1.1,7.9,10.2,5.8,10.5,13.5
			c-7.3,6.7-21.7-3.3-26.7,9.4c-3.4,8.8-7.3,17.9-2.4,28c12.1-3.4,5.6-16.6,12.7-22.6c8.1,24.9-2.6,47.7-24.4,53.6
			c-12.4,3.4-14.8,11.7-6,21.2c2.8,3,6.3,5.4,13.2,11.2c-27-3.9-28.5,13.1-32.4,29c-12.4,49.8-22.5,99.8-20.4,151.5
			c0.7,17.6-8.1,30.5-21.2,40.5c-6.1,4.7-13.4,8.3-22,3.9c-8.1-4.2-8.1-11.2-8.3-18.7c-1.5-62,9-122.4,23.6-182.3
			c4-16.4,8.2-32.8,12.7-50.6c-8.5,2.6-7.6,11.9-15.4,15.8c-1.3-11.1,2.8-19.8,8.2-26.9c10.2-13.5,8.3-20.7-5.2-21.6
			c5-39.4,9.9-77.9,14.7-115.8c10.6,5.8,12.8,20.8,20.1,32.2c2.9,4.5,5.6,11.7,11.6,9.8c7.7-2.5,4.9-10,3-15.7
			c-6.5-19.7-13.6-39.1-18-59.5c-5.8-27.4-3.8-54.3,2.9-81.3c10.1-40.7,8.7-82.3,7.8-123.7c-1.9-4.1-3-7.9,3.9-7.6
			c4.7,11.8,9.4,23.7,14.2,35.5c1.4,3.3,3,7.3,7.4,6.9c4.7-0.5,4.4-5.4,5.3-8.6c8.2-27.4,15.4-55.3,27.7-81.2
			c15.3-32.3,30.9-64.6,59.9-88c11.2-9,10.3-25.4,15.6-38.2c22.6-54.6,59-96.4,111.1-124c45.2-24,87.9-52.6,136.8-69.5
			c29-10,58.6-16.1,89.1-18c27.3-1.7,54.5-5,81.1-11.4c18.4-4.4,31-18.6,45.2-30c36.8-29.5,76.9-49.2,126-38.4
			c9.8,2.1,18.1,7,24.5,15c6.1,7.6,5.7,16.1-0.8,21.3c-6.6,5.3-7.9-4.8-11.3-7.8c-8.7-7.7-16.9-11.3-29.6-8.9
			c-53,10.1-80.2,47.2-100.1,92.5c-8.1,18.5-13.7,37.8-11.8,58.5c0.4,4.6-2.5,11.2,2.8,13.4c7.1,3.1,7.1-6.8,11.9-8.8
			c5.1,1.3,8.3,4.3,9,9.7c-0.1,3.7-1.7,7-2.7,10.6c-1.4,4.9-6.7,10.5-0.3,14.7c5,3.2,10.7-0.1,15.6-2.4c6.9-3.2,11.9-8.7,15.4-15.2
			c7.1-12.9,18-21.2,31-27.4c22.1-10.4,44.8-19.5,67.2-29.1c6.2-2.7,15.2-7.9,19.2,1.3c3.6,8.1-4.7,13.1-10.9,16.7
			c-19.6,11.4-40.4,20.1-61.7,27.8c-9.1,3.2-18.7,6-24.4,18.4c23-0.7,44.7-3.2,66-5c24.4-2.1,48.8-3.2,73.1-2.5
			c14.7,0.4,22.3-4.1,20.3-19.7c1.1-4.6,2-9.3,4.7-13.4c2-3,4.2-3.6,7-0.7c1.5,1.6-1.5,8.3,5,4.5c13.4,28.9,16,59.9,12.5,90.7
			c-8.9,78.4-52.5,134.1-115.8,174.7c1.2,0.2,4.4-1.9,8-2.4c3.6-0.5,7.2-1.3,10.9-0.5c4.7,1.5,7.9,4.7,9.7,9.2
			c0.5,9.2-8,11-13.1,15.8c58.8-11.2,93.6-48.5,114.4-102.4c4.8-12.4,5.3-28.2,20.4-35c3,1,4.4,3.3,5.2,6.1
			c-2,29.6-16.3,54.6-29.7,79.9c-2.5,4.8-6.8,8.7-8.2,14.8c5.2,2.8,9.1-1,12.8-3.1c37.2-21.9,63.3-53,77.4-94.1
			c16.2-47,24-95.9,34-144.4c1.5-7.2,2.5-14.5,5.5-21.2c1.5-3.3,3.3-7,7.7-6.6c5.9,0.6,5.8,5.5,5.8,9.7c-0.4,22-3.2,43.8-7.2,65.5
			c-8.8,48-21.1,95.1-39.1,141.1c30.9-16.5,54.6-40,71.8-69.9c15.2-26.3,22.7-55.3,28.5-84.8c9-46.2,16.7-92.5,19.7-139.6
			c0.6-8.8,0.3-22.9,10.2-22.4c10.8,0.6,11,15.1,10.1,24.3c-6.9,77.8-11,156.3-47.2,228c-0.6,1.2-0.9,2.3,0.3,4.9
			c61.9-54.4,102.7-117.5,104-203.5c1.2-78.6-10.3-154.4-33.5-229c-3.1-10-12.9-25.9,2.1-30c11.7-3.2,13,15.1,16,24.8
			c24.3,76.5,44.8,153.7,43.1,234.9c-0.1,7.3-0.1,14.7-1.5,23.6c24.8-42,34.5-86.8,38.7-133c5.2-56.7,5.8-113.3-6.6-169.4
			c-5.4-24.5-14.6-47.9-20.8-72.1c-17.8-69.3-32.1-139.2-32.8-211.2c0-2.5,0.4-4.8,1.4-7.2c1.7-2.8,3.9-4.7,7.3-4.8
			c13.7,11.9,13.1,29.3,13.1,44.1c0.4,63.5,21.5,122.5,38.8,182c25.9,88.8,38.6,178,19.7,269.8c12.5-45.7,11.2-93.1,16.6-139.7
			c1.3-10.9,2-21.9,5.1-32.5c0.8-2.9,1.8-6.2,5.2-6.8c4.5-0.8,6.3,3.1,7.9,6.2c3.3,6.1,3.2,13,3.3,19.7c0.4,22.6-6.1,44.7-3.5,65.5
			c13.8-28.1,24.4-60.1,39.7-90.2c29.1-57,40.6-118.5,38-182.7c-0.4-10.6-5.4-28.4,7.3-29.8c9.3-1,6.2,18.3,9.1,28.4
			c2.4,8.4-1.1,16.9-0.5,25.3c0.1-0.3,0.1-0.4,0.1-0.5c0-1.2,0-2.4,0.1-3.6c3.9-30.2,10.6-59.9,10.1-90.8
			c-1.3-66.8-23.7-125.2-65.8-176.5c-13.2-16.2-27.1-31.8-40.3-43.3c25.2,33.7,34.3,77.8,46.3,120.8c2.6,9.5,3.8,19.2,2.6,29
			c-0.6,4.3-1.2,9.7-6.2,9.9c-4.5,0.3-6.7-4.7-8.2-8.8c-2.3-6.3-3.2-13-4.7-19.6c-10.1-44.1-34.2-79.9-66.2-111.2
			c18.8,42.6,21.9,87.2,19.9,132.6c-0.4,8-0.4,15.9-4.3,23.2c-1.4,2.6-2.6,5.9-6.5,5.3c-3.6-0.6-4.3-4-5.1-6.8
			c-1.8-7.2-1.5-14.6-1.2-21.9c3.1-86-30.1-157.8-85.4-221.5c-19.6-22.5-40.4-44.2-54.6-70.9c-2-4.3-3.8-8.6-6.6-12.4
			c3.4,5.4,5.7,11.4,8.5,17.1c24,48.1,48.7,95.6,73.7,143.2c14.6,27.8,21.2,58.5,25.5,89.4c1.1,7.6,4.5,20.1-6.6,21.2
			c-9.6,0.9-8.7-11.3-9.8-18.8c-7.3-53.2-31.1-99.9-58-145.2c-26.6-44.6-51.8-89.8-70.1-138.7c-4.5-12-8.8-24-10.9-36.7
			c-0.7-1.4-1.3-3-2.5-4.1c0.6,1.5,1.5,2.9,2.1,4.4c1.3,3.2,1.2,6.4,0.2,9.6C1423.9,274.6,1422.2,277.5,1418.9,279.2z"/>
		<path class="st0" d="M1151.7,1547.9c-3.7-1.4-6.3-3.9-7.7-7.5c-1.2-6.3,3.8-8.6,7.7-11.1c40.2-26.1,64.1-65,82.3-107.4
			c18.1-42.1,32.9-85.4,33.6-132.2c0.2-14.2-2.1-27.9-7.3-41.2c-12.1-31.3-25.6-62-36.4-93.9c5.7,35.9-1.7,72.3,4.9,108.1
			c0.9,4.8-0.1,9.8-4.1,13.5c-0.3,1.2-0.5,2.3-0.7,3.5c-8.7-12.1-5.9,4.9-10.2,4c-13.5-15.7-11.2-35.4-11.9-53.6
			c-0.8-22.3-3.1-18.7-19.3-13.1c-29.9,10.6-61.6,14.6-91.6,25c-29.2,10.1-56.7,22.2-78.1,45.4c-3.3,3.6-7,6.9-12.3,7.3
			c-2.4-2.5-4.7-5-7.1-7.4c25-40.3,66.9-52.8,108.4-65.5c27.4-8.3,55.1-15.3,83-21.8c17.3-4,24.5-14.7,24.8-31.2
			c0.4-21.8,0.1-43.5,0.1-69.2c13.6,14.3,16.4,29.5,23.1,42.6c2.3,4.6,3.2,11.8,10.1,11.7c6.6-0.1,8-7,10.1-11.7
			c7.4-17,7.1-34.3-0.1-51.4c-18.6-44.3-39.3-87.8-50.2-135.1c-9.8-42.8-6.8-86.1-6.5-129.5c13.2,24.8,17.9,52.3,23.8,79.2
			c6.2,28.5,18.6,54.3,33.8,78.7c15.1,24.2,32.4,47.1,49.1,70.9c10.4-6.8,3.6-13.9,1.9-19.9c-14.7-50.2-31.5-99.8-41.9-151.3
			c-5.8-28.8-5.2-58.1-7.9-87.1c-5-53.9-7.2-107.9,9.5-161c12.8-40.8,33-77,57.6-111.5c36.1-50.7,70.2-102.5,87.9-163.6
			c7.8-26.9,9.9-53.7,8.9-81.3c0.2-3.1,0.8-6,3.9-7.7c8,2.9,8,10.5,8.7,16.7c9.8,90,45.7,171,84.6,251.2
			c12.4,25.6,25.2,51.4,32,79.4c1.5,6.4,4.8,12.8-0.4,19c-1.3,1.3-2.6,2.7-4,4c-6.7,0.4-7.7-5.3-9.2-9.6
			c-20-55.9-47.8-108.3-71.7-162.5c-14.3-32.3-25.1-65.9-37.4-99.5c-9.5,19.6-14.7,39.7-15.9,61c-2,33.8,3.5,67,8.7,100.1
			c3,19.3,5.4,38.7,7.8,58.1c0.4,3.6,1.1,7.3,0.5,10.9c-0.7,4.3-1.7,8.8-7.1,9.2c-4.4,0.3-6.2-3.3-7.6-6.8
			c-1.8-4.5-2.7-9.4-3.7-14.2c-6.7-34.2-12.5-68.5-16.3-103.1c-0.9-8.4-2.7-16.6-3.9-27.6c-5.2,12.1-8,22.3-15.6,29.8
			c-31.3,30.9-35.6,69.6-31,110.3c3.2,28.5,6.3,57,10.2,85.4c0.7,4.8,1.8,9.7-0.1,14.5c-1.1,3-3.2,5.4-6.3,6c-3.7,0.7-5.2-2.3-6.6-5
			c-2.8-5.5-3.8-11.6-5.1-17.5c-8.8-39.1-12.2-79.1-15.6-122c-30,45.7-47,91.3-38.6,143.9c6,37.5,14.5,74.3,28.9,109.6
			c3,7.3,5.8,14.9,4.9,23.1c-0.9,4.1-2.2,7.9-7.2,8.5c-5.8-1.9-8.6-6.7-10.7-11.8c-9.6-24.4-20-48.5-25.8-70.3
			c0.6,35.7,4,75,9.4,114c6.7,49.4,27,95,38.7,143c12.3,49.8,22,100.1,35,149.7c3.7,14.3,2.6,29.1-1,43.5
			c-1.6,6.3-2.3,15.6-10.3,15.2c-8.8-0.5-7-10-7.4-16.2c-1-17.6,0-35.3-2.7-52.9c-4.7-30.8-16.5-58.6-33.2-84.5
			c-20.2-31.3-43.5-60.4-63-92.2c-7.7-12.5-14.5-25.4-20-39c-1.1-3.8-1.1-7.7-1.3-11.6c-0.8,7.4,1.7,14.2,4.4,21
			c11.4,43.3,28.5,84.4,48.1,124.6c25.7,53,30.8,110,29.6,168c-1.3,63.8-15.8,124.4-40.9,182.9c-17.9,41.6-42.3,78.5-76.3,108.5
			C1171,1542.9,1164.2,1552.6,1151.7,1547.9z"/>
		<path class="st1" d="M388.4,1577.1c-3,1.6-3.6,4.5-3.9,7.6c-3.9-3.5-5.2-8.4-1.9-12C384.8,1570.6,387.2,1574.5,388.4,1577.1z"/>
		<path class="st2" d="M1309.1,836.2c-6.9-30.9-19.7-59.9-27.8-90.7c-17.8-67.8-9.5-130.2,31.3-187.7c1.8-2.5,3.6-4.9,5.6-7.2
			c0.7-0.7,2.1-0.8,4.8-1.7c2.1,51.7,7.3,102.6,22.1,152.3c4.5-12.4,0-24.8-1.1-37.1c-2.9-29.6-8-59.1-8.8-88.8
			c-1-34.2,6.2-66.7,33.9-90.9c11.5-10.1,10.4-27,21.8-42.7c8,57.8,14,112,28.3,165c4.2-15.3-0.6-30.5-2.1-45.6
			c-4.3-42.3-15.2-83.8-13.1-126.8c1.1-22.9,7-44.4,14.5-65.6c1.5-4.2,2.3-9.6,10.6-12c23.4,101.1,80.3,188.5,114.6,285.2
			c4,55.8,9.8,111.2,21.9,166c6.9,31,15.5,61.4,24.7,91.6c17.1,56,20.9,112.9,16.9,171.3c-3,44.1-7.2,87.4-22.8,128.8
			c-6.6,17.4-13.8,34.6-29.2,53.5c12.4-108.9-16.9-205.3-49-304.9c-8.7,11.9-3,19.9-0.7,27c27.3,82.5,40.3,167.1,34.3,253.8
			c-5.8,83.5-49.1,146.1-115.3,194.5c-0.8,0.6-2.2,0.3-6.2,0.8c23.6-41.3,36.2-84.8,42.7-129.9c6.4-44.8,14.7-89.6,10.9-139.2
			c-10.4,12.4-8,23.3-8.9,33.5c-1,10.9-2.1,21.8-3.6,32.6c-7.6,54.2-13.6,108.7-33.2,160.3c-15.8,41.4-44.1,72.6-81.5,95.7
			c-2.6,1.6-5.3,3-8.1,3.9c-1.6,0.5-3.5-0.2-7.6-0.6c29.2-71.1,47.4-144.1,50.3-220.6c-9.4,18-10.6,38.3-14.8,57.6
			c-10.5,48.1-17.4,97.4-40.6,141.8c-17.2,32.9-43.1,57.3-76.8,73.3c-5.4,2.5-10.8,6.3-18.2,0.8c23-31,39.8-65.1,47.5-103.2
			c1.4-2.1,1.8-5.9,0.9-6.5c-2-1.4-2.5,2.6-4.6,3c-9.4,21.1-18.5,42.4-28.3,63.4c-22.2,47.3-62.5,69.4-111.5,79.1
			c-1.5,0.3-3.3-0.9-6.2-1.7c5.6-10.9,19.9-10,25.2-19.8c39.1-20.3,64.3-54.2,83.3-91.6c29.8-58.7,50.1-120,53.5-187.7
			c3-60.5,1.7-119.4-20.9-175.6c-14.5-36.1-33.5-70.4-45.1-107.7c-3.6-11.6-6-23.5-8.9-35.2c-1-4.5-5.3-10.1,3.8-11.2
			c19.2,42.6,47.4,79.4,74.5,116.9c33.3,46.1,50.3,96.8,46.7,154c-0.3,5.1-2,10.7,3,17.6c11.2-26.3,8.4-51.3,2.1-76.5
			c-20.3-81.4-40.3-162.7-63.5-243.4c-15.1-52.7-16.2-108-14.1-163.2c14.1,32.7,23.9,67.1,39.4,99.1c2.5,1.4,4.3,3.4,4.5,4.1
			C1309.1,845.4,1312.6,840.4,1309.1,836.2z"/>
		<path class="st2" d="M1547.6,637.9c-6.3-36.5-23.2-69.2-38.8-102.1c-29-61.2-57.3-122.6-72.6-189.1c-5.7-24.9-5.5-50.7-13.4-75.2
			c-0.1-3.6-0.1-7.2-0.2-10.9c-1.3-3.9,0.5-4.6,3.9-3.8c24.1,77.5,66.2,146.1,105.6,216.2c20.3,36.1,35.1,75,37.7,117.3
			c0.2,3,0.5,6.1,5.8,9.4c2.5-9.2,1.1-17.5,0-25.9c-7.4-58.5-37.9-107.4-65-157.7c-12.4-23.1-23-47-32.8-71.2
			c-2.5-4.1-3-7.2,3.4-6.9c20.3,32.8,47.6,60,71.5,89.9c50.6,63.5,76.7,134.9,71.8,216.7c-0.3,5.1,0,10.3,2,15.4
			c12.1-58,4.9-114-18.2-168.8c49.6,36.9,75.1,88.1,88,147.3c-3.1-59.9-21.2-114.7-51.7-166c35.5,23.6,61.2,56,82.3,92.1
			c42.7,73.2,45.3,151.2,25.9,231.5c-3.2,1.5,0.3,9.5-6.9,7.2c0.6-19.5-2.1-38.6-7.7-57.7c0,15.8-0.5,31.7,0.1,47.6
			c2.2,61.9-13.9,120-42.2,173.7c-16.1,30.6-22.9,65.1-44.1,94.7c-7.4-35.3,8.2-70.1-2.4-109c-15.8,68.2-3.2,136.2-32.9,196.8
			c2.5-36.8,8.6-73.2,8.5-110.2c-0.2-57.2-10.6-112.5-27-166.8c-14.4-47.8-27.6-95.9-37.8-144.7c-5.5-26.5-0.8-54.7-8.9-81.3
			C1550.3,643.2,1548.8,640.6,1547.6,637.9z"/>
		<path class="st2" d="M466.1,1674.4c-1,11.7-1.8,21.8,1.5,31.8c1.8,5.4,2.3,10.8,0.2,16.1c-1.6,3.9-3.2,8.5-8.5,8.3
			c-5-0.2-7.7-3.9-8-8.5c-1.5-19.6-11.5-35.9-20.5-52.4c-8.2-15.1-7.4-31.3-5.1-46.6c7.2-47.4,24.1-91.4,52.8-132
			c9.4,35.1-0.4,74.7,24.8,106.5c-4.7-101.4,7.2-196.1,82.8-271.3c-2.2,25.5-13.4,49.6-9.4,77c8.3-2.3,8.6-8.4,10.1-14
			c5.5-21.2,10.6-42.6,17.2-63.4c7.3-22.7,23.9-36.7,48.9-46.4c-11.8,32.1-22.5,61.1-22.2,92.5c0,4.3,1.2,8.4,5.2,11.1
			c8.7-26.5,7.6-55.1,19.8-81c16.8-35.8,48.2-55.3,81.6-69.3c30.4-12.8,61.7-25.6,95.7-28.5c35.7-2.9,71.6-5.2,106.2-15.4
			c2.8-0.8,6.7-1.4,8,2c1.8,4.4-2.2,6.3-5.2,8.3c-18.7,12.5-38.7,23.6-56,37.8c-31.4,25.8-51.4,58.2-50.7,100.8
			c0.2,10.3,2.9,19.4,8.2,27.6c8.2,12.7,3.9,19.3-8.7,25.2c-64.3,30.5-122.5,70.5-176.6,116.4c-55.9,47.5-106.7,100.1-149.9,159.6
			c-4.7,6.4-9.3,12.8-14.3,18.9c-11.9,14.6-14.2,14.3-20.9-2.6C472.1,1680.3,471.9,1677.1,466.1,1674.4z"/>
		<path class="st2" d="M806.3,1451.8c13.8-14.9,28.8-20.4,42.6-27.8c15.1-8,30.3-15.8,45.3-24c28.8-15.4,57.3-12.1,86.3,0
			c29.2,12.2,58,25.5,90.2,28.7c39.2,3.9,74.6-6.7,107.3-27.8c1.1-0.7,1-3.2,1.4-4.7c-5.5-4.2-9.9-0.7-13.8,1.7
			c-47.8,29.1-97.3,26.7-147.6,7.9c-16.5-6.2-32.9-13-49.3-19.6c-4.3-1.7-10.7-2.1-10.3-8.5c0.3-4.7,5.6-6.3,9.5-7.6
			c37.1-12.2,74.7-22.5,113.4-27.3c39.9-4.9,80-6.2,120.3-0.7c16.1,2.2,25.8,7.3,23,24.9c-4.3,27.8-2.9,58.2-32.9,74.8
			c-1.4,0.8-3.1,2.9-3,4.2c4,31.4-25.5,40.1-40.6,57.8c-14.2,16.7-34.3,27.8-56.4,32.1c-20.8,4.1-39.7-2.6-56.9-14.6
			c-40.5-28.4-81.5-56.4-131.2-66.1c-27.4-5.4-55.3-7.3-83.2-2.8C817,1453,813.4,1452.2,806.3,1451.8z"/>
		<path class="st2" d="M966.5,1603.3c-40.5,18.3-78.2,24.4-117.7,11.7c-30.2-9.7-60.1-20-90.2-30.1c-28.4-9.5-57.3-10-86.5-5.1
			c-6.5,1.1-13.2,1-24.1,1.7c27-24.1,56.8-30.2,90.3-36.1c-15.7-9.2-30.3-1.6-46.2-7.7c15.8-20,34.7-34.4,55.4-46.2
			c80-45.4,158.5-36.6,235.5,7.9c33.1,19.1,58.7,49.6,100.4,62.6c-30.5,15.6-57.6,11.2-84.3,5.1c-30.6-7-57.5-23.2-85-37.6
			c-18.8-9.9-38.7-17.8-58.2-26.4c-6.6-2.9-13.6-4.5-24.7,0.7c57.9,19.2,103.3,56,157.2,77.9c-34.5,12.9-68.1-6.8-104.4-0.3
			C909.2,1595.2,938.7,1589.3,966.5,1603.3z"/>
		<path class="st2" d="M632.3,1651.3c-23-2.3-37.8,8.1-54.4,11.8c7.6-29.4,14.3-33.5,84.3-51.8c-6-10.3-19.6,0.4-25.2-9.4
			c54.1-29.7,130.3-9.9,207.5,29.1c-33,12.5-66.9-3.2-102.4,6.8c39.1,6.9,75.7,9.9,116.4,9c-18.8,17.4-41.4,14.2-62.3,24.8
			c12.3,0.8,21.3,1.4,30.3,1.9c0.5,1.4,1,2.8,1.4,4.3c-17.5,8.8-34.5,18.8-52.5,26.3c-41.6,17.3-84.6,20.3-129,11.3
			c-33.3-6.8-66.8-13.7-104.6-8C563.3,1674.8,598.1,1668.6,632.3,1651.3z"/>
		<path class="st3" d="M395.7,1892.5c32.8-88.1,79.1-168.8,137.8-242c111.8-139.3,249.6-242.1,421.5-296c10.3-3.2,20.8-5.8,34.5-9.6
			c-6.5,11.3-15.4,11.8-22.7,14.1c-91.5,29.8-172.7,78-247.5,138c-48.2,38.6-90.7,83-132.9,127.7c-4.9,1-9.4,2.8-12.5,6.9
			c-25,19.8-41.9,45.9-57.1,73.4c-3,3.7,1.9,7.6-0.1,11.3c-57.4,89-104.7,182.3-134,285c-6.9,24-11.1,47.8-15.6,71.9
			c-3.3,17.9-5.4,36-8.2,54c-0.5,3-1.3,6-2.6,8.7c-4.5,9.2-9.1,24-18.8,21.4c-8.8-2.4-2.8-16.7-1.4-26c3.7-24.6,8.3-49.2,9.8-74
			c2.5-41.8,30.9-73.8,40.4-112.7c1.9-7.7,3.9-15.3,5.9-22.9c0-0.8-0.1-1.6-0.1-2.4c0.3-6.8,6.5-13,2.2-20.3
			C394,1896.8,393.9,1894.4,395.7,1892.5z"/>
		<path class="st3" d="M1000.7,1294.7c23.5-32.2,57.6-47.1,94.1-59c36.2-11.8,74.4-16.5,111.7-32c-0.9,28.6,1,54.5,7.4,79.9
			c3.7,25.8,3.7,26-22.8,25.6c-49.2-0.7-98,4.1-148.3,9.5c1.8-16,12.3-23.2,25.1-27.4c22-7.3,43.3-16.1,63.7-27.2
			c6.1-3.3,13.8-5.4,15.3-16.8c-26.3,7.2-48.9,20-72.8,29.4c-17.6,6.9-33.8,15.8-42,35.3c-5.8,13.8-20.9,15.5-34,18.2
			c-8.7,1.8-9.2-5.1-7.7-10.3C992.9,1311.3,997.1,1303.1,1000.7,1294.7z"/>
		<path class="st3" d="M1059.6,1126.9c-48.9,31.5-80.5,74.2-89.9,131.9c-3.2,19.3-3.6,39,0.5,58.2c2.8,13.4-1.8,20.9-14.3,25.2
			c-24.7,8.7-49.3,17.6-73.9,26.6c-4.7,1.7-9.1,3.8-13.5-0.4c-4.2-4-0.9-8,0.3-11.9c13.4-43.3,32.1-84.3,53.9-123.9
			c9.7-17.5,26.5-28.2,42.3-39.5c10.2-7.3,19.6-14.8,21.5-28c1.1-7.3,7.3-9.2,11.9-13C1015.9,1137.3,1037,1130.5,1059.6,1126.9z"/>
		<path class="st3" d="M1224.7,1276.2c-7.5-45-0.3-90.7-8.5-139.7c81.8,119.7,75.5,288.5-72.2,403.9c-12.4,2.1-24.1,8.7-39.1,6.2
			C1210.1,1484.3,1258.4,1398.2,1224.7,1276.2z"/>
		<path class="st2" d="M513,1782.4c-5.4,0-10.7,0-18.2,0c9.9-23.5,33.3-27.8,48.6-41.6c-1.5-1-2.3-1.6-3.2-2
			c-6-2.6-14.2,8.5-17.4-0.5c-2.5-6.9,7.6-9.6,12.8-13.2c18.1-12.7,38.7-9.9,58.3-7.3c22.7,2.9,44.9,8.8,70.4,14
			c-28.8,29.9-66.4,32.7-104.5,44.3c20.8,7.6,36.9-4.8,56.1,1.5c-28.5,18-55.4,33.7-84.5,45.4c-1.7,3.1-3.6,5.9-7.8,3.9
			c-20.8-1.9-38.1,10.8-57.7,14.2c-3.6-4.9-0.4-8.6,2.4-11c6.6-5.7,17.8-8.1,9-21.4c-2.3-3.5,4.9-9.2,10.3-10.9
			c13.3-4.1,26.7-7.8,40-11.6c4.6-3.9,9.9-4.9,13.3-4.5C533.2,1784.9,523,1777.5,513,1782.4z"/>
		<path class="st4" d="M413.1,1818.1c-9.8-10.9-7.2-25.5-15.9-38c-3.8,19.2,4.8,35.1,1.9,51.9c-13.4-29.5-21.1-60.6-17-93.2
			c4-31.9,13.7-63,14.3-96.9c11.9,3.9,15.4,13.1,17.7,23c4,17.9,9.2,35.1,19.5,50.8c10.4,16,8.3,34.3,4.1,51.5
			C433.2,1785.5,423.7,1801.9,413.1,1818.1z"/>
		<path class="st5" d="M523.7,1826.7c2.6-1.3,5.2-2.6,7.8-3.9c7.1,8.1,13.4-0.1,19.8-1.3c6.9-1.3,12.7-7.4,20.7-5.5
			c-8.2,32.1-56.6,54-112,50c12.7-15.2,29.6-21.1,45.8-27.9C512.5,1835.3,520.1,1834.2,523.7,1826.7z"/>
		<path class="st5" d="M853.8,1357.9c-20.8-45.8,9.1-97.1,52.2-121C888.4,1277.7,871.8,1316.1,853.8,1357.9z"/>
		<path class="st6" d="M516.7,1716.4c-4.3-2.6-12.3-3.9-3.7-10.9c19.3-25.8,36.9-53,58.7-76.9c4.1-4.3,6.5-15.5,14.8-3.8
			C563.2,1655.3,540,1685.8,516.7,1716.4z"/>
		<path class="st7" d="M513,1782.4c10.3-7.6,21.8-1.2,32.8-3c-5.1,5.2-11.2,7.2-18.1,6.6C523.8,1780.7,517.9,1783.2,513,1782.4z"/>
		<path class="st8" d="M395.7,1892.5c0,2.4,0,4.9,0,7.3c3.6,8.2-2.1,14.9-3.6,22.2l0.1-0.1c-4.5,1.8-9.4,2.6-6.5-4.6
			C389,1909,389.5,1899.6,395.7,1892.5z"/>
		<path class="st9" d="M1272.5,1427c2.4-4.5,2.9-10.3,9.8-12.9c-0.9,6.5-1.7,12-6.1,16.4C1275,1429.4,1273.8,1428.2,1272.5,1427z"/>
		<path class="st10" d="M1481.1,337.9c-2.9,1.4-3.2,4.1-3.4,6.9c-2.4-4.9-4.8-9.8-7.7-15.7C1477.6,329.6,1479.3,333.8,1481.1,337.9z
			"/>
		<path class="st11" d="M1745.7,803.1c2.3-2.4,4.6-4.8,6.9-7.2c0,4.5,1.1,9.8-4.1,11.9C1746.1,808.8,1745.8,805.3,1745.7,803.1z"/>
		<path class="st12" d="M1426.4,256.9c-1.3,1.3-2.6,2.5-3.9,3.8c-3.5-3.4-5.1-7.2-1.9-11.7C1422.5,251.6,1424.4,254.2,1426.4,256.9z
			"/>
		<path class="st13" d="M1277.1,1240.3c-13.2-17.4-20.3-37.6-25.7-57.6c-3.4-12.4,7.7-23,17.8-35.1
			C1276.8,1179.8,1281.4,1209.4,1277.1,1240.3z"/>
		<path class="st11" d="M1217.3,939c-4.4,2.6-3.4,7.2-3.8,11.2c-6.1-6.8-3-14.7-3.2-22.6C1216.5,929.5,1216.6,934.4,1217.3,939z"/>
		<path class="st14" d="M1309.1,836.2c5.5,5.4,3.4,11.9,3.2,18.8c-5.1-2.6-4.4-8-6.8-11.4C1308.5,841.9,1308.9,839.1,1309.1,836.2z"
			/>
		<path class="st15" d="M1397.1,939c-17.4-36-29.2-73.6-33.2-113.5c-1-4.4-5.3-9.9,3.7-11.1c12,40,26.6,79.2,33.4,120.7
			C1402.3,939,1400.4,939.7,1397.1,939z"/>
		<path class="st16" d="M1413.7,1019.3c18.7,26.9,28.4,56.4,24.6,89.7C1421.1,1081.8,1416.6,1050.8,1413.7,1019.3z"/>
		<path class="st17" d="M1417,730.1c9,16.1,14.5,33,15.4,51.3C1422.7,765.6,1418,748.3,1417,730.1z"/>
		<path class="st18" d="M1367.5,814.4c-4.3,2.6-3.2,7.1-3.7,11.1c-6-6.8-3-14.7-3-22.6C1366.9,804.9,1367,809.8,1367.5,814.4z"/>
		<path class="st14" d="M1397.1,939c1.3-1.3,2.6-2.6,3.9-3.9c3.4,3.5,5,7.2,1.9,11.8C1400.9,944.2,1399,941.6,1397.1,939z"/>
		<path class="st19" d="M1687,902.4c2.4-39-10-78.1,1.2-117.1c8.7,44.8,11.2,89.8,5.7,135.2C1682.5,917.9,1692.6,907.2,1687,902.4z"
			/>
		<path class="st20" d="M1631.1,851.5c-14.9-34.5-20.4-66.1-21.6-100C1621.7,765.6,1632.3,813.3,1631.1,851.5z"/>
		<path class="st21" d="M1687,902.4c6.6,4.4,0.2,13.8,6.9,18.1c0.1,4.6,0.7,9.4-6.9,13.5C1687,922.2,1687,912.3,1687,902.4z"/>
		<path class="st16" d="M817.7,1243.5c-21.6,36.8-36.7,76.3-49.3,116.9c-4.4-47.5,16.8-85.5,45.5-120.7
			C817.2,1238.9,819,1239.6,817.7,1243.5z"/>
		<path class="st16" d="M714.2,1333.5c0,39.7-17.4,75.9-23.5,114.6C685.5,1407.4,697.4,1370.1,714.2,1333.5z"/>
		<path class="st22" d="M462.7,1636.8c-11.6-17.4-8.2-33.3-5.8-49.2C464,1602.2,467.9,1617.3,462.7,1636.8z"/>
		<path class="st23" d="M575.8,1534.2c-5.5-19-5.1-37.7,2-56.1C579.5,1496.9,580.3,1515.7,575.8,1534.2z"/>
		<path class="st24" d="M817.7,1243.5c-1.3-1.3-2.6-2.5-3.9-3.8c3.4-6.2,8.2-10.9,16.3-12.2C826.1,1232.8,821.9,1238.2,817.7,1243.5
			z"/>
		<path class="st15" d="M1152,1459.1c-44.1,26.4-88.7,18.3-134.8,3.9c12.4-11.1,24.9-4.5,35.8-2.7
			C1086.4,1465.8,1119.2,1463.9,1152,1459.1z"/>
		<path class="st16" d="M1059.4,1365.6c29.3,0,58.6,0,87.9,0C1118.2,1373.8,1089,1377.4,1059.4,1365.6z"/>
		<path class="st15" d="M571.7,1628.5c-15.2,28.5-37.6,51.8-55.7,78.2c-0.1,0.2-2-0.8-3-1.3C526.9,1675.5,544.8,1648.6,571.7,1628.5
			z"/>
		<path class="st22" d="M392.1,1922c-1.4-7.8,2.4-14.8,3.6-22.2C405.6,1909,396.3,1915.1,392.1,1922z"/>
		<path class="st25" d="M1170.6,1263.5c-11.4,17.8-27,24.9-41.6,34.9C1133.6,1281.3,1143,1273.2,1170.6,1263.5z"/>
		<path class="st16" d="M939,1265.2c-9.9,23.5-19.9,46.9-30.7,72.4C903.5,1312.4,912.9,1289.3,939,1265.2z"/>
	</g>
	<text transform="matrix(1 0 0 1 1733.1055 305.7476)" class="st26 st27 st28">Conscience</text>
	<text transform="matrix(1 0 0 1 1860.8359 730.0474)" class="st26 st27 st28">Ecoute</text>
	<text transform="matrix(1 0 0 1 1789.875 1114.8569)" class="st26 st27 st28">Emotions</text>
	<text transform="matrix(1 0 0 1 1631.1836 1390.7319)" class="st26 st27 st28">Détente</text>
	<text transform="matrix(1 0 0 1 1404.4941 1587.6177)" class="st26 st27 st28">Valeurs</text>
	<text transform="matrix(1 0 0 1 939.0098 1801.8423)" class="st26 st27 st28">Ici et maintenant</text>
	<text transform="matrix(1 0 0 1 620.3359 2018.7524)" class="st26 st27 st28">Estime de soi</text>
	<text transform="matrix(1 0 0 1 66.7822 1737.0044)" class="st26 st27 st28">Espoir</text>
	<text transform="matrix(1 0 0 1 78.1396 1344.9429)" class="st26 st27 st28">Respiration</text>
	<text transform="matrix(1 0 0 1 529.3965 1098.2026)" class="st26 st27 st28">Lâcher-prise</text>
	<text transform="matrix(1 0 0 1 847.0635 845.523)" class="st26 st27 st28">Sommeil</text>
	<text transform="matrix(1 0 0 1 993.5107 616.5923)" class="st26 st27 st28">Positif</text>
	<text transform="matrix(1 0 0 1 1031.9336 329.1216)" class="st26 st27 st28">Confiance</text>
</g>
<g id="Groupe_1" transform="translate(618 226)">
	<g id="Rectangle_1" transform="translate(-618 63)">
		<rect x="-269.5" y="862.2" class="st29" width="224" height="81.4"/>
		<rect x="-269.2" y="862.4" class="st30" width="223.3" height="80.8"/>
	</g>
	<g id="Rectangle_2" transform="translate(-618 352)">
		<rect x="-269.5" y="726.8" class="st31" width="224" height="81.4"/>
		<rect x="-269.2" y="727.1" class="st30" width="223.3" height="80.8"/>
	</g>
	<g id="Rectangle_3" transform="translate(-618 877)">
		<rect x="-269.5" y="481.1" class="st32" width="224" height="81.4"/>
		<rect x="-269.2" y="481.3" class="st30" width="223.3" height="80.8"/>
	</g>
	<g id="Rectangle_4" transform="translate(-618 624)">
		<rect x="-269.5" y="599.5" class="st33" width="224" height="81.4"/>
		<rect x="-269.2" y="599.8" class="st30" width="223.3" height="80.8"/>
	</g>
	<g id="Rectangle_5" transform="translate(-618 -226)">
		<rect x="-269.5" y="997.4" class="st26" width="224" height="81.4"/>
		<rect x="-269.2" y="997.7" class="st30" width="223.3" height="80.8"/>
	</g>
</g>
</svg>
