<?xml version="1.0" encoding="utf-8"?>
<!-- Generator: Adobe Illustrator 24.1.0, SVG Export Plug-In . SVG Version: 6.00 Build 0)  -->
<svg version="1.1" id="Calque_1" xmlns="http://www.w3.org/2000/svg" xmlns:xlink="http://www.w3.org/1999/xlink" x="0px" y="0px"
	 viewBox="0 0 293.3 317.6" style="enable-background:new 0 0 293.3 317.6;" xml:space="preserve">
<style type="text/css">
	.st0{fill:#464E9F;}
</style>
<path class="st0" d="M188.2,296.1c-7.6,2.1-18.6-1.9-21.9-8c0.6-0.3,1.1-0.5,1.7-0.8c0,0,0,0,0,0c0.5,0.7,0.9,1.3,1.4,2
	c0.7-0.7,1.3-1.4,2-2c7.6-6.5,5.4-13.6,0.9-21c-0.5,0.2-1.3,0.6-2.1,1c-0.7,0-1.4-0.1-2.1-0.1c3.2-4.3,6.3-8.6,9.5-12.9
	c3.4-2.3,6.7-4.6,10.1-6.9c1.2-1.7,2.4-3.5,3.6-5.2c2.9-1.9,5.4-5.7,9.6-2.6c4,4.6,5.2-0.6,7.4-2.2c5.5-2.7,11.1-5.5,16.6-8.2
	c0.1,2.1,0.3,4.3,0.4,6.9c1.9-0.9,3.3-1.5,4.8-2.1c0.9,0.1,1.9,0.2,2.8,0.3c1.8,1.1,1.6,5.8,5.5,3.1c6.2-2.4,12.4-4.9,18.6-7.3
	c1.1,0.5,2.5,0.8,3.2,1.6c1.6,2.1-0.5,2.9-1.5,4.6c-3.4,5.4-6.1,11.3-9,17c-0.3,0.5-0.4,1.4-0.1,1.9c2.5,4.3-0.6,6.7-3.2,9.3
	c-1.2,1.2-2.3,2.5-3.5,3.7c0.4,0.6,0.8,1.2,1.2,1.8c4-2.2,8.1-4.4,12.1-6.6c0.3,0,0.6,0,1,0c1.2,0,2.7,0.4,3.7-0.1
	c4.1-2,8.1-4.1,8.2-10.7c0.9,2.8,1.4,4.2,1.8,5.6c0.2,0.2,0.4,0.5,0.6,0.7c-5.4,6.2-11.3,11.3-19.9,13.2c-3.3,0.7-6.2,4-8.8,6.6
	c-2.4,2.4-3.6,6.3-6.3,8.2c-2.5,1.8-6.2,2.4-9.4,2.7c-4,0.4-8.2-0.1-12.2-0.2c-0.3-0.4-0.6-0.7-0.8-1c4.7-0.3,9.4-0.9,14.1-0.9
	c3.7,0,6.8-0.6,9.1-4.7c-1.5-0.6-2.8-1.5-4.1-1.6c-6.1-0.3-12.2-0.6-18.2-0.5c-0.9,0-2.4,1.9-2.4,2.9c0,1.6,1,3.2,1.6,4.8
	c0.1,0.4,0.2,0.7,0.4,1.1c-1.4,0.5-2.9,0.9-4.3,1.4c1.3-6.9,0.3-7.5-6.5-5.7c-4.3,1.2-8.8,1.5-13.2,1.9c-4.8,0.5-9.6,0.7-14.3,1.3
	c-1.1,0.1-2.1,1.1-3.2,1.7c0.9,1,1.8,2.6,2.8,2.8c4,0.8,8.2,1,12.2,1.5C188.2,294.9,188.2,295.5,188.2,296.1z M254.1,233.1
	c-9.8,1.9-14.5,6.3-14.9,14.1c-0.2,0.1-0.3,0.2-0.5,0.3c0.1,0,0.2,0,0.3,0c0.1-0.1,0.1-0.2,0.2-0.4c5-4.6,10.1-9.3,15.1-13.9
	c0.1-0.2,0.2-0.4,0.4-0.5C254.5,232.8,254.3,233,254.1,233.1z M208.2,250.1c0.3,0.4,0.6,0.7,0.9,1.1c0.6,3.9,3,2,4.7,1.3
	c4.3-1.9,8.7-11.9,7.7-17.1c-0.5-0.1-1-0.1-1.5-0.2c-0.3-0.6-0.7-1.6-0.9-1.6c-7,1.6-12,8.8-11.8,16.7c-0.1,0.1-0.2,0.2-0.3,0.4
	c0.1-0.1,0.2-0.3,0.2-0.4C207.5,250.1,207.8,250.1,208.2,250.1z M238.2,251.2c9.8,0.1,14.5-4,17.7-15.7
	C249.9,240.8,244,246,238.2,251.2c-0.1,0.1-0.2,0.1-0.3,0.2c-0.1,0,0,0.2,0,0.3C237.9,251.5,238.1,251.3,238.2,251.2z M247,253
	c-5.1,1.1-10.5,1.5-15.2,3.4c-4.6,1.9-8.7,5.4-12.9,8.1c0.2,0.5,0.3,1,0.5,1.5c6.2-0.3,12.5-0.9,18.7-0.9c7.5-0.1,11.6-4.9,9.4-11.7
	c0.1-0.2,0.2-0.5,0.3-0.7C247.5,252.8,247.2,252.9,247,253z M183.2,276.2c-2.5,3.2-5,6.4-7.1,9.2c7.6-0.3,15.5-0.4,23.4-1.1
	c3.4-0.3,6.9-1.4,10-2.9c3.6-1.7,4.4-5.4,3.2-9c-0.4-1.1-2.8-2.2-4.1-2c-7.8,1.1-15.6,2.6-23.4,3.9c1.3-2.3,3.5-4.5,3.7-7
	c0.6-5.4,0.2-10.9,0.2-16.6c-13.9,7.2-15.6,12-9.5,26.1C180.8,276.5,182,276.4,183.2,276.2z M215.8,277.8c6.4,2.1,13.1,2.3,19.8,0.7
	c3.7-0.9,6.4-5.5,5.2-9c-1.4-4.1-4.5-1.8-7.1-1.7c-2.6,0.1-5.3,0.6-7.9,0.3c-11.1-1.7-11.1-1.8-10.4,9
	C215.3,277.2,215.5,277.3,215.8,277.8z M216.7,254.5c-11.6,0.7-18.7,8.6-25.8,16.7c6.1-0.7,11.9-2.2,17.7-3.5
	C217.3,265.8,219.4,262.2,216.7,254.5z M197,239.4c-2.1,3.7-4.9,6.8-5.5,10.3c-0.9,5.1-0.2,10.5-0.2,16.7c4.3-3.9,8-6.9,11.2-10.4
	c1.3-1.4,1.9-3.7,2.5-5.7C206.8,244.5,201.8,243,197,239.4z M230.2,235.4c-2.4,3.1-5.6,5.8-6.7,9.1c-1.5,4.5-1.2,9.6-1.8,15.1
	c7.3-4.7,16.6-7.1,15.8-18.4C235.7,239.7,233.7,238.1,230.2,235.4z M208.1,253.7c-0.1-0.1-0.2-0.3-0.3-0.3c-0.1,0-0.2,0.1-0.3,0.2
	c0.1,0.1,0.2,0.3,0.3,0.3C207.9,253.9,208,253.8,208.1,253.7z"/>
<path class="st0" d="M197.3,126.5c1.6,0,3.2-0.1,4.9-0.1c0.3-0.1,0.7-0.1,1-0.2c2-0.1,4-0.3,6-0.4c0.7,0,1.3,0,2,0
	c3,2.4,5.8,5.2,9.2,7c8.3,4.2,15.2,10,21.1,17.2c11.7,14.4,9.9,32.8-4.7,44.5c-2.9,2.4-6.1,4.5-8.3,6.1c9.1,4.5,18.9,8.3,27.4,14
	c6.7,4.5,12,11.2,17.5,17.4c1.8,2.1,2.2,5.4,3.2,8.2c-1.4-0.7-2.8-1.4-4.2-2.1c-0.1-0.3-0.2-0.6-0.3-0.9c0.4-0.4,0.7-0.8,1.1-1.2
	c-0.3-0.3-0.6-0.6-0.9-0.8l0,0c-2-2.7-4-5.3-6-8l0,0c-0.4-0.4-0.7-0.8-1.1-1.2c-1-0.6-1.9-1.2-2.9-1.8c-2.3-3-4.2-6.8-9.1-4
	c0.2-3.3-1.7-3.4-4.1-2.8c-6.4-2.5-12.8-5.4-19.9-5.3c-3.6-0.5-7.2-0.9-10.8-1.4c-1.8,0-3.6,0-5.4,0c-7.6-0.2-15.2-0.4-22.8-0.5
	c0-0.7,0-1.3,0-2c2.1-0.3,4.2-0.5,6.3-0.9c6.9-1.6,13.8-3.3,20.8-5c1.2-0.6,2.3-1.3,3.5-1.9c4.8-2.4,9.6-4.8,14.5-7.2
	c3.6-4.9,7.6-9.6,10.7-14.8c1.3-2.2,0.8-5.4,1.2-8.2c-0.9-3.3-1.8-6.7-2.7-10c-1.8-3.1-3.6-6.3-5.3-9.4c-3.2-3-6.5-6-9.7-8.9
	c-0.5-0.4-1.1-0.7-1.7-1.1c-0.4-0.3-0.7-0.7-1.1-1c-2.7-1.2-5.5-2.3-8.2-3.5c-0.7,0.6-1.5,1.3-2.2,1.9c-3.5-1.7-6.2-6.2-11-2.8
	c-1.8-0.5-3.6-1-5.4-1.5c-1.9-0.5-3.7-0.9-5.6-1.4c-4.2-0.7-8.5-1.5-12.7-2.2c-1.5,0.3-2.9,0.6-4.4,1c-4.7,0.1-9.3,0.2-14,0.3
	c-1.3-0.1-2.6-0.2-3.9-0.3c-1-0.3-2-0.6-3.1-0.9c5-0.5,10-1.1,15-1.6c2.7,0,5.3,0,8,0c5.3-0.6,10.7-1.2,16-1.8
	C195.9,126.8,196.6,126.6,197.3,126.5z"/>
<path class="st0" d="M209.2,95.3c-0.3,0-0.7,0.1-1,0.1c-2.3,0.3-4.6,0.5-7,0.8c-0.7,0.1-1.3,0.3-2,0.4c-1,0.1-2.1,0.3-3.1,0.4
	c-5.2,1.5-10.4,3-15.7,4.4c-1.9,0.5-3.9,0.8-5.8,1.1c-0.5-0.4-0.9-0.9-1.4-1.3c6-3.4,12-6.7,17.9-10.1c0.3,0,0.6,0,0.9,0.1
	c2.1-1.5,5.1-2.6,6-4.7c2-4.2,2.9-8.8,4.3-13.3c0.6,0.4,1.1,0.8,1.7,1.2c4.6-5.4,10.7-10,9-18.6c0.2,1.8,0.4,3.6,0.6,5.4
	c0.5,0,1,0.1,1.5,0.1c0.3-3.5,0.7-6.9,1.1-10.7c2.9-0.7,3.6-3.3,1.9-8.4c0.8-0.5,1.7-0.9,2.5-1.4c7,9.9,5.1,27.4-4.3,38.3
	c-1.2,1.4-2.4,2.7-4.1,4.6c7,1.9,13.6,3.6,20.1,5.4c2.7,0.8,5.4,1.5,8,2.7c1.2,0.6,2,2.1,2.9,3.2c-0.9,0.1-2.3,0.5-2.6,0.1
	c-3.4-4.2-8-3.1-12.4-3.2c-2.7,0-5.4,0.2-8.1,0.2c-4.3,0-8.5,0-12.8,0c0,0.5,0.1,1,0.1,1.6c1.6-0.1,3.3-0.2,4.9-0.3
	c0,0.2,0,0.5,0.1,0.7C211.3,94.7,210.3,95,209.2,95.3z"/>
<path class="st0" d="M68.2,211.4c-5.3,1.5-10.6,2.9-15.9,4.4c0-0.5,0-0.9-0.1-1.4c10.2-6,21.3-9.2,32.9-10.9
	c1.6-0.2,3.2-0.6,5.3-1.1c-7-4.1-13.3-7.9-19.6-11.7c0.1-0.2,0.3-0.3,0.4-0.5c1,0.3,1.9,0.7,2.9,1c2.4,1.1,4.7,2.2,7.1,3.3
	c1.8,0.6,3.7,1.2,5.5,1.8l0.4,0l0.4,0c2.6,1.6,5.2,3.1,7.9,4.6c0.2,0.1,1.1-1.1,1.6-1.8c2.9,2.2,5.3,5.5,9.7,3.6
	c-0.2-1.3-0.4-2.4-0.6-3.5c0.6,0,1.3,0,1.9,0c0.3,0.7,0.6,1.4,1,2.1c0.8,3.9,4.1,3.7,6.9,4.2c2,0.5,4.1,0.9,6.1,1.4
	c1.3,0,2.7,0.1,4,0.1c8.7,0.8,17.3,1.5,26,2.3c1,0,2,0,3,0c4.7,0,9.3-0.1,14-0.1c4,0,8-0.1,12-0.1c0.3,0.1,0.7,0.2,1,0.3
	c0,0.5,0,1,0,1.5c-5.8,0.4-11.6,0.9-17.4,1.1c-10.9,0.2-21.9,0.1-32.8,0.4c-3.3,0.1-6.5,1.2-9.7,1.8c-3,0-6,0-9,0
	C98.2,213.2,83.2,212.3,68.2,211.4z"/>
<path class="st0" d="M156.3,130.3c1,0.3,2,0.6,3.1,0.9c-0.2,0.6-0.3,1.2-0.5,1.8c-2.2,0-4.4,0-6.6,0c-0.7-0.2-1.4-0.5-2.1-0.7
	c-2.3,0-4.7,0-7,0c-1,0.2-2,0.5-3.1,0.7c-2.6,0-5.2,0.1-7.8,0.1c-0.4-0.3-0.7-0.5-1.1-0.8c-9.7,0.4-19.4,0.8-29,1.1
	c-2.4,0.5-4.9,1-7.3,1.6c-1.6,0.4-3.1,0.7-4.7,1.1c-3.4-2.1-5.5,0.8-8,2.2c-1.1,0.2-2.3,0.4-3.4,0.6c-1.2,0.4-2.4,0.7-3.6,1.1
	c-0.7,0.2-1.4,0.5-2,0.7c-2.3,1.6-4.5,3.2-6.8,4.8c-2.3,3.6-4.6,7.1-6.8,10.7c-0.8,2.3-1.7,4.7-2.5,7c-0.6,2-1.1,4-1.7,6
	c0.4-4.7-0.1-9.7,1.4-13.9c3.7-10.2,11.3-17.3,20.7-22.6c1.7-0.7,3.4-1.5,5.1-2.2c-0.1-0.3-0.1-0.6-0.2-0.9
	c-1.7-0.1-3.4-0.2-5.1-0.3c0,0,0,0,0,0c3.6-0.6,7.2-1.2,11.3-1.9c-0.1-0.7-0.2-2-0.3-3.4c2.1,4.7,6.2,4.5,10.2,4.3
	c0.6,0,1.2-0.1,1.8-0.1c0.6,0.1,1.3,0.1,1.9,0.2c1.8,0.3,3.6,0.8,5.3,0.9c10.1,0.4,20.2,0.6,30.3,1c1.4,0.1,2.9,0.5,4.3,0.8
	c0.8-0.6,1.6-1.1,2.3-1.7c1.1,0,2.2,0,3.3,0c1.1,0.6,2.3,1.1,3.4,1.7C152.9,130.8,154.6,130.6,156.3,130.3z"/>
<path class="st0" d="M74.2,125.2c0.7,1.3,1.3,2.7,2,4c-7.5-2-15.1-3.4-22.4-6.1c-4.9-1.8-5.6-6.4-2.3-10.6
	c5.7-7.1,13.3-11.4,21.8-14.1c9-2.9,18.1-5.2,27.7-7.8c-6-5.4-10-12-10.8-20.2c0.3-0.1,0.6-0.2,0.9-0.3c0.4,0.7,0.8,1.4,1.2,2.1
	c0.8,2.1,1.8,4.2,2.5,6.3c2.3,7.3,10.2,8.5,14.5,13.6c1.9,1.1,3.8,2.2,5.8,3.2c3.3,1.7,6.7,3.3,10,5c0,0.6,0,1.1,0,1.7
	c-0.9,0-1.9-0.1-2.8-0.1c-1-0.3-2.1-0.5-3.1-0.8c-1.3-0.3-2.5-0.7-3.8-1c-3.5-1.2-7.4-2.2-10.8-2.6c-6-0.9-12.5,1.3-18.8,2.1
	c-1.5,0.2-3-0.2-4.5-0.3c0.7-0.1,1.5-0.2,2.2-0.3c0-0.2-0.1-0.4-0.1-0.7c-0.8,0.2-1.5,0.5-2.3,0.7c-10.3,2.3-20.4,5-27,14.1
	c-3,4.1-2.8,7.2,1.8,8.7c5.5,1.9,11.5,2.2,17.3,3.3c0,0,0.5,0,0.5,0L74.2,125.2z"/>
<path class="st0" d="M37,255.2c1.4,0.7,2.8,1.3,4.2,2c0,0,0,0,0,0c0.3,0.3,0.7,0.7,1,1c0.6,0,1.3,0,1.9,0.1c1,0.7,2.1,1.3,3.1,2
	c0.7,0,1.3,0,2,0c0.6-0.5,1.7-0.9,1.7-1.4c0.2-3,0.1-6.1,0.1-9.1c0.4,0,0.9,0,1.3-0.1c0,1.1-0.1,2.2,0,3.3c0.6,4-1.9,9.7,5.7,9.7
	c0.6,0,1.2,2.2,1.9,3.4c-10.1-2.1-20-4.9-28.8-10.7c-5.8-3.9-8.2-8.9-6.4-15.7c0.3-0.1,0.6-0.3,0.9-0.4l0,0c1,4.4-0.2,9.7,5.3,12.7
	c0-1.3,0-2.4,0-3.5c0.3-0.1,0.6-0.2,0.8-0.3c0.8,1.7,1.6,3.4,2.4,5.1C35.1,253.9,36.1,254.6,37,255.2z"/>
<path class="st0" d="M90.2,64.2c0.8-3.2,1.2-6.5,2.5-9.4c6-13,16-21.8,29.4-26.8c0,0.5,0.1,1,0.1,1.5c-4.7,3.2-9.5,6.3-14.2,9.5
	c-1,1.1-2,2.2-3,3.2c-0.3,0.3-0.6,0.6-0.9,0.9c-7.5,5.1-9.5,13.2-12,21.1c-0.3,0.1-0.6,0.1-0.9,0.3C90.9,64.3,90.5,64.3,90.2,64.2z"
	/>
<path class="st0" d="M150.7,18.1c8.7-0.9,17.4-2.8,26-2.5c6.9,0.2,13.6,3.1,20.4,4.8c-0.1,0.5-0.1,1-0.2,1.5
	c-0.6-0.1-1.2-0.3-1.8-0.4c-0.7,0.1-1.4,0.1-2.1,0.2c-0.2,0-0.4,0.1-0.4,0.3c-1.2-0.4-2.4-0.7-3.6-1.1c-2.5-1-5-2.2-7.6-2.8
	c-9.6-2.5-18.9,0.9-28.2,2C152.4,19.5,151.5,18.8,150.7,18.1z"/>
<path class="st0" d="M157.1,278c-3.3-0.3-6.6-0.6-10-0.9c-1-0.1-2-0.1-2.9-0.2c-11.6-1.2-23.3-2.5-34.9-3.7c0.6-0.1,1.2-0.2,1.9-0.4
	c4.6,0.2,9.3,0.3,13.9,0.6c11,0.7,22.1,1.5,33.1,2.3c2.9-0.1,6.5,2.1,8-2.5l0.4,0l0.4,0c-0.3,2.7-0.6,5.5-0.8,8.2
	c-0.6-1.3-1.2-2.5-2.1-4.2C161.9,277.5,159.5,277.8,157.1,278z"/>
<path class="st0" d="M254.2,104.2c-2.1-1.9-4.3-3.8-6.4-5.7c-1.3-1.1-2.5-2.2-3.8-3.3c0.5-0.1,1.1-0.5,1.6-0.4
	c5.7,1,12,7.8,12.3,13.2c0.3,4.8-3.1,8.7-9.6,11.1c-2,0.7-4.1,1.3-6.1,1.9c0.7-0.9,1.3-1.7,2-2.6c0.8-0.7,1.5-1.5,2.3-2.2
	c0.6,0,1.2-0.1,1.8-0.1c6.9-2.6,8.5-4.8,7-10l0,0C254.9,105.5,254.6,104.8,254.2,104.2L254.2,104.2z"/>
<path class="st0" d="M197,21.9c0.1-0.5,0.1-1,0.2-1.5c10.3,4.1,18.5,10.5,23.5,20.6c-0.8,0.5-1.7,0.9-2.5,1.4
	c-0.8-1-1.8-1.9-2.3-3.1c-3.1-6.5-8.3-11-14.5-14.4C199.9,23.9,198.4,22.9,197,21.9z"/>
<path class="st0" d="M25.7,239.2C25.7,239.2,25.7,239.2,25.7,239.2c2.9-4.7,5.7-9.3,8.6-14c6-3.6,12-7.2,18-10.9
	c0,0.5,0,0.9,0.1,1.4C42.2,222.2,32.2,228.8,25.7,239.2z"/>
<path class="st0" d="M239.2,122.1c-8.3,2.9-16.6,4.9-25.4,4.5c-0.1-0.5-0.1-0.9-0.2-1.4c5.5-1,11-1.8,16.4-3c1.9-0.4,3.4-2,5.1-3.1
	c1.3,0.4,2.7,0.8,4,1.2C239.2,120.9,239.2,121.5,239.2,122.1z"/>
<path class="st0" d="M173.2,101.3c0.5,0.4,0.9,0.9,1.4,1.3c-5.7,0.8-11.3,1.8-17,2.4c-4.1,0.4-8.3,0.1-12.4,0.1
	c0.4-0.6,0.8-1.3,1.2-1.9C155.3,102.5,164.3,101.9,173.2,101.3z"/>
<path class="st0" d="M63.8,266.9c-0.3-1.4-0.6-2.7-1-4.2c3.7,1.2,7,2.3,10.4,3.4c3,0.7,5.9,1.4,8.9,2.1c-1,0.7-1.9,1.4-2.9,2.2
	C74.1,269.2,68.9,268,63.8,266.9z"/>
<path class="st0" d="M107.4,273.2c-4-0.2-7.9-0.2-11.9-0.5c-2.3-0.1-4.5-0.5-6.8-0.8c-0.2-0.6-0.4-1.3-0.5-1.9
	c4.2,0.1,8.4,0.3,12.5,0.4c1.5,0.3,3,0.6,4.5,1c0.5,0,1,0.1,1.5,0.1C106.9,272.1,107.2,272.6,107.4,273.2z"/>
<path class="st0" d="M146.4,103.1c-0.4,0.6-0.8,1.3-1.2,1.9c-6.7-1-13.4-2-20.1-3c0-0.6,0-1.1,0-1.7c6,0.6,12,1.2,18,1.8
	c1,0.1,2,0.1,3,0.2C146.2,102.6,146.3,102.8,146.4,103.1z"/>
<path class="st0" d="M122.3,29.4c0-0.5-0.1-1-0.1-1.5c5.4-2,10.7-4,16.1-6c0.7,0.4,1.3,0.8,2,1.3C134.2,25.3,128.2,27.3,122.3,29.4z
	"/>
<path class="st0" d="M272.3,238.2c1.4,0.7,2.8,1.4,4.2,2.1c0.3,3,0.5,6,0.8,8.9c-1.3-0.3-2.6-0.6-3.8-1c0-1.7-0.1-3.4-0.1-5.1
	c0.5-0.3,1-0.5,1.4-0.8c-0.5-0.4-1-0.8-1.6-1.2C272.9,240.2,272.6,239.2,272.3,238.2z"/>
<path class="st0" d="M55.2,169.2c0.6-2,1.1-4,1.7-6c4.4,1,3.1,4.7,3.4,7.5c-1.2,0.8-2.4,1.7-3.6,2.5c-0.2-0.4-0.3-0.7-0.5-1.1
	c0.4-0.5,0.8-1.1,1.2-1.6c-0.6-0.1-1.2-0.2-1.7-0.3C55.5,169.9,55.4,169.5,55.2,169.2z"/>
<path class="st0" d="M273.4,248.2c1.3,0.3,2.6,0.6,3.8,1c-1.9,3.2-3.8,6.3-5.6,9.5c-0.2-0.2-0.4-0.5-0.6-0.7
	C271.8,254.7,272.6,251.5,273.4,248.2z"/>
<path class="st0" d="M104.2,105.4c-2,0.6-4,1.2-6,1.8c-0.2-0.5-0.3-1-0.5-1.5c5.1-1.5,10.2-2.9,15.3-4.4
	C110.1,102.6,107.2,104,104.2,105.4z"/>
<path class="st0" d="M59,176.8c0,0-0.2-0.2-0.2-0.2c-0.2-0.5-0.5-0.9-0.7-1.4c0,0-0.1,0-0.1,0c1.1-0.8,2.2-1.5,3.4-2.3
	c1.2,2.4,2.5,4.9,3.7,7.3c0.3,1,0.6,2,1,3c-1.7-0.7-3.3-1.3-5-2c0,0,0.1,0,0.1,0C60.4,179.8,59.7,178.3,59,176.8z"/>
<path class="st0" d="M100.3,128.2c-0.6,0-1.2,0.1-1.8,0.1c-2.1-3.5-0.7-6.8,0.8-10.1c2.8-3.1,2.8-3.1,3.8-1.4
	c-0.8,1.1-1.5,2.1-2.3,3.2c-0.3,1-0.7,2-1,3C99.9,124.7,100.1,126.4,100.3,128.2z"/>
<path class="st0" d="M195.2,292.4c4.8-0.4,9.7-0.8,14.5-1.2c-2.9,0.8-5.7,1.9-8.6,2.5c-1.9,0.4-3.9,0.2-5.9,0.2
	C195.3,293.4,195.2,292.9,195.2,292.4z"/>
<path class="st0" d="M88.2,270c0.2,0.6,0.4,1.3,0.5,1.9c-3.2-0.5-6.4-1-9.5-1.6c1-0.7,1.9-1.4,2.9-2.2
	C84.1,268.8,86.2,269.4,88.2,270z"/>
<path class="st0" d="M237.1,111.8c2.3,2.2,4.7,4.4,7,6.6c-0.7,0.9-1.3,1.7-2,2.6c-1,0.3-2,0.7-3,1c0-0.6,0-1.2,0-1.7
	c4.1-3.1,1.4-4.8-1.4-6.5C237.6,113.2,237.4,112.5,237.1,111.8z"/>
<path class="st0" d="M61.1,181.3c1.7,0.7,3.3,1.3,5,2c1.7,2,3.4,4,5.2,5.9c0,0.3,0,0.7,0,1c-0.1,0.2-0.3,0.3-0.4,0.5
	C67.6,187.5,64.3,184.4,61.1,181.3z"/>
<path class="st0" d="M246.2,112.2c-3-0.8-6-1.6-9-2.4c-1-0.3-2-0.5-3-0.8C239.9,107.2,243.6,108.2,246.2,112.2z"/>
<path class="st0" d="M140.2,23.2c-0.7-0.4-1.3-0.8-2-1.3c2.4-0.9,4.8-1.7,7.3-2.6c-0.1,0.7-0.2,1.4-0.4,2.1
	C143.5,22,141.8,22.6,140.2,23.2z"/>
<path class="st0" d="M195.2,292.4c0,0.5,0,1,0,1.5c-2.4,0.8-4.7,1.5-7.1,2.3c0-0.6,0-1.2,0-1.8C190.5,293.7,192.9,293,195.2,292.4z"
	/>
<path class="st0" d="M179.2,128.7c-2.7,0-5.3,0-8,0C173.9,128.7,176.5,128.7,179.2,128.7z"/>
<path class="st0" d="M150.3,20.4c0.9,0,1.9,0,2.8,0c0-0.1,0.1-0.2,0.1-0.2c-0.8-0.7-1.7-1.4-2.5-2.1l-0.2,0c-0.7,0.9-1.3,1.8-2,2.7
	C149.1,20.5,149.7,20.4,150.3,20.4z"/>
<path class="st0" d="M201.2,96.2c2.3-0.3,4.6-0.5,7-0.8"/>
<path class="st0" d="M90.2,64.2c0.3,0.1,0.7,0.1,1,0.2c0,1.9,0,3.7,0,5.6c-0.3,0.1-0.6,0.2-0.9,0.3C90.2,68.3,90.2,66.2,90.2,64.2z"
	/>
<path class="st0" d="M150.5,18.1c-0.8,1-1.5,2-2.3,3c-1,0.1-2.1,0.2-3.1,0.3c0.1-0.7,0.2-1.4,0.4-2.1
	C147.1,18.9,148.8,18.5,150.5,18.1z"/>
<path class="st0" d="M107.4,273.2c-0.3-0.6-0.5-1.1-0.8-1.7c1.5,0.5,3,0.9,4.5,1.4c-0.6,0.1-1.2,0.2-1.9,0.4
	C108.7,273.2,108,273.2,107.4,273.2z"/>
<path class="st0" d="M61.4,173c-1.1,0.8-2.2,1.5-3.4,2.3c-0.4-0.7-0.8-1.3-1.3-2c1.2-0.8,2.4-1.7,3.6-2.5
	C60.7,171.5,61,172.2,61.4,173z"/>
<path class="st0" d="M196.1,97c1-0.1,2.1-0.3,3.1-0.4C198.2,96.7,197.1,96.9,196.1,97z"/>
<path class="st0" d="M119.2,101.1c1,0.3,2.1,0.5,3.1,0.8C121.3,101.7,120.2,101.4,119.2,101.1z"/>
<path class="st0" d="M59,176.8c0.7,1.5,1.4,3,2.2,4.5C60.4,179.8,59.7,178.3,59,176.8z"/>
<path class="st0" d="M151.2,131c-1.1-0.6-2.3-1.1-3.4-1.7C148.9,129.9,150.1,130.5,151.2,131z"/>
<path class="st0" d="M144.2,277c1,0.1,2,0.1,2.9,0.2C146.2,277.1,145.2,277,144.2,277z"/>
<path class="st0" d="M100.8,120c0.8-1.1,1.5-2.1,2.3-3.2C102.3,117.9,101.5,119,100.8,120z"/>
<path class="st0" d="M144.5,129.3c-0.8,0.6-1.6,1.1-2.3,1.7C143,130.5,143.8,129.9,144.5,129.3z"/>
<path class="st0" d="M197.3,126.5c-0.7,0.1-1.4,0.3-2.1,0.4C195.9,126.8,196.6,126.6,197.3,126.5z"/>
<path class="st0" d="M211.2,125.9c-0.7,0-1.3,0-2,0c0.3-0.4,0.7-0.8,1-1.3C210.5,125,210.9,125.4,211.2,125.9z"/>
<path class="st0" d="M55.7,170.3c0.6,0.1,1.2,0.2,1.7,0.3c-0.4,0.5-0.8,1.1-1.2,1.6C56,171.6,55.9,170.9,55.7,170.3z"/>
<path class="st0" d="M58.1,175.3c0.2,0.5,0.5,0.9,0.7,1.4C58.5,176.2,58.3,175.7,58.1,175.3z"/>
<path class="st0" d="M203.2,126.2c-0.3,0-0.7,0.1-1,0.2C202.5,126.3,202.9,126.3,203.2,126.2z"/>
<path class="st0" d="M214.2,288.2c0.3,0.3,0.6,0.7,0.8,1c0,0-0.4,0-0.4,0C214.4,288.9,214.3,288.6,214.2,288.2L214.2,288.2z"/>
<path class="st0" d="M209.2,250.2c1.2-2.2,2.2-4.5,3.6-6.4c2.2-3,4.7-5.8,7.1-8.7c0.5,0.1,1,0.1,1.5,0.2
	C217.3,240.3,213.3,245.2,209.2,250.2z"/>
<path class="st0" d="M256.4,263.2c2-7,4.1-14,6.3-21.4c0.2,7.8-0.6,15-5.3,21.4C257,263.2,256.7,263.2,256.4,263.2z"/>
<path class="st0" d="M168.1,267.2c0.7,0,1.4,0.1,2.1,0.1"/>
<path class="st0" d="M208.2,250.1c0.3,0,0.7,0.1,1,0.1c-0.1,0.3-0.1,0.6-0.2,1C208.8,250.8,208.5,250.4,208.2,250.1z"/>
<path class="st0" d="M238.2,251.2c-0.1,0.1-0.2,0.3-0.4,0.4c0-0.1,0-0.2,0-0.3C237.9,251.3,238.1,251.3,238.2,251.2
	C238.2,251.2,238.2,251.2,238.2,251.2z"/>
<path class="st0" d="M247,253c0.2-0.1,0.5-0.2,0.7-0.3c-0.1,0.2-0.2,0.5-0.3,0.7C247.2,253.2,247.1,253.1,247,253z"/>
<path class="st0" d="M208.1,253.7c-0.1,0.1-0.2,0.2-0.3,0.2c-0.1,0-0.2-0.2-0.3-0.3c0.1-0.1,0.2-0.2,0.3-0.2
	C207.9,253.4,208,253.6,208.1,253.7z"/>
<path class="st0" d="M207.2,250.2c-0.1,0.1-0.2,0.3-0.2,0.4C207,250.5,207.1,250.3,207.2,250.2C207.2,250.2,207.2,250.2,207.2,250.2
	z"/>
<path class="st0" d="M239.2,247.2c-0.1,0.1-0.1,0.3-0.2,0.4c0,0-0.2,0-0.3,0C238.9,247.4,239,247.3,239.2,247.2
	C239.2,247.2,239.2,247.2,239.2,247.2z"/>
<path class="st0" d="M254.1,233.1c0.2-0.1,0.4-0.2,0.6-0.3c-0.1,0.2-0.2,0.4-0.4,0.5C254.3,233.3,254.1,233.1,254.1,233.1z"/>
<path class="st0" d="M37,255.2c-0.9-0.7-1.9-1.3-2.8-2c0.7-1.4,1.3-2.9,2-4.3c2.3-4.6,4.6-9.2,7-13.9c0,0,0.3,0.3,0.3,0.3
	C40.6,241.8,36.5,247.8,37,255.2z"/>
<path class="st0" d="M49.2,260.2c-0.7,0-1.3,0-2,0c-1.7-5.5-2.3-10.9,2-15.7C49.2,249.8,49.2,255,49.2,260.2z"/>
<path class="st0" d="M64.2,219.2c0.6,0.5,1.2,1,1.8,1.5c-1.6,0.8-3.3,1.6-4.9,2.4c-0.3,0-0.6,0.1-0.9,0.3c-2.9,1.6-5.9,3.3-8.8,4.9
	c-0.2-0.2-0.3-0.3-0.5-0.5C55.3,225,59.8,222.1,64.2,219.2z"/>
<path class="st0" d="M67.3,213.9c-1.2,1.2-2.4,2.3-3.5,3.5c-3.4,1.3-6.8,2.7-10.3,4c-0.1-0.1-0.3-0.2-0.4-0.4
	C57.8,218.7,62.5,216.3,67.3,213.9z"/>
<path class="st0" d="M44.1,258.2c-0.6,0-1.3,0-1.9-0.1c-0.3-0.3-0.7-0.7-1-1c0,0,0,0,0,0c0.3-3.9,0.6-7.7,1-11.6
	c0.3,0.1,0.6,0.1,0.9,0.2C43.4,250,43.7,254.1,44.1,258.2z"/>
<path class="st0" d="M58.3,231.9c-1.3,1.8-2.7,3.7-4,5.5c-0.4-0.3-0.8-0.5-1.2-0.8c1.2-1.9,2.5-3.8,3.7-5.7
	C57.3,231.2,57.8,231.5,58.3,231.9z"/>
<path class="st0" d="M60.2,226.6c0.2-0.1,0.4-0.1,0.6-0.2c-0.3,1.3-0.7,2.6-1,3.9c-0.5-0.2-1-0.3-1.5-0.5
	C59,228.7,59.6,227.6,60.2,226.6z"/>
<path class="st0" d="M50.5,241.4c0.5-1,1-2,1.6-3c0.3,0.1,0.6,0.3,0.9,0.4c-0.4,1-0.9,2.1-1.3,3.1C51.3,241.7,50.9,241.5,50.5,241.4
	z"/>
<path class="st0" d="M50.1,223.1c1-0.7,2-1.4,3-2c0.1,0.1,0.2,0.2,0.4,0.4c-1,0.7-2,1.3-3.1,2C50.4,223.4,50.1,223.1,50.1,223.1z"/>
<path class="st0" d="M48.5,230.5c-0.5,0.4-1.1,0.9-1.6,1.3c0,0-0.3-0.3-0.3-0.3c0.5-0.5,0.9-1,1.4-1.5
	C48.2,230.2,48.3,230.3,48.5,230.5z"/>
<path class="st0" d="M50.4,223.4c-0.3,0.1-0.6,0.2-0.9,0.3c0.2-0.2,0.4-0.4,0.6-0.6C50.1,223.1,50.4,223.4,50.4,223.4z"/>
<path class="st0" d="M51.4,228.4c-0.4,0.1-0.7,0.1-1.1,0.2c0.2-0.2,0.4-0.5,0.5-0.7C51,228,51.2,228.2,51.4,228.4z"/>
<path class="st0" d="M48,230c0.4-0.1,0.7-0.1,1.1-0.2c-0.2,0.2-0.4,0.5-0.6,0.7C48.3,230.3,48.2,230.2,48,230z"/>
<path class="st0" d="M43.1,235.1c0.2-0.2,0.4-0.4,0.6-0.6c-0.1,0.3-0.2,0.6-0.2,0.9C43.4,235.4,43.1,235.1,43.1,235.1z"/>
<path class="st0" d="M74.2,125.2l-0.5,0c0,0-0.5,0-0.5,0c-2.2-5.6-1.1-8,5.9-12.2c0.2,0.2,0.3,0.4,0.5,0.6
	C77.2,117.2,72.4,119.7,74.2,125.2z"/>
<path class="st0" d="M64.1,107.8c3.8-1.9,7.6-3.8,11.4-5.7c0.2,0.4,0.5,0.9,0.7,1.3c-3.7,2-7.5,3.9-11.2,5.9
	C64.7,108.8,64.4,108.3,64.1,107.8z"/>
<path class="st0" d="M87,111.9c2.7-1.5,5.4-3.1,8.1-4.6c0.3,0.4,0.5,0.8,0.8,1.3c-2.6,1.6-5.3,3.1-7.9,4.7
	C87.6,112.9,87.3,112.4,87,111.9z"/>
<path class="st0" d="M61.5,111.5c-1.1,1.2-2.2,2.4-3.3,3.6c-0.3-0.4-0.7-0.7-1-1.1c1.3-1,2.5-2.1,3.8-3.1
	C61.2,111.2,61.3,111.3,61.5,111.5z"/>
<path class="st0" d="M82.8,115.9c0.7-0.6,1.4-1.3,2.1-1.9c0.2,0.2,0.4,0.4,0.6,0.6c-0.7,0.6-1.4,1.3-2.2,1.9
	C83.2,116.2,83,116,82.8,115.9z"/>
<path class="st0" d="M81.3,112.3c-0.6,0.4-1.2,0.9-1.8,1.3c-0.1-0.2-0.3-0.4-0.5-0.6c0.6-0.3,1.3-0.7,1.9-1L81.3,112.3z"/>
<path class="st0" d="M62,110c0.4-0.1,0.7-0.2,1.1-0.2c-0.2,0.2-0.4,0.5-0.6,0.7C62.4,110.4,62.2,110.2,62,110z"/>
<path class="st0" d="M85,114c0.4-0.1,0.8-0.1,1.2-0.2c-0.2,0.3-0.4,0.5-0.6,0.8C85.4,114.4,85.2,114.2,85,114z"/>
<path class="st0" d="M81,112c0.2-0.1,0.4-0.2,0.6-0.3c-0.1,0.2-0.2,0.4-0.4,0.6C81.3,112.3,81,112,81,112z"/>
<path class="st0" d="M61,111c0.3-0.3,0.7-0.6,1-0.9c0.2,0.2,0.3,0.3,0.5,0.5c-0.3,0.3-0.7,0.6-1,1C61.3,111.3,61.2,111.2,61,111z"/>
<path class="st0" d="M83.4,116.4c-0.2,0.2-0.5,0.3-0.7,0.5c0.1-0.4,0.1-0.7,0.2-1.1C83,116,83.2,116.2,83.4,116.4z"/>
<path class="st0" d="M253.6,228c-1.5-3.5-3-7.1-4.5-10.6c2.4-0.6,4.3-0.5,4.1,2.8c0.6,3,1.2,6,1.9,8.9
	C254.6,228.7,254.1,228.4,253.6,228z"/>
<path class="st0" d="M266.2,227.2c1.1,3.7,2.1,7.4,3.2,11.2c-0.3,0.1-0.6,0.2-0.9,0.3c-2.1-4.8-4.2-9.6-6.2-14.5
	c1,0.6,1.9,1.2,2.9,1.8C265.5,226.4,265.9,226.8,266.2,227.2L266.2,227.2z"/>
<path class="st0" d="M218.4,136.3c1.2,1.8,2.4,3.5,3.4,5.4c0.9,1.8,1.6,3.7,2.4,5.5c-2.7-3-5.3-6-8-9
	C216.9,137.6,217.7,136.9,218.4,136.3z"/>
<path class="st0" d="M218.4,210.7c-1.8,0-3.6,0-5.4,0C214.8,210.7,216.6,210.7,218.4,210.7z"/>
<path class="st0" d="M199.8,133.9c-1.9-0.5-3.7-0.9-5.6-1.4C196.1,133,197.9,133.5,199.8,133.9z"/>
<path class="st0" d="M186.1,209c1.4-0.3,2.7-0.5,4.1-0.8c0,0.7,0,1.3,0,2c-1.3,0.1-2.7,0.1-4,0.2C186.2,209.9,186.2,209.5,186.1,209
	z"/>
<path class="st0" d="M181.5,130.3c-1.5,0.3-2.9,0.6-4.4,1C178.6,131,180.1,130.6,181.5,130.3z"/>
<path class="st0" d="M159.3,131.2c1.3,0.1,2.6,0.2,3.9,0.3"/>
<path class="st0" d="M217.2,202.3c1.2-0.6,2.3-1.3,3.5-1.9C219.6,201,218.4,201.6,217.2,202.3z"/>
<path class="st0" d="M272,237.2c0.1-0.7,0.2-1.4,0.2-2.1c0,0,0,0,0,0c0.3,0.3,0.6,0.6,0.9,0.8C272.7,236.4,272.4,236.8,272,237.2z"
	/>
<path class="st0" d="M226.1,140.3c0.1-0.2,0.3-0.4,0.5-0.5c0.3,0.3,0.7,0.7,1.1,1"/>
<path class="st0" d="M266.2,227.2c-0.4-0.4-0.7-0.8-1.1-1.2C265.5,226.4,265.9,226.8,266.2,227.2z"/>
<path class="st0" d="M273.1,236c-0.3-0.3-0.6-0.6-0.9-0.8C272.5,235.4,272.8,235.7,273.1,236z"/>
<path class="st0" d="M202.4,73.3c0-0.7,0-1.3,0-2c0.2-0.7,0.4-1.4,0.7-2.1c0.3-1.3,0.6-2.7,0.9-4c0-2,0-4,0-6
	c0.4-0.4,0.8-0.7,1.2-1.1c-0.4,5.5-0.8,10.9-1.2,16.4C203.5,74.1,202.9,73.7,202.4,73.3z"/>
<path class="st0" d="M191.2,76.2c0.3,5,0.6,10,0.9,15.1c-0.3,0-0.6,0-0.9-0.1c-0.3-1.7-0.6-3.3-0.9-5c-0.1-1.3-0.2-2.7-0.3-4
	c0-0.7-0.1-1.3-0.1-2C190.3,78.9,190.8,77.5,191.2,76.2z"/>
<path class="st0" d="M181.2,209c-4,0-8,0.1-12,0.1"/>
<path class="st0" d="M108.2,199.3c-0.6,0-1.3,0-1.9,0"/>
<path class="st0" d="M126.2,207c-1.3,0-2.7-0.1-4-0.1"/>
<path class="st0" d="M72.2,187.2c0.7,1.3,1.3,2.7,2,4c-1-0.3-1.9-0.7-2.9-1c0-0.3,0-0.7,0-1C71.5,188.5,71.9,187.8,72.2,187.2z"/>
<path class="st0" d="M186.1,209c0,0.4,0,0.9,0.1,1.3c-1.3,0.2-2.7,0.3-4,0.5c0-0.5,0-1,0-1.5C183.5,209.2,184.8,209.1,186.1,209z"/>
<path class="st0" d="M155.2,209.3c-1,0-2,0-3,0"/>
<path class="st0" d="M86.7,196.3c-0.2-0.7-0.3-1.5-0.5-2.2c0.5,0.7,0.9,1.5,1.4,2.2c0,0-0.4,0-0.4,0L86.7,196.3z"/>
<path class="st0" d="M255.2,106.2c-0.6,0.3-1.3,1-1.7,0.8c-6.2-2.5-12.3-5.1-18.2-8.6c4.6,1.5,9.3,2.9,13.9,4.4
	c1.7,0.5,3.4,1,5.1,1.4c0,0,0,0,0,0C254.6,104.8,254.9,105.5,255.2,106.2L255.2,106.2z"/>
<path class="st0" d="M246.4,116.3c-0.1-1.4-0.2-2.7-0.3-4.1c0.7,1.3,1.4,2.7,2.1,4C247.6,116.2,247,116.2,246.4,116.3z"/>
<path class="st0" d="M102.2,133.5c-2.4,0.5-4.9,1-7.3,1.6C97.3,134.6,99.8,134,102.2,133.5z"/>
<path class="st0" d="M78.8,138.9c1.1-0.2,2.3-0.4,3.4-0.6"/>
<path class="st0" d="M75.2,140c-0.7,1.1-1.3,2.1-2,3.2l0,0"/>
<path class="st0" d="M143.2,132.3c-1,0.2-2,0.5-3.1,0.7C141.2,132.8,142.2,132.6,143.2,132.3z"/>
<path class="st0" d="M152.3,133c-0.7-0.2-1.4-0.5-2.1-0.7C150.9,132.6,151.6,132.8,152.3,133z"/>
<path class="st0" d="M132.4,133.1c-0.4-0.3-0.7-0.5-1.1-0.8C131.6,132.6,132,132.9,132.4,133.1z"/>
<path class="st0" d="M115.2,95.3c-1.9-1.1-3.8-2.2-5.8-3.2"/>
<path class="st0" d="M41.2,257.2c0.3,0.3,0.7,0.7,1,1C41.8,257.9,41.5,257.5,41.2,257.2z"/>
<path class="st0" d="M192.7,22c-1.2-0.4-2.4-0.7-3.6-1.1C190.3,21.3,191.5,21.7,192.7,22z"/>
<path class="st0" d="M255.2,106.2c-0.3-0.7-0.7-1.4-1-2.1C254.6,104.8,254.9,105.5,255.2,106.2z"/>
<path class="st0" d="M273.3,243.1c0-0.7-0.1-1.3-0.1-2c0.5,0.4,1,0.8,1.6,1.2C274.3,242.6,273.8,242.9,273.3,243.1z"/>
<path class="st0" d="M183.2,276.2c0.7-0.7,1.4-1.4,2-2C184.6,274.9,183.9,275.5,183.2,276.2z"/>
<path class="st0" d="M88.6,180.1c-2.3-5.4-1.6-11.1-1.4-16.7c0.3-0.1,0.5-0.1,0.8-0.1c1,6.2,2,12.5,3,18.7
	C90.3,181.3,89.5,180.7,88.6,180.1z"/>
<path class="st0" d="M93.4,153.2c-0.7,3.3-1.3,6.6-2,10c0-5.7,0-11.4,0-17.2c0.6,0,1.1,0,1.7,0C93.1,148.4,93.2,150.8,93.4,153.2z"
	/>
<path class="st0" d="M83.4,151.2c-0.7,4.1-1.3,8.2-2,12.3c-1.8-4.6-1.5-9.2,0.4-13.6c0-0.1,0.9,0.2,1.3,0.4
	C83.2,150.5,83.3,150.9,83.4,151.2z"/>
<path class="st0" d="M237.3,167.2c0,1,0,2,0.1,3c-0.7,2.6-1.4,5.3-2.1,7.9c0-1.3-0.1-2.6-0.1-3.9c0-0.7,0-1.3,0-2c0-1,0-2,0-3
	c0.4-2,0.7-3.9,1.1-5.9c0,0.3,0.1,0.6,0.3,0.9C236.7,165.2,237,166.2,237.3,167.2z"/>
<path class="st0" d="M99.4,167.2c-0.1,1.6-0.1,3.2-0.2,4.8c-0.5,0-0.9,0.1-1.4,0.1c-0.2-5.3-0.4-10.6-0.6-15.9
	C97.9,159.9,98.6,163.5,99.4,167.2z"/>
<path class="st0" d="M228.2,144.2c0.3,0,0.7,0,1,0.1c1.8,3.9,3.6,7.9,5.5,11.8c-0.4,0.2-0.8,0.4-1.2,0.6c-0.6-0.9-1.2-1.8-1.9-2.7
	C230.5,150.8,229.3,147.5,228.2,144.2z"/>
<path class="st0" d="M224.2,147.2c0.7,1.1,1.4,2.3,2.1,3.4C225.6,149.5,224.9,148.3,224.2,147.2z"/>
<path class="st0" d="M247.2,224.2c0.1-0.1,0.2-0.3,0.2-0.4C247.4,223.9,247.3,224.1,247.2,224.2
	C247.2,224.2,247.2,224.2,247.2,224.2z"/>
<path class="st0" d="M227.2,143.2"/>
<path class="st0" d="M227.2,143.2c0.3,0.3,0.7,0.7,1,1C227.9,143.9,227.5,143.5,227.2,143.2z"/>
<path class="st0" d="M116.3,80.2c-1-4-2-8-3.1-12"/>
<path class="st0" d="M113.2,68.2c1,4,2,8,3.1,12c-0.4,0-0.7,0-1.1,0c-0.7-1.3-1.4-2.7-2.1-4c-0.6-2-1.1-4-1.7-6
	c-0.1-2.4-0.1-4.7-0.2-7.1c0.4,0.4,0.8,0.7,1.2,1.1c0.2,0.7,0.3,1.4,0.5,2.1C113,67,113.1,67.6,113.2,68.2z"/>
<path class="st0" d="M112.2,83.2"/>
<path class="st0" d="M209.7,57.4"/>
<path class="st0" d="M112.9,66.3c-0.2-0.7-0.3-1.4-0.5-2.1C112.6,64.9,112.7,65.6,112.9,66.3z"/>
<path class="st0" d="M203.2,33.2c0.3,0.7,0.7,1.3,1,2C203.9,34.5,203.5,33.9,203.2,33.2z"/>
<path class="st0" d="M205.2,35.2c0.1,0.2,0.3,0.4,0.4,0.7c0,0-0.2,0.2-0.4,0.3C205.2,35.9,205.2,35.5,205.2,35.2z"/>
<path class="st0" d="M192.2,75.2"/>
<path class="st0" d="M90.6,186.2c0.2-0.4,0.4-0.9,0.5-1.3c2,4.8,4,9.5,6,14.3c-1.7-2.7-3.3-5.3-5-8
	C91.7,189.5,91.1,187.9,90.6,186.2z"/>
<path class="st0" d="M71.2,172.3c1.4,4.8,2.9,9.5,7.9,12.5c-0.2-1.2-0.4-2.3-0.6-3.5c0.6,0,1.2-0.1,1.8-0.1c0.6,1,1.3,2.1,1.9,3.1
	c0.3,0.6,0.6,1.3,0.9,1.9c0.4,2,0.8,4,1.2,5.9c-2-1-4-1.9-6-2.9c-2.6-4.4-5.2-8.8-7.8-13.2c-0.1-1.3-0.1-2.6-0.2-4
	C70.5,172.2,70.8,172.2,71.2,172.3z"/>
<path class="st0" d="M86.2,194.2c-0.3-0.3-0.7-0.7-1-1C85.5,193.5,85.9,193.9,86.2,194.2z"/>
<path class="st0" d="M85.2,193.2c-0.3-0.3-0.7-0.7-1-1C84.5,192.5,84.9,192.9,85.2,193.2z"/>
<path class="st0" d="M71.2,185.2c-1.3-1.7-2.5-3.4-3.8-5.1c-0.4-1.1-0.8-2.2-1-3.3c0-0.1,1.1-0.4,1.7-0.7
	C69.2,179.2,70.2,182.2,71.2,185.2z"/>
<path class="st0" d="M72.2,187.2c-0.3-0.7-0.7-1.4-1-2C71.5,185.9,71.9,186.5,72.2,187.2z"/>
<path class="st0" d="M74.1,148.7c-0.2-0.2-0.5-0.4-0.7-0.6"/>
<path class="st0" d="M104.9,66.9"/>
<path class="st0" d="M105.4,79.9"/>
<path class="st0" d="M108.1,82.5"/>
</svg>
