<?xml version="1.0" encoding="utf-8"?>
<!-- Generator: Adobe Illustrator 24.1.0, SVG Export Plug-In . SVG Version: 6.00 Build 0)  -->
<svg version="1.1" id="Calque_1" xmlns="http://www.w3.org/2000/svg" xmlns:xlink="http://www.w3.org/1999/xlink" x="0px" y="0px"
	 viewBox="0 0 126 130" style="enable-background:new 0 0 126 130;" xml:space="preserve">
<style type="text/css">
	.st0{fill:#464E9F;}
	.st1{fill:#C3BED0;}
	.st2{fill:none;stroke:#707070;}
	.st3{fill:#D1D3E4;}
	.st4{fill:#FEF8F2;}
	.st5{fill:#F2E6E9;}
</style>
<g>
	<path class="st0" d="M57.6,12.8c2.1,0,4.2,0,6.2,0c1.7,0.2,3.4,0.4,5.1,0.7c9.4,1.6,17.7,5.5,24.8,11.9
		c8.7,7.7,14.1,17.4,16.2,28.8c0.3,1.8,0.5,3.7,0.8,5.5c0,2.1,0,4.2,0,6.2c-0.2,1.2-0.3,2.4-0.5,3.7c-1.4,10-5.4,18.8-12.2,26.3
		c-7.7,8.6-17.3,14-28.7,16.1c-1.8,0.3-3.7,0.5-5.6,0.8c-2.1,0-4.2,0-6.2,0c-1.2-0.2-2.4-0.3-3.7-0.4C44,111,35.2,107,27.7,100.3
		C19,92.6,13.6,83,11.5,71.6c-0.3-1.8-0.5-3.7-0.8-5.6c0-2.1,0-4.2,0-6.2c0.2-1.7,0.4-3.4,0.7-5c1.8-10.4,6.3-19.4,13.7-26.9
		c7.5-7.6,16.5-12.3,27-14.2C54,13.3,55.8,13.1,57.6,12.8z M60.8,85.5c8.5,0,16.9,0,25.4,0c4.2,0,6.8-2.6,6.8-6.8
		c0-10.6,0-21.3,0-31.9c0-4.1-2.6-6.7-6.7-6.7c-17,0-34,0-51.1,0c-0.7,0-1.3,0-1.9,0.2c-2.9,0.8-4.7,3.2-4.8,6.4
		c0,10.6,0.1,21.3-0.1,31.9c-0.1,3.9,2.7,7.1,7,7C43.9,85.5,52.3,85.5,60.8,85.5z"/>
	<path class="st0" d="M33.8,47.9c2,1.6,3.9,3,5.7,4.5c6.5,5.1,12.9,10.2,19.3,15.4c1.4,1.1,2.5,1.1,3.9,0
		c7.9-6.3,15.8-12.5,23.7-18.8c0.4-0.3,0.8-0.6,1.4-1.1c0,0.5,0.1,0.8,0.1,1.1c0,9.8,0,19.7,0,29.5c0,1.6-0.2,1.9-1.8,1.9
		c-16.8,0-33.6,0-50.5,0c-1.5,0-1.7-0.3-1.7-1.7c0-9.9,0-19.9,0-29.9C33.7,48.6,33.7,48.4,33.8,47.9z"/>
	<path class="st0" d="M38.9,45.3c14.6,0,29.1,0,43.7,0c-0.3,0.3-0.4,0.4-0.6,0.5c-6.9,5.5-13.7,10.9-20.6,16.4
		c-0.4,0.3-0.7,0.5-1.2,0.1c-7-5.6-14-11.1-20.9-16.6C39.2,45.6,39.1,45.5,38.9,45.3z"/>
</g>
<g id="Groupe_1" transform="translate(618 226)">
	<g id="Rectangle_1" transform="translate(-618 63)">
		<rect x="-1208.5" y="-402.4" class="st1" width="224" height="81.4"/>
		<rect x="-1208.2" y="-402.1" class="st2" width="223.3" height="80.8"/>
	</g>
	<g id="Rectangle_2" transform="translate(-618 352)">
		<rect x="-1208.5" y="-537.7" class="st3" width="224" height="81.4"/>
		<rect x="-1208.2" y="-537.4" class="st2" width="223.3" height="80.8"/>
	</g>
	<g id="Rectangle_3" transform="translate(-618 877)">
		<rect x="-1208.5" y="-783.5" class="st4" width="224" height="81.4"/>
		<rect x="-1208.2" y="-783.2" class="st2" width="223.3" height="80.8"/>
	</g>
	<g id="Rectangle_4" transform="translate(-618 624)">
		<rect x="-1208.5" y="-665" class="st5" width="224" height="81.4"/>
		<rect x="-1208.2" y="-664.8" class="st2" width="223.3" height="80.8"/>
	</g>
	<g id="Rectangle_5" transform="translate(-618 -226)">
		<rect x="-1208.5" y="-267.1" class="st0" width="224" height="81.4"/>
		<rect x="-1208.2" y="-266.8" class="st2" width="223.3" height="80.8"/>
	</g>
</g>
</svg>
