<?xml version="1.0" encoding="utf-8"?>
<!-- Generator: Adobe Illustrator 24.1.0, SVG Export Plug-In . SVG Version: 6.00 Build 0)  -->
<svg version="1.1" id="Calque_1" xmlns="http://www.w3.org/2000/svg" xmlns:xlink="http://www.w3.org/1999/xlink" x="0px" y="0px"
	 viewBox="0 0 109.6 121.2" style="enable-background:new 0 0 109.6 121.2;" xml:space="preserve">
<style type="text/css">
	.st0{fill:#464E9F;}
	.st1{fill:#C3BED0;}
	.st2{fill:none;stroke:#707070;}
	.st3{fill:#D1D3E4;}
	.st4{fill:#FEF8F2;}
	.st5{fill:#F2E6E9;}
</style>
<g>
	<path class="st0" d="M60.9,112.3c-0.9,0-1.8,0-2.7,0c-0.4-0.1-1-0.2-1.5-0.2c-4.2-0.1-8.4-0.9-12.4-2.2
		c-19.4-6.9-31-20.4-34.3-40.8c-0.9-5.6-0.7-11.3,0.4-16.9C12.9,41,18.3,31.6,27,24.4c12.4-10.4,26.6-14.1,42.5-11
		c11.5,2.1,20.9,7.9,28.4,16.8c6.5,7.7,10.3,16.5,11.3,26.6c0.1,1.3,0.3,2.7,0.4,4c0,0.9,0,1.8,0,2.7c-0.1,0.6-0.1,1.2-0.2,1.8
		c-0.3,2.2-0.4,4.6-0.9,6.8c-2.3,11.3-7.9,20.7-16.8,28.2C84,106.7,75,110.5,65,111.7C63.7,112.1,62.3,112.2,60.9,112.3z M49.6,64.3
		c0,0.6,0,1,0,1.5c0,10.1,0,20.1,0,30.2c0,0.9,0.2,1.2,1.1,1.2c3.8,0,7.6,0,11.3,0c1.3,0,1.3,0,1.3-1.2c0-10.1,0-20.1,0-30.2
		c0-0.4,0-0.8,0-1.3c0.6,0,0.9,0,1.2,0c2.2,0,4.6,0,6.8,0c0.4,0,0.9,0,0.9-0.7c0.3-3.5,0.7-6.8,1-10.3c0-0.2,0-0.4,0-0.8
		c-3.4,0-6.6,0-9.9,0c0-2.3,0-4.5,0-6.6c0-2,1-3,3-3c2.1,0,4.1,0,6.3,0c0.6,0,0.9-0.1,0.9-0.8c0-3.2,0-6.5,0-9.7
		c0-0.6-0.2-0.9-0.8-0.8c-3.9,0.1-7.8-0.1-11.7,0.2c-6.9,0.6-10.7,5.5-11.3,11.7c-0.2,2.6-0.1,5.3-0.2,7.9c0,0.3,0,0.8,0,1.2
		c-1.8,0-3.6,0-5.3,0c-0.8,0-1.1,0.2-1.1,1.1c0,3.2,0,6.4,0,9.6c0,0.8,0.2,1.1,1.1,1C45.9,64.3,47.7,64.3,49.6,64.3z"/>
</g>
<g id="Groupe_1" transform="translate(618 226)">
	<g id="Rectangle_1" transform="translate(-618 63)">
		<rect x="-540.5" y="-421" class="st1" width="224" height="81.4"/>
		<rect x="-540.2" y="-420.8" class="st2" width="223.3" height="80.8"/>
	</g>
	<g id="Rectangle_2" transform="translate(-618 352)">
		<rect x="-540.5" y="-556.3" class="st3" width="224" height="81.4"/>
		<rect x="-540.2" y="-556.1" class="st2" width="223.3" height="80.8"/>
	</g>
	<g id="Rectangle_3" transform="translate(-618 877)">
		<rect x="-540.5" y="-802.1" class="st4" width="224" height="81.4"/>
		<rect x="-540.2" y="-801.9" class="st2" width="223.3" height="80.8"/>
	</g>
	<g id="Rectangle_4" transform="translate(-618 624)">
		<rect x="-540.5" y="-683.7" class="st5" width="224" height="81.4"/>
		<rect x="-540.2" y="-683.4" class="st2" width="223.3" height="80.8"/>
	</g>
	<g id="Rectangle_5" transform="translate(-618 -226)">
		<rect x="-540.5" y="-285.8" class="st0" width="224" height="81.4"/>
		<rect x="-540.2" y="-285.5" class="st2" width="223.3" height="80.8"/>
	</g>
</g>
</svg>
