<?xml version="1.0" encoding="utf-8"?>
<!-- Generator: Adobe Illustrator 24.1.0, SVG Export Plug-In . SVG Version: 6.00 Build 0)  -->
<svg version="1.1" id="Calque_1" xmlns="http://www.w3.org/2000/svg" xmlns:xlink="http://www.w3.org/1999/xlink" x="0px" y="0px"
	 viewBox="0 0 128 129.7" style="enable-background:new 0 0 128 129.7;" xml:space="preserve">
<style type="text/css">
	.st0{fill:#464E9F;}
	.st1{fill:#C3BED0;}
	.st2{fill:none;stroke:#707070;}
	.st3{fill:#D1D3E4;}
	.st4{fill:#FEF8F2;}
	.st5{fill:#F2E6E9;}
</style>
<g>
	<path class="st0" d="M64.3,16.9c2.1,0,4.2,0,6.3,0c0.2,0,0.4,0.1,0.8,0.1c7.8,0.6,15.1,2.8,21.7,6.9c12.9,8,20.9,19.3,23.6,34.3
		c0.3,1.8,0.6,3.7,0.8,5.5c0,2.1,0,4.2,0,6.3c-0.1,0.7-0.2,1.2-0.2,1.9c-1.1,9.9-4.6,18.8-11,26.4c-7.9,9.7-17.9,15.6-30,17.9
		c-1.8,0.3-3.7,0.6-5.6,0.8c-2.1,0-4.2,0-6.3,0c-1.2-0.1-2.5-0.2-3.7-0.4c-9.2-1.3-17.5-4.8-24.7-10.8c-9.4-7.9-15.4-17.9-17.6-30
		c-0.3-1.8-0.6-3.7-0.8-5.6c0-2.1,0-4.2,0-6.3c0.1-0.7,0.1-1.2,0.2-1.9c1.1-10.6,5.2-20,12.2-28c7.8-8.8,17.4-14.2,29-16.2
		C60.7,17.4,62.5,17.1,64.3,16.9z M67.4,38c0,0.1,0,0.2,0,0.3c-4,0-8.2-0.1-12.2,0c-3.4,0.1-6.5,0.9-9.3,2.7
		c-4.7,3.1-6.7,7.8-6.9,13.1c-0.2,8.4-0.1,16.7,0,25.2c0,3.3,0.9,6.3,2.7,9c3.1,4.7,7.9,6.7,13.3,6.9c8.3,0.2,16.6,0.1,24.9,0
		c4.2-0.1,8-1.3,11-4.3c3.5-3.3,4.8-7.4,4.9-11.9c0.2-6.6,0.2-13.5,0.2-20.3c0-2-0.1-4-0.3-6.1c-0.8-7.8-6.3-13.4-14-14
		C77,38.3,72.1,38.3,67.4,38z"/>
	<path class="st0" d="M67.5,43.3c4.3,0.1,8.5,0.1,12.9,0.4c6.1,0.3,10,4.2,10.2,10.2c0.2,8.7,0.2,17.4,0,26.1
		c-0.1,6.1-4.2,10-10.2,10.2c-8.7,0.2-17.3,0.2-26,0c-6.2-0.1-10.1-4-10.2-10.2c-0.2-8.8-0.1-17.4,0-26.2c0.1-3.8,1.8-6.9,5.3-8.8
		c2.1-1.1,4.5-1.5,6.9-1.5c3.7,0,7.4,0,11.1,0C67.5,43.4,67.5,43.3,67.5,43.3z M82.1,66.9c0-8.1-6.5-14.7-14.7-14.7
		s-14.8,6.5-14.8,14.7c0,8.1,6.5,14.7,14.7,14.7S82.1,75.1,82.1,66.9z M86.2,51.5c0-1.9-1.6-3.4-3.4-3.4c-1.9,0-3.5,1.5-3.5,3.5
		c0,1.9,1.5,3.4,3.4,3.4S86.2,53.5,86.2,51.5z"/>
	<path class="st0" d="M77,66.9c0,5.3-4.3,9.6-9.6,9.6s-9.6-4.4-9.6-9.7c0-5.3,4.4-9.6,9.7-9.4C72.7,57.4,77,61.6,77,66.9z"/>
</g>
<g id="Groupe_1" transform="translate(618 226)">
	<g id="Rectangle_1" transform="translate(-618 63)">
		<rect x="-468.5" y="-394.1" class="st1" width="224" height="81.4"/>
		<rect x="-468.2" y="-393.9" class="st2" width="223.3" height="80.8"/>
	</g>
	<g id="Rectangle_2" transform="translate(-618 352)">
		<rect x="-468.5" y="-529.4" class="st3" width="224" height="81.4"/>
		<rect x="-468.2" y="-529.2" class="st2" width="223.3" height="80.8"/>
	</g>
	<g id="Rectangle_3" transform="translate(-618 877)">
		<rect x="-468.5" y="-775.2" class="st4" width="224" height="81.4"/>
		<rect x="-468.2" y="-774.9" class="st2" width="223.3" height="80.8"/>
	</g>
	<g id="Rectangle_4" transform="translate(-618 624)">
		<rect x="-468.5" y="-656.8" class="st5" width="224" height="81.4"/>
		<rect x="-468.2" y="-656.5" class="st2" width="223.3" height="80.8"/>
	</g>
	<g id="Rectangle_5" transform="translate(-618 -226)">
		<rect x="-468.5" y="-258.8" class="st0" width="224" height="81.4"/>
		<rect x="-468.2" y="-258.6" class="st2" width="223.3" height="80.8"/>
	</g>
</g>
</svg>
