<?xml version="1.0" encoding="utf-8"?>
<!-- Generator: Adobe Illustrator 24.1.0, SVG Export Plug-In . SVG Version: 6.00 Build 0)  -->
<svg version="1.1" id="Calque_1" xmlns="http://www.w3.org/2000/svg" xmlns:xlink="http://www.w3.org/1999/xlink" x="0px" y="0px"
	 viewBox="0 0 475 372" style="enable-background:new 0 0 475 372;" xml:space="preserve">
<style type="text/css">
	.st0{enable-background:new    ;}
	.st1{fill:#9988BD;}
	.st2{fill:#D1D3E4;}
	.st3{fill:none;stroke:#707070;}
	.st4{fill:#FEF8F2;}
	.st5{fill:#F2E6E9;}
	.st6{fill:#464E9F;}
	.st7{fill:#FFFFFF;stroke:#9988BD;stroke-width:0.75;stroke-miterlimit:10;}
	.st8{fill:#FFFFFF;stroke:#000000;stroke-width:0.75;stroke-miterlimit:10;}
	.st9{font-family:'BodoniSvtyTwoITCTT-Book';}
	.st10{font-size:91.4077px;}
	.st11{font-family:'BodoniSvtyTwoITCTT-BookIta';}
	.st12{font-size:17.8245px;}
	.st13{letter-spacing:4;}
	.st14{letter-spacing:2;}
	.st15{fill:none;stroke:#9988BD;stroke-width:0.75;stroke-miterlimit:10;}
	.st16{fill:#FFFFFF;}
</style>
<g id="Rectangle_1" transform="translate(-618 63)" class="st0">
	<rect x="-236.7" y="47.8" class="st1" width="239.7" height="87.5"/>
	<rect x="-236.3" y="48.1" class="st1" width="239" height="86.9"/>
</g>
<g id="Rectangle_2" transform="translate(-618 352)">
	<rect x="-236.7" y="-76" class="st2" width="239.7" height="87.5"/>
	<rect x="-236.3" y="-75.7" class="st3" width="239" height="86.9"/>
</g>
<g id="Rectangle_3" transform="translate(-618 877)">
	<rect x="-236.7" y="-300.9" class="st4" width="239.7" height="87.5"/>
	<rect x="-236.3" y="-300.6" class="st3" width="239" height="86.9"/>
</g>
<g id="Rectangle_4" transform="translate(-618 624)">
	<rect x="-236.7" y="-192.5" class="st5" width="239.7" height="87.5"/>
	<rect x="-236.3" y="-192.2" class="st3" width="239" height="86.9"/>
</g>
<g id="Rectangle_5" transform="translate(-618 -226)">
	<rect x="-236.7" y="171.6" class="st6" width="239.7" height="87.5"/>
	<rect x="-236.3" y="171.9" class="st3" width="239" height="86.9"/>
</g>
<g>
	<path class="st7" d="M259.1,67.9C196.6,67.9,146,118.6,146,181s50.6,113.1,113.1,113.1S372.2,243.5,372.2,181
		S321.6,67.9,259.1,67.9z"/>
	<path class="st7" d="M251.3,77.5c-60,0-108.5,48.6-108.5,108.5s48.6,108.5,108.5,108.5S359.9,246,359.9,186.1
		S311.3,77.5,251.3,77.5z"/>
	<path class="st7" d="M257.3,83.4c-58.5,0-105.8,47.4-105.8,105.8s47.4,105.8,105.8,105.8s105.8-47.4,105.8-105.8
		S315.7,83.4,257.3,83.4z"/>
	<path class="st7" d="M263.2,80.3c-58.5,0-105.8,47.4-105.8,105.8s47.4,105.8,105.8,105.8S369,244.5,369,186.1
		S321.7,80.3,263.2,80.3z"/>
	<path class="st7" d="M254.1,80.3c-58.5,0-105.8,47.4-105.8,105.8s47.4,105.8,105.8,105.8s105.8-47.4,105.8-105.8
		S312.5,80.3,254.1,80.3z"/>
	<path class="st8" d="M257.3,80.3c-58.5,0-105.8,47.4-105.8,105.8s47.4,105.8,105.8,105.8s105.8-47.4,105.8-105.8
		S315.7,80.3,257.3,80.3z"/>
	<path class="st7" d="M257.3,80.3c-58.5,0-105.8,47.4-105.8,105.8s47.4,105.8,105.8,105.8s105.8-47.4,105.8-105.8
		S315.7,80.3,257.3,80.3z"/>
	<text transform="matrix(1 0 0 1 213.2031 181.2114)" class="st1 st9 st10">S</text>
	<text transform="matrix(1 0 0 1 247.0312 237.2895)" class="st1 st9 st10">E</text>
	<text transform="matrix(1 0 0 1 257.2148 151.227)" class="st1 st11 st12 st13">souffle</text>
	<text transform="matrix(1 0 0 1 208.3867 258.6606)" class="st1 st11 st12 st14">dՎquilibre</text>
	<g>
		<path class="st15" d="M286.1,168.2c0,0,3.5-3.3,5.4-1.1c2.5,2.9-0.9,11.4,2,17.7c1.6,3.4,3.2,2.2,6.5,7.7c1.8,3.1,2.7,5.7,3.1,5.4
			c0.5-0.4-0.1-4.6-1.1-7.8c-0.5-1.6-0.7-1.8-1.8-5c-0.3-1-0.5-1.7-1-2.8c-0.1-0.3-0.6-1.4-1.5-2.7c-1.1-1.6-1.9-2.1-3.9-5.9
			c-1.8-3.4-2.3-4.6-3.8-5.5C288,166.9,286.1,168.2,286.1,168.2z"/>
		<path class="st15" d="M319.9,178.1c-7,8.2-10.5,15.3-12.4,20.5c-0.5,1.4-1.6,4.4-3.4,8.2c-2.5,5-4.9,8.6-6.6,10.8"/>
		<path class="st15" d="M295.3,160.7c1.9,2.2,2.8,4.5,3.2,6.2c1.1,3.7,0.4,5.3,1.6,12.6c0.2,1.3,0.5,3.1,1.1,6
			c0.3,1.5,0.7,3.8,1,6.9c0,0.2,0,0.1,0,0.2c0.3,3.3,1.1,5.5,1.5,6.5c0.5,1.5,0.8,3.8,0.3,7.7"/>
		<path class="st15" d="M293.9,173.8c0.4,2.6,0.9,4.8,1.3,6.5c0,0,0.8,3.1,1.9,6.1l0,0c0,0,1.9,3.9,2.1,4.4"/>
		<path class="st15" d="M319.9,178.1c-0.1-0.3-0.7,0-3.5,2.6c-3.4,3.1-5.1,4.7-6,5.9c-3.7,5.3-5.4,14.5-4.2,16
			c1,1.2,4.1-2.5,5.9-5.8c1.8-3.2,1.6-4.5,3.9-10C318.3,181.3,320.2,178.7,319.9,178.1z"/>
		<path class="st15" d="M296.7,168.9"/>
		<path class="st15" d="M294.8,161c-0.2,0.5,0.7,1.9,1.6,3.8c1.6,3.8,1.1,6.2,2,14.4c0.4,3.5,1.1,8.7,2.8,14.4
			c0.7,2.3,1.7,5.9,2.5,5.6c0.9-0.3,0.8-6.1,0.8-8c0-4.5-0.6-8-0.8-9c-0.9-5.5-1.6-4.7-3-11.3c-0.9-4.3-1.1-5.8-2.2-7.5
			C297.1,161.3,295.1,160.3,294.8,161z"/>
	</g>
	<g>
		<path class="st15" d="M226.6,129.8c0,0-1.9-1.3-4,0c-1.5,0.9-2,2.1-3.8,5.5c-2,3.8-2.8,4.2-3.9,5.9c-0.9,1.3-1.4,2.4-1.5,2.7
			c-0.5,1.1-0.7,1.8-1,2.8c-1.1,3.2-1.3,3.4-1.8,5c-1,3.3-1.6,7.4-1.1,7.8c0.4,0.3,1.2-2.3,3.1-5.4c3.3-5.5,4.9-4.3,6.5-7.7
			c3-6.3-0.5-14.8,2-17.7C223.1,126.5,226.6,129.8,226.6,129.8z"/>
		<path class="st15" d="M215.4,179.2c-1.7-2.2-4.2-5.8-6.6-10.8c-1.8-3.8-2.9-6.9-3.4-8.2c-1.9-5.2-5.4-12.3-12.4-20.5"/>
		<path class="st15" d="M208.7,168.4c-0.5-3.9-0.1-6.2,0.3-7.7c0.3-1.1,1.2-3.2,1.5-6.5c0-0.1,0,0,0-0.2c0.3-3.2,0.7-5.5,1-6.9
			c0.5-3,0.9-4.7,1.1-6c1.2-7.2,0.5-8.9,1.6-12.6c0.5-1.6,1.4-3.9,3.2-6.2"/>
		<path class="st15" d="M213.6,152.3c0.2-0.5,2.1-4.3,2.1-4.4l0,0c1.1-3.1,1.9-6.1,1.9-6.1c0.5-1.7,0.9-3.9,1.3-6.5"/>
		<path class="st15" d="M192.9,139.7c-0.3,0.6,1.6,3.2,3.9,8.8c2.3,5.5,2.1,6.9,3.9,10c1.9,3.3,5,6.9,5.9,5.8
			c1.1-1.5-0.5-10.6-4.2-16c-0.9-1.3-2.6-2.8-6-5.9C193.6,139.6,193,139.4,192.9,139.7z"/>
		<path class="st15" d="M216.1,130.5"/>
		<path class="st15" d="M217.9,122.6c-0.3-0.6-2.3,0.4-3.7,2.5c-1.1,1.7-1.4,3.2-2.2,7.5c-1.3,6.6-2,5.8-3,11.3
			c-0.2,1-0.7,4.4-0.8,9c0,1.9-0.1,7.6,0.8,8c0.7,0.3,1.8-3.3,2.5-5.6c1.7-5.7,2.4-10.9,2.8-14.4c0.9-8.1,0.4-10.5,2-14.4
			C217.2,124.4,218.1,123.1,217.9,122.6z"/>
	</g>
	<circle class="st16" cx="316.5" cy="67.9" r="3.4"/>
	<circle class="st16" cx="368.6" cy="126" r="3.4"/>
	<circle class="st1" cx="356" cy="171" r="2.3"/>
	<circle class="st1" cx="351.4" cy="163.2" r="2.3"/>
	<circle class="st16" cx="377.9" cy="146.7" r="1.4"/>
	<circle class="st16" cx="374.3" cy="137.2" r="2.3"/>
	<circle class="st16" cx="376.6" cy="168.7" r="1.4"/>
	<circle class="st1" cx="357.4" cy="195.7" r="1.4"/>
	<circle class="st16" cx="376.6" cy="195.7" r="2.3"/>
	<circle class="st16" cx="376.6" cy="205.3" r="2.3"/>
	<circle class="st16" cx="372" cy="210.3" r="1.4"/>
	<circle class="st1" cx="329.7" cy="249.4" r="3.4"/>
	<circle class="st1" cx="340.4" cy="241.4" r="2.3"/>
	<circle class="st16" cx="345" cy="262.8" r="2.3"/>
	<circle class="st16" cx="339.1" cy="269.2" r="2.3"/>
	<circle class="st16" cx="333.1" cy="275.2" r="2.3"/>
	<circle class="st16" cx="283.8" cy="298.9" r="2.3"/>
	<circle class="st16" cx="292.5" cy="295.3" r="2.3"/>
	<circle class="st16" cx="341.4" cy="276.5" r="2.3"/>
	<circle class="st16" cx="297.9" cy="296.7" r="1.4"/>
	<circle class="st16" cx="296.6" cy="290.7" r="1.4"/>
	<circle class="st1" cx="322.2" cy="255.1" r="1.4"/>
	<circle class="st16" cx="326.3" cy="278.8" r="1.4"/>
	<circle class="st1" cx="308.9" cy="103.3" r="2.3"/>
	<circle class="st1" cx="316.7" cy="105.6" r="1.4"/>
	<circle class="st1" cx="313.9" cy="110.2" r="1.4"/>
	<circle class="st1" cx="257.3" cy="86.4" r="1.4"/>
	<circle class="st16" cx="238.1" cy="63.1" r="2.3"/>
	<circle class="st16" cx="231.2" cy="59.5" r="1.4"/>
	<circle class="st16" cx="229.8" cy="64.5" r="1.4"/>
	<circle class="st16" cx="215.7" cy="71.3" r="1.4"/>
	<circle class="st16" cx="179.8" cy="87.6" r="3.4"/>
	<circle class="st16" cx="188.3" cy="80.9" r="2.3"/>
	<circle class="st1" cx="180.9" cy="118.9" r="2.3"/>
	<circle class="st16" cx="169.5" cy="85" r="2.3"/>
	<circle class="st16" cx="154.4" cy="121.2" r="1.4"/>
	<circle class="st1" cx="178.7" cy="125.7" r="2.3"/>
	<circle class="st1" cx="186" cy="123.4" r="1.4"/>
	<circle class="st1" cx="162.4" cy="166.2" r="3.4"/>
	<circle class="st1" cx="159" cy="175.5" r="2.3"/>
	<circle class="st1" cx="167.2" cy="173.7" r="1.4"/>
	<circle class="st16" cx="131.6" cy="183.3" r="2.3"/>
	<circle class="st16" cx="133.9" cy="213" r="1.4"/>
	<circle class="st1" cx="162.2" cy="214.4" r="2.3"/>
	<circle class="st16" cx="139.1" cy="223.3" r="3.4"/>
	<circle class="st1" cx="178.7" cy="248.2" r="2.3"/>
	<circle class="st1" cx="184.6" cy="256.4" r="2.3"/>
	<circle class="st16" cx="164.5" cy="262.8" r="2.3"/>
	<circle class="st16" cx="159.9" cy="256.4" r="1.4"/>
	<circle class="st16" cx="171.3" cy="269.2" r="1.4"/>
	<circle class="st1" cx="239.2" cy="282.3" r="3.4"/>
	<circle class="st1" cx="249" cy="285.7" r="2.3"/>
	<circle class="st16" cx="242.6" cy="298.9" r="2.3"/>
</g>
</svg>
