<?xml version="1.0" encoding="utf-8"?>
<!-- Generator: Adobe Illustrator 24.1.0, SVG Export Plug-In . SVG Version: 6.00 Build 0)  -->
<svg version="1.1" id="Calque_1" xmlns="http://www.w3.org/2000/svg" xmlns:xlink="http://www.w3.org/1999/xlink" x="0px" y="0px"
	 viewBox="0 0 1920 1155" style="enable-background:new 0 0 1920 1155;" xml:space="preserve">
<style type="text/css">
	.st0{fill:#FDFDFD;}
	.st1{fill:#CACBE0;}
	.st2{fill:#FEFEFE;}
	.st3{fill:#FCFCFD;}
	.st4{fill:#CBCCE0;}
	.st5{fill:#C6C7DD;}
	.st6{fill:#C5C7DD;}
	.st7{fill:#E4E4EF;}
	.st8{fill:#DADBE9;}
	.st9{fill:#E1E2ED;}
	.st10{fill:#F2F2F7;}
	.st11{fill:#F3F3F8;}
	.st12{fill:#F6F7F9;}
	.st13{fill:#E4E5EF;}
	.st14{fill:#FDFDFE;}
	.st15{fill:#CCCDE1;}
	.st16{fill:#F9F9FB;}
	.st17{fill:#F1F1F6;}
	.st18{fill:#EEEFF5;}
	.st19{fill:#E6E7F1;}
	.st20{fill:#F4F4F8;}
	.st21{fill:#C3BED0;}
	.st22{fill:none;stroke:#707070;}
	.st23{fill:#D1D3E4;}
	.st24{fill:#FEF8F2;}
	.st25{fill:#F2E6E9;}
	.st26{fill:#464E9F;}
</style>
<g>
	<path class="st0" d="M515.9,990.5c-22.1,9.5-45.6,11.2-66.7,1.4c-34.7-15.9-72.6-21.2-107.6-38.1c-28.5-13.7-58.9-25.8-88.1-39.1
		c-31.4-14.3-60.9-32.6-90.8-49.9c-6.6-3.8-13.3-9.6-12.1-19c1.2-9.1,8.2-13.9,15.8-16.1c47.6-13.3,95.1-30.4,145.1-25.3
		c43.7,4.4,87.2,1.6,130.7,3.4c13.3,0.5,26.1-1.3,39.9-6c-8.4-12.1-18.6-19.4-31.9-25.2C376.4,744.3,319,696,291.7,616.4
		c-10.3-30-22.4-58.8-24.7-90.8c-0.7-9.9-2.7-19.7-0.1-29.4c3.3-11.8,3.1-23.2,0.3-35.1c-1.8-7.6-2.3-15.9-1.3-23.6
		c2.5-19.3,15-27.6,33.7-22.8c41.5,10.5,77.8,31.4,111.8,56.6c4.2,3.1,7.8,8.9,13.5,5.4c6.3-3.8,1.6-9.5,0-14.1
		c-14.3-40.5-19.8-82.9-27.9-124.7c-4.7-24.2,6.7-47.8,1.7-72.7c-1.5-7.5,13.6-17.9,27.6-14.2c59.3,15.5,106.3,52.8,154,88.3
		c9.6,7.1,16.2,18.5,26.5,25.9c9.7,7,14.6,5.5,16-5.7c8.5-67.5,46.7-120.7,84.8-173.4c18.5-25.6,40.1-22.9,55.4,4.8
		c7.1,12.8,18.7,22,24.9,35.6c3.7,8.1,12,6.1,19.2,3c17.5-7.6,34.1-16.9,52.3-23.4c15.9-5.6,19.3-24,24.5-39
		c2.3-6.6,0.6-15.1,9.4-18.3c4.1,1.8,6.7,4.8,7.5,9.3c-1.8,35.1-12.1,63.6-50.9,74.5c-19.4,5.5-36.1,18.5-55.2,25.7
		c-10.8,1.9-15.2-5.9-19.8-13.3c-9.4-15.2-19.6-29.9-30.6-43.9c-5.2-6.6-12.1-10.5-18.1-2.6c-41.4,55.1-84.8,109.3-86,183.2
		c0,10.1,0.1,20.3,0.1,30.4c-3.3,23.3,8,45.3,7.1,66.2c5.4-26.7,15.8-54.3,30.3-80.2c14.7-26.2,22.6-28.1,48.7-11.6
		c16.8,10.6,32.9,22.1,47.9,35.2c17.6,15.3,18.8,15,34.2-3c3.4-4,6.5-8.4,11.8-10.3c1.9-0.5,3.9-0.5,5.9-0.1
		c8.1,2.3,8.9,11,14.6,16.8c8.7-2.8,11.4-11.7,16.8-17.7c11.1-12.1,16.6-12.6,27,0.2c20.9,25.8,37.8,54.4,52.1,84.2
		c21.3,44.2,39.2,89.7,41.1,139.7c-0.1,15.8-0.4,31.6,2.5,47.3c0,5.4-2.2,10.5-2.8,15.8c-11.3,37.3-19.2,75.4-28.7,113.2
		c-4.6,10.7-1.4,22.5-4.2,33.4c-0.8,3.9-2.3,7.7-3,11.7c-6.2,19.8-19.6,35.5-30.6,52.6c-2.9,4.5-6.8,11.5-13.5,8.4
		c-6-2.8-4.7-10.1-4.8-16c-0.4-13.7,0.8-27.4-1.6-41.2c-7.4-41.7-35.6-62.4-73.1-74.2c-8.2-2.6-16.5-4.6-23.5-9.9
		c-5.2-3.5-11.3-5.4-15.9-9.9c-15-34.1-18.4-69.4-11-105.7c7.4-17,22.7-26.2,38.1-32.8c41.8-17.9,45.4-55.9,48.2-92.2
		c1.8-23.8-5.3-48.3-16.8-73.2c-18.4,28.3-31.6,57.2-41,87.7c-8.2,26.5-15.5,53.2-18.1,80.9c-0.8,8.5-3.2,16.8-7.3,24.5
		c-7.9,9.9-11.2,26.1-29.6,21.5c-6.9-21.6-0.3-43,2-64.2c4.3-39.7,16.5-77.6,35.2-112.9c6.6-12.5,4.9-20.4-6.7-28.2
		c-17-11.4-32.3-25.2-48.8-37.4c-9.9-7.4-16-5.8-21.6,5.2c-14.7,28.6-22,59.5-27.4,90.7c-12.5,71.1-8.9,140.8,22,207.5
		c24.7,53.3,60.4,98.6,103.2,141.1c0.2-9-5.1-14.1-5.2-20.5c2.3-11.6-1.5-20.3-12.3-25.6c-10.4-18.3-18.9-37.2-22.9-58
		c1-8,5.9-10.6,13.3-9.9c4.3,0.7,7,4,10.6,5.9c15.2,34.3,26.6,70.3,47.3,102.3c12,18.5,28.5,33,41.7,50.3c2.4,3.2,6.2,4.5,10.3,5.4
		c18.5,4.1,22.4,9.7,15.7,26.8c-7,17.9-8.3,35.9-6.9,54.5c0.6,7.8,3.2,14.4,12.2,15.7c5.3,0.7,11,1,15-3.2c5-5.4,0.2-9.6-2.6-14
		c-7-11-13.4-22-0.5-33.4c2-0.9,4.1-1.5,6.3-1.8c42,4.5,83.7,11.1,125.6,16.1c50.1,5.9,99.9,4,149.9,1.4c7.7-0.4,15.8-3.4,22.5,3.4
		c-10.2,15.7-26.1,17.3-42.1,14.9c-32.9-4.8-65.4-3.8-98.3-0.3c-22.1,2.3-43.4-9.2-65.9-8.9c-21.4,0.3-42.8,3.1-64.3-1.5
		c-9.2-1.9-8.5,6-8.2,13.4c0.3,9.8,6.2,24.5-6.8,28c-17,4.7-35.7,12.4-53-1.5c-6.5-5.2-7.2-12-7.1-19.5c0.2-19.2-0.2-38.3,0.2-57.5
		c0.2-8.9-1.5-16.4-11.3-17.9c-11.2-1.7-11.5,9.5-11.5,14.8c0.1,24-12.8,29.8-34.3,33.6c-29.8,5.2-58.9,13.7-89.3,6
		c-3-0.8-5.8-2.5-8.7-3.8c3.3-5.7,8.8-8.1,14.8-8.5c28.2-2.2,55.7-9.4,83.8-11.8c6.1-0.2,12.3,2.3,15,1.3c-1,0.5-5.5-1.3-9.9-1.1
		c-81.6-19.2-153-57.9-215.1-113.7c-10.3-9.2-21.7-15-34.7-18.1c-77-18.6-154.8-25.4-234.1-18.8c-46.2,3.9-92.1,8.6-137.2,19.7
		c-6.9,1.7-14.5,2.1-22.2,9.6c18.5,13.2,37.6,24.5,57.1,34.8c81.5,43.3,165.8,79.5,257.3,96.3C501.6,981.7,510.7,982,515.9,990.5z"
		/>
	<path class="st0" d="M897.5,157c-1.4-2.7-2.7-5.4-4.1-8.1c3.8-1.7,6.3-4.5,7.7-8.5c3.8-10.9,7.2-5.4,11.6,0
		c12.2,14.9,11.4,34.5,19.3,51c9.2,19.2,24.6,22.8,40.1,7.8c5.7-5.5,11.1-11.3,16.1-17.5c13.2-16.4,27.3-17.6,41-2.1
		c33.7,38.3,59,82.3,79.6,128.4c7.6,17,11.2,37.7,11.2,57.6c0,4,0,8.5,4.2,10.4c4.7,2.2,6.9-2.3,9.5-5
		c30.1-31.5,62.2-61.4,100.3-82.3c25.6-14.1,51.8-28.8,80.8-35.7c19.7-4.7,25.8,5.9,29,25.2c6.9,42.3-5.4,82.1-8.8,123
		c-1.8,21.6-10.2,40.7-17.7,60.4c-2.2,5.8-4.8,12.3,0.4,16.6c7.2,5.9,9.5-3.7,13.9-6.5c37.8-24.5,75.2-50,120.5-59.4
		c14.7-3,28.7,10.4,29.6,29.2c1.9,43.6-1.5,86.7-13.8,129c-10.8,36.8-23.1,72.7-44.6,104.9c-29.8,44.6-72.5,74.6-118.7,98.3
		c-15.8,8.1-29.6,16.4-45.9,29.6c56.3,6.5,108.5,7,161,1.7c39.2-4,77.1,6.2,114.9,15c12.2,2.8,23.9,7.4,36.5,8.2
		c9.5,0.6,18.8,2.6,21.6,13.7c2.7,10.7-3.4,18.5-11.5,23.2c-25.6,14.6-51.1,29.8-78,41.5c-12.1,5.3-23.5,12.2-34.1,18.6
		c-32.6,19.8-68.5,31.4-103.7,43.4c-35.2,12-70.8,24.5-108.1,29.9c-11.8,1.7-23.7,0.4-33.8-7.6c4.2-10.1,13.9-8.8,22-10.3
		c112.2-20.8,213.9-67.4,311.1-125.5c2.2-1.3,4.5-2.8,5.5-5.9c-2-6-8.2-5.4-12.9-6.5c-121.3-29.7-243.1-33.7-365.5-7
		c-21.1,4.6-38.9,13.6-55.3,28.6c-56.3,51.4-123.9,82.6-196.5,103.5c-5.6,1.6-11.6,3.2-17.5,0.4c-6.9-6.8-3.6-13.8-0.3-20.8
		c2.8-4.6,6.6-8.2,11-11.2c46.4-17.7,91.8-37.5,134.1-63.7c65.6-40.6,121-91.9,161.1-158.4c31.5-52.2,43.5-110.1,47.2-170.3
		c0.6-9.6-3.5-11.7-11.7-10.2c-45.9,8.3-89.8,22.3-130,46.6c-8,4.8-12.3,11.4-12.5,21c-1.9,95-43.3,174.1-99.8,247.3
		c-16.6,21.6-36.1,40.4-55.7,59.2c-5.7,5.5-12.1,10.4-20.9,10c-4.7-1.2-6.7-4.6-7.6-9c-0.9-6.6,0.7-12.5,5-17.5
		c2.7-3,5.8-5.5,8.3-8.8c36.7-36.5,68.9-76.2,93.5-122c23.9-44.4,36.3-91.7,38.9-141.7c2.4-45.8-2.6-90.8-15.7-134.9
		c-3.2-10.8-6.3-21.5-10.6-31.9c-13.4-31.8-14.5-32.1-41.6-10.3c-6.2,5-12.3,10.1-19.1,14.1c-5.4,3.1-11.4,8.3-17.2,0.3
		c-2.7-11.7,3.9-21.6,6.2-32.3c2.3-5.6,6.3-10,10-14.7c11.2-11.5,25-19.6,38.9-27.2c16.7-9.1,24.2-7.1,34.6,9.4
		c16.7,26.3,28.7,54.6,34,84.9c10.3-35.4,10.5-72.2,8.3-109c-1.3-21.4-8.3-41.4-17.3-60.7c-16.2-35-37.6-66.8-60.1-98
		c-14.6-20.3-16.3-19.8-32.3,0.7c-6,7.7-10.6,17-20.1,21.6c-42.1-0.3-59.2-14.4-65-53.5C906.8,168.7,906.3,160.6,897.5,157z"/>
	<path class="st1" d="M821.8,974.3c-34.4,5.4-68.8,10.8-103.3,16.1c-34.1,2.3-68.4,7.4-102.3,5.9c-33.4-1.5-67.2,0.5-100.3-5.9
		c-97.9-16.7-189.3-51.9-276.3-98.7c-24.7-13.3-48.5-28.3-75.7-44.3c27.5-14.5,54.2-19,80.3-23c59.3-9.2,119.1-15.1,179.2-12.3
		c50.6,2.3,100.8,8.9,150.4,20.4c24.6,5.7,38.4,24.2,56.4,38.1c58.7,45.2,123.4,78.5,195.6,96.2
		C828.3,971.2,824.1,972.3,821.8,974.3z"/>
	<path class="st1" d="M913.3,966.7c85-22,162.1-58.1,226.3-119.8c18.6-17.9,46.2-18.2,70.5-22.4c52.6-9.1,105.8-15.2,159.2-12.4
		c65.7,3.4,131.2,10.2,194.9,28.1c4.2,1.2,9.2,1.8,11.6,8.6c-34.1,21.8-69.6,41.8-106,59.7c-63.4,31.2-129,57-198.5,71.8
		c-16,3.4-32.1,6.8-48.1,10.2c-1.3,0.1-2.6,0.1-4,0.1c-30.4,7.3-61.7,4.7-92.4,6.1c-36.5,1.7-73.4-4.4-109.9-8.5
		c-33.3-3.7-66.4-9.2-99.6-13.9c-2-1.5-4.3-2.7-4.9-5.4C912.7,968.2,913,967.4,913.3,966.7z"/>
	<path class="st1" d="M829.5,942.9C766.8,925.3,709,896.8,656,859.5c-61-43-113.8-94.2-147.8-162.2
		c-25.5-51.1-34.1-106.1-38.8-162.1c-0.8-9.5,4.8-9.4,11.3-8.3c49.2,8.2,96,23.4,139.8,47.6c8.8,4.8,15.4,10.3,15.1,22.8
		c-2.4,87.4,32.3,161.6,84.2,229.1c29.8,38.8,62.5,75,102.8,103.5c3.7,2.7,7.9,4.8,11.8,7.2C832.7,939,831.1,940.9,829.5,942.9z"/>
	<path class="st1" d="M551.2,800.8C393.5,754,313,684,281.6,537.2c-6.9-32.3-9.6-64.7-4.6-97.9c1.9-12.4,7.2-14.8,16.9-11.7
		c53.9,16.9,101.2,44.8,140.2,86c5,5.3,6.1,11.2,6.3,18c3.1,101.2,42,187.8,107.8,263.4C549.1,796.1,549.5,797.4,551.2,800.8z"/>
	<path class="st1" d="M625.5,549.7C574,521.7,522.1,501.8,465.2,498c-9.8-0.7-13.1-8.7-16-15.6c-19.6-47-33-95.5-37.3-146.7
		c-1.8-21-3.2-41.9-3.3-63c0-11.1,3.6-13.9,14.5-9.5c65.8,26.4,124,64.2,173.4,115.1c8.3,8.6,10.7,17.6,8.8,30.4
		c-5.8,39.2,2.8,77.1,14.4,114.4C622.2,530.9,627.6,538.2,625.5,549.7z"/>
	<path class="st1" d="M762,771.9c7.9,18.6,15.9,37.2,23.8,55.8c7,6.5,10.1,15.1,12.1,24.1c4.1,10.3,8.1,20.5,13,32.6
		c-8.8,0.6-13.3-4.1-17.7-8.4c-53-52.8-97.6-111.4-117.8-184.6c-25-90.6-13.9-178.6,24.6-263.7c5.2-11.6,9.9-14.9,21.4-5.1
		c19.5,16.6,40.7,31.3,61.3,46.7c7.7,5.7,10.9,10.9,5.1,21.2c-25.6,46.1-40.1,95.6-41.7,148.7c-0.3,11.1-2.1,22.2-3.3,33.3
		c0.1,2.8-0.6,5.5-1.9,8c-4.6,8.1-12,13.8-18.1,20.7c-17,19.2-14,33.6,9.4,44.3c5.4,2.5,11,4.3,16.1,7.3
		C757.7,755.8,761,763,762,771.9z"/>
	<path class="st1" d="M635.2,379.1c-0.5-47.9,22.1-87.5,46-126.4c12.1-19.6,26.5-37.7,39.7-56.6c9.4-13.4,18.3-12.6,27.1,0.5
		c10.7,15.9,21.6,31.6,32.1,47.5c3.6,5.5,5.8,12.2,14.1,12.1c2.1,2.6,2.2,5.4,0.6,8.3c-14.6,5.7-16.5,16.2-12.7,30.1
		c7.5,27.3,17.1,53.5,30.8,78.4c6.3,11.4,16.6,22.8,9.4,38c-3.9,4.4-7.9,8.7-11.5,13.3c-17.2,21.6-17.2,21.7-38.3,2.4
		c-16.1-14.8-34-27-52.3-38.6c-20.7-13.2-23.7-12.1-36.6,9.6c-15.8,26.7-24.5,56.4-34.8,90c-8.8-26.5-14.7-49-13.5-73
		C638.3,402.9,638.3,391,635.2,379.1z"/>
	<path class="st2" d="M969.6,654c-3.7,26.1-12.7,50.4-21.6,74.2c-10.7,28.5-10.9,57.9-14.8,87.1c-0.7,5.2,0.1,11-2.1,15.5
		c-3.9,7.9-4.9,21.2-14.3,21.5c-8.5,0.3-5.4-13.2-9.2-19.6c-7.9-12.9-16.2-25.6-25.3-37.7c-8.3-11-2.4-15.4,7.3-18.4
		c30.9-9.4,30.1-9.4,32.1-40.9c1.5-23.6,7.3-46.8-0.1-70.5c-5.7-18.1-20.4-25.7-37.8-19.5c-28.1,10.1-53,25.6-76.8,43.2
		c-7.5,5.5-16.4,6.5-23.6,0c-7.2-6.5-4.9-14.4-0.1-21.6c4.5-6.7,10.5-11.5,17.5-15.7c14.7-8.8,29.1-18.2,43.4-27.7
		c6.7-4.4,13.3-9.9,15-17.9c8.1-36.9,18.7-73.6,8.7-112c-3.5-13.3-5.5-27-8.5-40.5c-2.1-9.7,1.2-17.8,9.6-21.5
		c8.3-3.7,14.3,4.1,17.3,10c18.3,35.9,40.3,69.6,53.5,108.7c9.7,28.6,16.8,57.9,27,86.3C968.5,642.4,968.7,648.6,969.6,654z"/>
	<path class="st1" d="M980.9,422.7c0.3,11.5-6.2,21.2-8.5,32c-1.1,5.1-1.4,10.6-5.1,14.8c-10.9,7.3-8.8,17.1-5.1,27.2
		c4.3,13.2,2.7,27.2,6.4,40.5c3.2,12.9,10.3,24.5,12.7,37.6c1.8,11.5-0.6,23.3,3.3,34.6c1.2,5.4,1.7,10.9,1.7,16.4
		c-1.3,8.4,2.5,18.5-7.8,24c-8.2-5.1,0.1-14.8-5.7-20.6c-3.4-55.9-24.3-106.3-50.4-154.7c-12.1-22.6-25.9-44.4-41.5-65
		c-7.2-9.6-11.8-10.4-18.8-0.1c-6.6,9.6-12.3,20.1-21.9,27.5c-8.2-7.5-5.5-20.1-14.8-26c3.1-19.9-1-39.4-2.6-59
		c1-3.1,2.8-5.3,6.3-5.7c12,3.9,18,15.1,27.2,22.4c11.1,8.7,20.3,5.9,22.9-7.8c2.5-12.8-0.6-24-8.8-35.1
		c-14.7-19.7-4.1-39.4,4.6-57.6c7.6-15.7,22.3-19.5,38.9-15.1c15.4,4.2,23,14.6,24.1,30.2c0.2,5.2,0.3,10.4,0,15.6
		c-0.2,11.4-6.2,21.2-9.3,31.7c-2.6,7.1-5.4,14.2-6.8,21.7c-10.1,27-5.7,50.2,15.5,71c9.1,8.9,15.5,12.5,26.1,3.6
		C968.3,423,973.6,417.3,980.9,422.7z"/>
	<path class="st1" d="M917.4,946.7c-1.4,6.6-2.8,13.3-4.2,19.9l0.1-0.1c-2.9,2.6-2.6,5.3-0.1,8c-2.9,10.9-1.7,20.6,6.9,29
		c4.4,4.3,12,8.5,7.1,16.3c-6.6,10.6-18.5,7.5-28.3,8.8c-9,1.2-11.4-7-12-13c-2.3-20.3-4.1-40.7,4.3-60.5c8-18.9,7.7-18.8-11.1-22.2
		c-2.9-0.5-5.6-3.4-7.9-5.6c-44.4-45-76.3-97-90.1-159.2c5.3-2.8,10.6-3.2,15.8,0.3c9.2,9.7,22.8,10.6,34.2,13.8
		c49.9,14.1,71.4,62.4,65.7,114.5c-0.5,4.5-0.1,9.1-0.1,18c17-21.6,30.6-40.8,39.6-63c5.5-1.3,6.3,3,7.5,6.6
		c0.7,3.7,0.4,7.4-0.5,11.1c-3.1,7-3.7,14.9-7.1,21.9c-3,4.8-4.8,9.9-4.3,15.5c-4.6,5.1-2.3,11.9-4.6,17.6c-0.5,1.7-1.3,3.3-2.3,4.8
		C922.8,934.8,914.3,937.8,917.4,946.7z"/>
	<path class="st1" d="M770.3,653c5.7-73.4,26.7-141.8,69.2-207.9c11.9,40.8,26,75.4,16.1,117.1c-7.9,33.1-20.9,55.9-52.3,69.1
		c-11.9,5-22.1,14.3-33.1,21.6L770.3,653z"/>
	<path class="st1" d="M909.4,732.4c0,2,0.1,3.9,0,5.9c-0.5,31.7-12.9,39.4-41.9,24.6c-26.8-13.6-52.9-28.6-79.7-43.3
		c0.5-6.3,6.2-8.7,11.1-11.7c25.4-15.3,50.8-30.5,76.2-45.7c21.2-12.7,25.9-10.7,34.1,14.5C909.3,695.3,909,713.9,909.4,732.4z"/>
	<path class="st3" d="M940.9,871.2c0.2-3.9,0.3-7.8,0.5-11.7c4.1-5.5-1.1-10.8-0.3-16.2c1.7-11.8-3.8-24.4,3.7-35.6
		c6.2,6.4,4.7,12.8,2,16.7c12.5-35.3,21.1-74.5,26.3-114.4c3.3-9.5,5.2-19.2,3.7-29.4c-6-16.8-3.4-34.3-4-51.5
		c6.4,5.4,2.9,13.1,4.3,19.6c4.4,5.5,1.9,10.8,0.2,16.2c4.3-13,8.6-26.1,3.6-40.1c-0.1-5.2-0.1-10.5-0.2-15.7
		c-5-11.6,1.4-24.4-3.8-35.9c-3.8-11.9-11.3-22.6-12.2-35.6c-1.4-9.8-5.9-19.8,2.8-28.6c9,4.1,10.8,13.1,13.6,21
		c34.7,97.8,29.8,194.8-7,290.7c-7.2,18.8-12.1,39.3-27.2,54.4C943.2,876.6,940.3,876.6,940.9,871.2z"/>
	<path class="st1" d="M793.9,264.4c0.1-2.7,0.2-5.5,0.3-8.2c14.9-12.3,32.5-21.8,50.2-26.3c39.4-10.1,49.6-38.4,53.2-72.9
		c4.1-2.2,8.8-15.3,12,0.6c0.5,2.6,2,5.1,1.8,7.6c-3.1,44.1,26.6,56.2,61.7,63.1c0.3,0.9,0.7,1.8,1,2.7
		c-7.6,20.5-12.9,23.1-31.1,15.1c-4.8-2.1-9.4-4.4-14.1-6.5c-18.6-12.9-35.2-8.7-53.7,2.6c-23.8,14.5-43.7,33.3-64.8,50.8
		c-4.3,0.6-7.5-1.5-10.3-4.4C796.1,281,788.6,274.3,793.9,264.4z"/>
	<path class="st0" d="M793.9,264.4c2.7,7.8,5.4,15.6,8.1,23.4c12,11.5,13.4,28.5,21.8,41.9c0.8,1.7,1.4,3.5,1.8,5.3
		c2.3,5.4-2.4,10.9,0.1,16.3c4.3,19.9,13.2,39.8-0.2,59.6l-1.7,0l-1.7,0.1c-1.2-13.4-7.3-24.9-14-36.1
		c-16.3-27.2-25.9-57.1-33.3-87.6C770.7,269.3,776.5,263,793.9,264.4z"/>
	<path class="st1" d="M762,771.9c-3.2-7.2-8.8-12-15.6-15.7c2.5-6.2,3.8-12.4,1.9-19.1c-5.5-19.6-6.4-40-9.7-59.9
		c1.4-1.5,2.8-3.1,4.3-4.6c12.6-1.6,17.1-14.8,27.5-19.6l-0.1-0.1c-1,37.6,0.6,75,12.1,111.2c-2.6,2.2-5.2,2.2-7.9,0.2
		C768.3,763.7,762.7,763.9,762,771.9z"/>
	<path class="st4" d="M977.1,708.6c-2.1,41.6-11.1,81.6-31.3,119.3c-0.3-6.7-0.6-13.4-0.9-20.1c6.9-38.9,17.1-77,28.1-115
		C983.6,695.7,978.2,702.7,977.1,708.6z"/>
	<path class="st5" d="M909.4,732.4c-6.6-18.5-6.5-37.1-0.1-55.6C915.2,695.3,915,713.9,909.4,732.4z"/>
	<path class="st3" d="M797.8,851.9c-6.3-6.9-9.8-15.2-12.1-24.1C798.8,831.3,803.8,838.8,797.8,851.9z"/>
	<path class="st2" d="M796.7,744.8c4.2,1,8,2.5,7.6,7.5c-0.3,3.2-3.2,3.7-5.9,3.2c-3.5-0.6-6.1-2.7-6.6-6.2
		C791.2,745.7,794.2,745.3,796.7,744.8z"/>
	<path class="st6" d="M635.2,379.1c6.3,11.9,6.3,23.7,0,35.6C635.2,402.9,635.2,391,635.2,379.1z"/>
	<path class="st7" d="M977.1,708.6c-1-5.4,1.8-11.7-4.1-15.8c1.3-4,2.6-8.1,3.9-12.1C983.3,690,982.8,699.3,977.1,708.6z"/>
	<path class="st8" d="M821.8,974.3c1.3-2.5,2.6-5.1,3.9-7.6c4.8-0.1,8.8,1.8,15.6,7.6C832.6,974.3,827.2,974.3,821.8,974.3z"/>
	<path class="st3" d="M774.3,764.4c2.6-0.1,5.3-0.1,7.9-0.2c5.5,0.6,11.8-2,15.8,4.3c-5.3-0.1-10.5-0.2-15.8-0.3
		C779,768,776.1,767.5,774.3,764.4z"/>
	<path class="st9" d="M941.1,843.4c5.7,5.3,5.3,10.7,0.3,16.2c-0.4-3.1-0.8-6.2-4-7.8C937.2,848.3,937.9,845.3,941.1,843.4z"/>
	<path class="st3" d="M815.5,885.6c2.9,5.3,4.4,7.2,4.9,9.4c0.2,0.7-2.5,3-3.7,2.8c-2.5-0.3-4.7-2.1-4.3-5.1
		C812.7,890.9,813.8,889.3,815.5,885.6z"/>
	<path class="st10" d="M913.3,974.5c-3.1-0.9-8.6,2-8.6-3.2c-0.1-4.3,5.1-4.3,8.7-4.8c1.3,2.6,2.7,5.3,4,7.9
		C916,974.5,914.6,974.5,913.3,974.5z"/>
	<path class="st1" d="M937.5,915.3c36.8-24.7,64.3-58.7,89.8-93.9c40.9-56.3,68.7-118.5,79.6-187.6c0.9-5.8,2-12.1,0.8-17.7
		c-5.6-27.3,9.4-40.1,31.8-50.6c38.5-18.1,78.5-30.6,120.1-38.7c7.3-1.4,15.9-2.3,14.6,9.4c-5.9,55.7-13.2,111.2-39.7,161.9
		c-40,76.5-100.3,133.6-172.9,178.2c-42.8,26.3-87.5,49.2-136.4,62.5c-3.5-3.9-2.8-7.9,0-11.9l0.1-0.1
		C928.5,922,931,916.5,937.5,915.3z"/>
	<path class="st1" d="M1195.9,797c8.6-12.3,17.1-24.5,25.7-36.5c49-67.9,79.8-142.1,81-227c0.1-10,4.6-17.5,11.1-24.5
		c37-39.8,83-64.3,134.4-80c13.9-4.3,16.6-0.1,18,13.2c8.6,80-13.1,152.6-53.4,220.2c-21.7,36.4-55.4,61.7-91,83.7
		c-35.5,22-73.6,38.4-113.3,51.4C1204.7,798.8,1201.1,800.4,1195.9,797z"/>
	<path class="st1" d="M1111.7,552.9c20.1-46,32.2-89,27-133c-3.2-27.5,8.6-43.3,25.7-58.9c45.7-41.7,97-74.7,154.8-97.5
		c11.6-4.6,15.4-2.4,15.5,10c0.9,72.7-11.2,142.7-41.7,209.2c-5,10.9-11.5,14.5-23.7,16c-50.8,6.2-99.2,20.7-143.6,47.1
		C1123,547.5,1120.1,548.7,1111.7,552.9z"/>
	<path class="st1" d="M945,875.1c33.2-64.9,53.4-133.9,54.7-206.6c0.8-45.9-5.9-92-23.1-135.6c-2.9-7.3-5.2-14.9-7.7-22.4
		c-7.4-8.6-4.6-19-5.2-28.8c-1.1-5.3,4-10.1,1.3-15.5c2.5-3.8,5-7.7,7.5-11.5c16.6,1,24.6-12.8,35.1-21.3
		c27.9-22.4,29.6-23.7,42.3,8.8c42.7,109.6,45.5,218-12,324.6c-24.5,45.4-57.2,83.7-92.8,120.2C937.3,883.7,937.3,883.2,945,875.1z"
		/>
	<path class="st1" d="M973,228.3c9.8-13.2,19.4-26.5,29.6-39.4c3.6-4.6,7.6-9.5,13.7-1.3c36.9,49.8,75.6,99,88.4,161.3
		c9.5,46.1,6.9,92.4-10.3,140.8c-8.9-32.7-17.4-61.9-32.8-88.5c-14.8-25.7-17.7-26.8-41.9-11c-10.5,6.8-20.6,14.1-31,21.2
		c-10-5.5-2.8-12.4-0.7-17.9c11.7-30.1,27.7-58.4,34.6-90.3c0.3-1.3,0.8-2.5,1.1-3.8c10.7-38.4,8.5-42.8-28.1-57.4
		c-8.3-3.3-18.5-4-22.8-13.9L973,228.3z"/>
	<path class="st0" d="M972.9,228.1c17.5,7.5,35.1,15,52.6,22.4c9.4,4,11.2,10.2,9.7,20.5c-6.5,45-25.9,85.2-43.5,126.3
		c-1.9,4.3-7.7,8.2-3,14.1c0.5,5.9-5.7,7.2-7.9,11.3c-2.5,0.7-5.4,0.8-7.4,2.2c-27,18.4-25.4,17-46.8-6.7
		c-19.5-21.5-16.4-43.2-9.2-66.8c6.3-1.7,7.8,3.8,10.9,7c15.8,18.8,18.1,18.1,34.3,0.3c16.2-17.8,23.9-39.2,30.3-61.4
		c4.5-15.4-10.5-35.7-26.3-36.8c-5.8-0.4-8.1,3.3-10.4,7.4c-3.5,6.3-6,13.2-10.4,19.1c-7.1,9.5-10,3.4-12.6-3.5
		c0.6-14.6-8.2-22.1-20.1-27.5c-13.9-22.1,10.1-13.9,16.1-20.1c3.6,1.2,7.9,1.6,10.8,3.7C956.8,251.9,966.8,245.7,972.9,228.1z"/>
	<path class="st11" d="M925.2,926.9c0,3.9,0,7.9,0,11.9c-2.6,2.6-5.2,5.3-7.8,8C904.1,933.9,920.4,932.7,925.2,926.9z"/>
	<path class="st12" d="M937.5,915.3c-3,5-7,8.9-12.2,11.5c0.3-7.6-1.2-15.8,7.8-19.9C933.3,910.3,934,913.5,937.5,915.3z"/>
	<path class="st13" d="M945,875.1c-0.4,4-6.5,7.9,0,11.9c-1.5,3.3-4.4,4.1-7.6,4.3c-3.7-7.5-1.4-14.1,3.6-20.1
		C942.3,872.5,943.6,873.8,945,875.1z"/>
	<path class="st0" d="M738.5,677.2c4.9,1.7,7.5,5.4,7.4,10.4c-0.5,19.8,4.7,38.7,9.5,57.5c2.6,10.1-1.1,11.5-9.1,11.1
		c-50.6-20.2-52.8-31.8-13.9-71.5C734.7,682.4,736.5,679.7,738.5,677.2z"/>
	<path class="st14" d="M929.2,236c1.7,4.9,4.1,13-4.8,8.9c-17.4-8.1-9.5,5.6-11.2,11.2c-29.9,0.1-57,36-42.7,60.2
		c7.7,13,16,23.8,15.4,39.7c-0.4,10.9-3.4,18.6-13.7,23.9c-11.8,6-15.1-4.5-20.7-9.5c-7.8-7-14.5-15.2-21.7-22.8
		c-5.5-2.2-4.8-8.5-7.8-12.3c0-1.3,0-2.6,0-3.8c-4.5-13.1-13.5-24.9-12-39.9c21.7-32.4,55.6-49.2,88.3-66.9
		C908.9,219,918.9,231.8,929.2,236z"/>
	<path class="st1" d="M933.3,283.6c3,0.1,3.6,8.7,8.4,2.6c1.6-2,2.4-4.7,3.6-7c16.9-31.8,16.7-31.6,45-10.5
		c10,7.4,12.4,15.7,8.5,27.4c-8.3,25-17,49.2-34.9,69.8c-17.1,19.5-26.4,18.8-39-6.5c-3.7-7.6-3.3-15.2,0.3-22.7
		c1-12.6,17.2-21.9,8-36.7C933.2,294.4,933.2,289,933.3,283.6z"/>
	<path class="st15" d="M968.9,478.2c0,10.8-0.1,21.6-0.1,32.3c-8,8.1-2.2,18.2-4,27.2c-7-13.7-3-29.5-7.8-43.6
		C964.3,491.3,957.2,477.8,968.9,478.2z"/>
	<path class="st16" d="M968.9,478.2c-9.4,1.4,4.3,19.7-11.9,16c-9.1-12.6-3.1-21,7.9-28C969.9,469,968.6,473.8,968.9,478.2z"/>
	<path class="st17" d="M933.2,299.8c11.7,2.3,8,9.6,5,16.3c-2.9,6.5-6.3,12.8-9.4,19.2c-3.5,0.7-5.6,0.1-3.8-4.1
		C927.8,320.7,930.5,310.3,933.2,299.8z"/>
	<path class="st15" d="M981,624.9c7.4,13.5,3.4,26.5-3.8,39.7c0-5.3,0-10.5,0-15.8C984,641.8,979.5,632.9,981,624.9z"/>
	<path class="st18" d="M925,331.2c1.3,1.4,2.5,2.7,3.8,4.1c-4.1,7.5-3.6,15.8-3.9,24c-2.5-2.6-5-5.2-7.5-7.8
		C918.7,344.2,920,337,925,331.2z"/>
	<path class="st15" d="M977,573.3c7.6,11.3,2.4,24,3.8,35.9C973,598,978.5,585.3,977,573.3z"/>
	<path class="st19" d="M821.9,335.3c2.6,4.1,5.2,8.2,7.8,12.3c-1.3,1.2-2.6,2.5-3.9,3.7C820.1,347.1,822.4,340.9,821.9,335.3z"/>
	<path class="st20" d="M809.9,291.6c2.6,13.7,12.4,25.2,12,39.9c-13.2-11.6-12.7-29.4-19.9-43.7C804.7,289,807.3,290.3,809.9,291.6z
		"/>
</g>
<g id="Groupe_1" transform="translate(618 226)">
	<g id="Rectangle_1" transform="translate(-618 63)">
		<rect x="-290" y="159.7" class="st21" width="224" height="81.4"/>
		<rect x="-289.7" y="160" class="st22" width="223.3" height="80.8"/>
	</g>
	<g id="Rectangle_2" transform="translate(-618 352)">
		<rect x="-290" y="24.4" class="st23" width="224" height="81.4"/>
		<rect x="-289.7" y="24.7" class="st22" width="223.3" height="80.8"/>
	</g>
	<g id="Rectangle_3" transform="translate(-618 877)">
		<rect x="-290" y="-221.4" class="st24" width="224" height="81.4"/>
		<rect x="-289.7" y="-221.1" class="st22" width="223.3" height="80.8"/>
	</g>
	<g id="Rectangle_4" transform="translate(-618 624)">
		<rect x="-290" y="-102.9" class="st25" width="224" height="81.4"/>
		<rect x="-289.7" y="-102.7" class="st22" width="223.3" height="80.8"/>
	</g>
	<g id="Rectangle_5" transform="translate(-618 -226)">
		<rect x="-290" y="295" class="st26" width="224" height="81.4"/>
		<rect x="-289.7" y="295.3" class="st22" width="223.3" height="80.8"/>
	</g>
</g>
</svg>
